<svg width="40" height="41" viewBox="0 0 40 41" fill="none" xmlns="http://www.w3.org/2000/svg">
<g clip-path="url(#clip0_205_1175)">
<path d="M20 40.3877C31.0457 40.3877 40 31.4334 40 20.3877C40 9.342 31.0457 0.387695 20 0.387695C8.9543 0.387695 0 9.342 0 20.3877C0 31.4334 8.9543 40.3877 20 40.3877Z" fill="#222222"/>
<path d="M17.8021 27.157C17.8944 27.1572 17.9858 27.1755 18.0711 27.2109C18.1563 27.2464 18.2337 27.2983 18.2989 27.3636C18.3641 27.429 18.4158 27.5066 18.451 27.5919C18.4862 27.6773 18.5042 27.7687 18.5041 27.861C18.504 27.9534 18.4857 28.0447 18.4502 28.13C18.4148 28.2152 18.3629 28.2926 18.2975 28.3578C18.2321 28.423 18.1545 28.4747 18.0692 28.5099C17.9839 28.5451 17.8924 28.5632 17.8001 28.563C17.6137 28.5628 17.435 28.4884 17.3033 28.3564C17.1716 28.2244 17.0978 28.0455 17.0981 27.859C17.0984 27.6726 17.1727 27.4939 17.3047 27.3622C17.4367 27.2306 17.6157 27.1568 17.8021 27.157ZM28.8261 22.81C28.7338 22.81 28.6424 22.7917 28.5571 22.7563C28.4718 22.7209 28.3944 22.6691 28.3292 22.6038C28.2639 22.5384 28.2122 22.4609 28.1769 22.3756C28.1417 22.2903 28.1235 22.1989 28.1236 22.1065C28.1237 22.0142 28.1419 21.9228 28.1773 21.8375C28.2127 21.7523 28.2645 21.6748 28.3299 21.6096C28.3952 21.5443 28.4727 21.4926 28.558 21.4574C28.6434 21.4221 28.7348 21.404 28.8271 21.404C29.0135 21.4042 29.1923 21.4784 29.3241 21.6103C29.4558 21.7422 29.5297 21.9211 29.5296 22.1075C29.5295 22.294 29.4553 22.4727 29.3233 22.6045C29.1914 22.7362 29.0126 22.8102 28.8261 22.81ZM28.8261 19.934C28.2497 19.9346 27.697 20.1638 27.2894 20.5714C26.8818 20.979 26.6526 21.5316 26.6521 22.108C26.6521 22.341 26.6911 22.573 26.7671 22.799L19.5861 26.622C19.387 26.3329 19.1206 26.0966 18.8098 25.9333C18.499 25.7701 18.1532 25.6849 17.8021 25.685C16.9731 25.685 16.2181 26.16 15.8521 26.901L9.4011 23.499C8.7191 23.141 8.2091 22.019 8.2631 20.997C8.2911 20.464 8.4751 20.05 8.7561 19.89C8.9341 19.79 9.1481 19.798 9.3761 19.917L9.4181 19.94C11.1281 20.84 16.7221 23.787 16.9581 23.896C17.3211 24.065 17.5231 24.133 18.1431 23.839L29.7071 17.825C29.8771 17.761 30.0751 17.598 30.0751 17.351C30.0751 17.009 29.7201 16.874 29.7201 16.874C29.0621 16.559 28.0511 16.086 27.0651 15.624C24.9571 14.637 22.5681 13.519 21.5191 12.969C20.6131 12.495 19.8841 12.895 19.7541 12.975L19.5021 13.1C14.7801 15.435 8.4601 18.565 8.1001 18.784C7.4571 19.176 7.0581 19.957 7.0061 20.926C6.9261 22.463 7.7091 24.066 8.8301 24.653L15.6521 28.171C15.7273 28.6878 15.9858 29.1603 16.3806 29.5022C16.7753 29.844 17.2799 30.0325 17.8021 30.033C18.3724 30.0321 18.9196 29.8073 19.326 29.4071C19.7323 29.007 19.9654 28.4633 19.9751 27.893L27.4891 23.82C27.8691 24.118 28.3421 24.281 28.8261 24.281C29.4025 24.2805 29.9552 24.0513 30.3628 23.6437C30.7704 23.2361 30.9996 22.6835 31.0001 22.107C30.9996 21.5306 30.7704 20.978 30.3628 20.5704C29.9552 20.1628 29.4025 19.9336 28.8261 19.933" fill="#FFC764"/>
</g>
<defs>
<clipPath id="clip0_205_1175">
<rect width="40" height="40" fill="white" transform="translate(0 0.387695)"/>
</clipPath>
</defs>
</svg>
