<svg width="40" height="41" viewBox="0 0 40 41" fill="none" xmlns="http://www.w3.org/2000/svg">
<g clip-path="url(#clip0_205_1195)">
<path d="M20 40.3877C31.0457 40.3877 40 31.4334 40 20.3877C40 9.342 31.0457 0.387695 20 0.387695C8.9543 0.387695 0 9.342 0 20.3877C0 31.4334 8.9543 40.3877 20 40.3877Z" fill="#222222"/>
<mask id="mask0_205_1195" style="mask-type:luminance" maskUnits="userSpaceOnUse" x="8" y="8" width="24" height="25">
<path d="M31.4351 8.3877H8.04395V32.1304H31.4351V8.3877Z" fill="white"/>
</mask>
<g mask="url(#mask0_205_1195)">
<path d="M28.3844 22.5746C28.1992 22.7022 27.9831 22.7775 27.7588 22.7925C27.5344 22.8076 27.3102 22.7619 27.1096 22.6602C26.6389 22.3943 26.3852 21.7707 26.3852 20.9209V18.3164C26.3852 17.0662 25.89 16.1766 25.0615 15.9351C23.6615 15.5255 22.616 17.2404 22.2125 17.8854L19.7365 21.893V17.002C19.709 15.874 19.3421 15.1984 18.6482 14.9967C18.1897 14.8622 17.5019 14.9172 16.8324 15.9382L11.2965 24.8245C10.5599 23.4152 10.1779 21.8477 10.1838 20.2575C10.1838 14.9019 14.4634 10.5459 19.7365 10.5459C25.0096 10.5459 29.3045 14.9019 29.3045 20.2575V20.285C29.3045 20.285 29.3045 20.3034 29.3045 20.3125C29.3564 21.3488 29.0202 22.1742 28.3874 22.5746H28.3844ZM31.4412 20.2606V20.2086C31.3984 13.6822 26.1651 8.3877 19.7365 8.3877C13.3079 8.3877 8.04395 13.7128 8.04395 20.2575C8.04395 26.8023 13.2895 32.1304 19.7365 32.1304C22.6933 32.1303 25.5377 30.9969 27.6843 28.9635C27.8927 28.7672 28.0153 28.4967 28.0256 28.2106C28.0359 27.9245 27.9331 27.6458 27.7394 27.4351C27.6467 27.3325 27.5346 27.2493 27.4096 27.1903C27.2847 27.1312 27.1492 27.0974 27.0112 27.0909C26.8731 27.0844 26.7351 27.1052 26.6051 27.1522C26.4751 27.1992 26.3557 27.2714 26.2537 27.3647C25.3295 28.2414 24.2377 28.9223 23.0438 29.3665C21.8499 29.8107 20.5785 30.0091 19.306 29.9497C18.0335 29.8903 16.7862 29.5744 15.6388 29.021C14.4915 28.4675 13.4678 27.6879 12.6293 26.7289L17.6119 18.7199V22.4157C17.6119 24.1917 18.2997 24.7664 18.8775 24.9345C19.4552 25.1027 20.3387 24.9865 21.2649 23.4825L24.0161 19.0287C24.1017 18.885 24.1842 18.7627 24.2576 18.6557V20.9209C24.2576 22.5807 24.924 23.9074 26.0917 24.5616C26.6227 24.8482 27.221 24.9867 27.8239 24.9625C28.4269 24.9383 29.0122 24.7523 29.5185 24.424C30.8023 23.5895 31.5024 22.0794 31.429 20.2606H31.4412Z" fill="#FFC764"/>
</g>
</g>
<defs>
<clipPath id="clip0_205_1195">
<rect width="40" height="40" fill="white" transform="translate(0 0.387695)"/>
</clipPath>
</defs>
</svg>
