<svg width="40" height="41" viewBox="0 0 40 41" fill="none" xmlns="http://www.w3.org/2000/svg">
<g clip-path="url(#clip0_205_1187)">
<path d="M20 40.3877C31.0457 40.3877 40 31.4334 40 20.3877C40 9.342 31.0457 0.387695 20 0.387695C8.9543 0.387695 0 9.342 0 20.3877C0 31.4334 8.9543 40.3877 20 40.3877Z" fill="#222222"/>
<mask id="mask0_205_1187" style="mask-type:luminance" maskUnits="userSpaceOnUse" x="7" y="9" width="24" height="25">
<path d="M31 9.3877H7V33.3877H31V9.3877Z" fill="white"/>
</mask>
<g mask="url(#mask0_205_1187)">
<path fill-rule="evenodd" clip-rule="evenodd" d="M19 9.3877C12.37 9.3877 7 14.7577 7 21.3877C7 26.6977 10.435 31.1827 15.205 32.7727C15.805 32.8777 16.03 32.5177 16.03 32.2027C16.03 31.9177 16.015 30.9727 16.015 29.9677C13 30.5227 12.22 29.2327 11.98 28.5577C11.845 28.2127 11.26 27.1477 10.75 26.8627C10.33 26.6377 9.73 26.0827 10.735 26.0677C11.68 26.0527 12.355 26.9377 12.58 27.2977C13.66 29.1127 15.385 28.6027 16.075 28.2877C16.18 27.5077 16.495 26.9827 16.84 26.6827C14.17 26.3827 11.38 25.3477 11.38 20.7577C11.38 19.4527 11.845 18.3727 12.61 17.5327C12.49 17.2327 12.07 16.0027 12.73 14.3527C12.73 14.3527 13.735 14.0377 16.03 15.5827C16.99 15.3127 18.01 15.1777 19.03 15.1777C20.05 15.1777 21.07 15.3127 22.03 15.5827C24.325 14.0227 25.33 14.3527 25.33 14.3527C25.99 16.0027 25.57 17.2327 25.45 17.5327C26.215 18.3727 26.68 19.4377 26.68 20.7577C26.68 25.3627 23.875 26.3827 21.205 26.6827C21.64 27.0577 22.015 27.7777 22.015 28.9027C22.015 30.5077 22 31.7977 22 32.2027C22 32.5177 22.225 32.8927 22.825 32.7727C25.2072 31.9684 27.2772 30.4374 28.7437 28.3951C30.2101 26.3527 30.9993 23.902 31 21.3877C31 14.7577 25.63 9.3877 19 9.3877Z" fill="#FFC764"/>
</g>
</g>
<defs>
<clipPath id="clip0_205_1187">
<rect width="40" height="40" fill="white" transform="translate(0 0.387695)"/>
</clipPath>
</defs>
</svg>
