<svg width="40" height="41" viewBox="0 0 40 41" fill="none" xmlns="http://www.w3.org/2000/svg">
<g clip-path="url(#clip0_205_1163)">
<path d="M20 40.3877C31.0457 40.3877 40 31.4334 40 20.3877C40 9.342 31.0457 0.387695 20 0.387695C8.9543 0.387695 0 9.342 0 20.3877C0 31.4334 8.9543 40.3877 20 40.3877Z" fill="#222222"/>
<path d="M19.0001 18.263C17.2798 18.263 15.8759 19.6669 15.8759 21.3872C15.8759 23.1075 17.2798 24.5114 19.0001 24.5114C20.7204 24.5114 22.1243 23.1075 22.1243 21.3872C22.1243 19.6669 20.7204 18.263 19.0001 18.263ZM28.3704 21.3872C28.3704 20.0935 28.3821 18.8114 28.3095 17.52C28.2368 16.02 27.8946 14.6888 26.7978 13.5919C25.6985 12.4927 24.3696 12.1529 22.8696 12.0802C21.5759 12.0075 20.2939 12.0193 19.0025 12.0193C17.7087 12.0193 16.4267 12.0075 15.1353 12.0802C13.6353 12.1529 12.304 12.495 11.2071 13.5919C10.1079 14.6911 9.76808 16.02 9.69542 17.52C9.62277 18.8138 9.63449 20.0958 9.63449 21.3872C9.63449 22.6786 9.62277 23.963 9.69542 25.2544C9.76808 26.7544 10.1103 28.0857 11.2071 29.1825C12.3064 30.2818 13.6353 30.6216 15.1353 30.6943C16.429 30.7669 17.711 30.7552 19.0025 30.7552C20.2962 30.7552 21.5782 30.7669 22.8696 30.6943C24.3696 30.6216 25.7009 30.2794 26.7978 29.1825C27.897 28.0833 28.2368 26.7544 28.3095 25.2544C28.3845 23.963 28.3704 22.681 28.3704 21.3872ZM19.0001 26.1943C16.34 26.1943 14.1931 24.0474 14.1931 21.3872C14.1931 18.7271 16.34 16.5802 19.0001 16.5802C21.6603 16.5802 23.8071 18.7271 23.8071 21.3872C23.8071 24.0474 21.6603 26.1943 19.0001 26.1943ZM24.004 17.506C23.3829 17.506 22.8814 17.0044 22.8814 16.3833C22.8814 15.7622 23.3829 15.2607 24.004 15.2607C24.6251 15.2607 25.1267 15.7622 25.1267 16.3833C25.1269 16.5308 25.0979 16.6769 25.0416 16.8132C24.9852 16.9494 24.9026 17.0733 24.7983 17.1776C24.694 17.2819 24.5701 17.3645 24.4339 17.4209C24.2976 17.4772 24.1515 17.5062 24.004 17.506Z" fill="#FFC764"/>
</g>
<defs>
<clipPath id="clip0_205_1163">
<rect width="40" height="40" fill="white" transform="translate(0 0.387695)"/>
</clipPath>
</defs>
</svg>
