<svg width="40" height="41" viewBox="0 0 40 41" fill="none" xmlns="http://www.w3.org/2000/svg">
<g clip-path="url(#clip0_205_1183)">
<path d="M20 40.3877C31.0457 40.3877 40 31.4334 40 20.3877C40 9.342 31.0457 0.387695 20 0.387695C8.9543 0.387695 0 9.342 0 20.3877C0 31.4334 8.9543 40.3877 20 40.3877Z" fill="#222222"/>
<path d="M10.465 14.4677C10.4803 14.3155 10.4598 14.1619 10.4051 14.0191C10.3504 13.8762 10.263 13.7482 10.15 13.6452L7.815 10.8115V10.3877H15.0625L20.665 22.7689L25.59 10.3877H32.5V10.8115L30.5037 12.7377C30.4192 12.803 30.3539 12.8901 30.3149 12.9896C30.276 13.0891 30.2648 13.1973 30.2825 13.3027V27.4702C30.2648 27.5756 30.276 27.6838 30.3149 27.7833C30.3539 27.8828 30.4192 27.9699 30.5037 28.0352L32.4537 29.9627V30.3877H22.6488V29.9639L24.6687 27.9889C24.8675 27.7889 24.8675 27.7302 24.8675 27.4252V15.9727L19.2525 30.3402H18.495L11.9575 15.9727V25.6027C11.9037 26.0065 12.0375 26.4152 12.32 26.7077L14.9462 29.9177V30.3402H7.5V29.9177L10.125 26.7077C10.2639 26.5628 10.367 26.3874 10.426 26.1955C10.485 26.0036 10.4984 25.8006 10.465 25.6027V14.4677Z" fill="#FFC764"/>
</g>
<defs>
<clipPath id="clip0_205_1183">
<rect width="40" height="40" fill="white" transform="translate(0 0.387695)"/>
</clipPath>
</defs>
</svg>
