<svg width="40" height="41" viewBox="0 0 40 41" fill="none" xmlns="http://www.w3.org/2000/svg">
<g clip-path="url(#clip0_205_1179)">
<path d="M20 40.3877C31.0457 40.3877 40 31.4334 40 20.3877C40 9.342 31.0457 0.387695 20 0.387695C8.9543 0.387695 0 9.342 0 20.3877C0 31.4334 8.9543 40.3877 20 40.3877Z" fill="#222222"/>
<path d="M31.9999 20.5373C31.9999 19.0373 30.7999 17.8373 29.2999 17.9873C28.6999 17.9873 27.9499 18.2873 27.4999 18.7373C25.3999 17.3873 22.9999 16.4873 20.4499 16.4873L21.6499 10.7873L25.5499 11.6873C25.5499 12.7373 26.4499 13.4873 27.4999 13.4873C28.5499 13.4873 29.2999 12.5873 29.2999 11.5373C29.2999 10.4873 28.3999 9.7373 27.3499 9.7373C26.5999 9.7373 25.9999 10.1873 25.6999 10.7873L21.4999 9.7373H21.1999C21.0499 9.7373 21.0499 9.8873 21.0499 10.0373L19.5499 16.4873C16.9999 16.4873 14.5999 17.2373 12.4999 18.7373C11.4499 17.6873 9.7999 17.6873 8.7499 18.7373C7.6999 19.7873 7.6999 21.4373 8.7499 22.4873C8.8999 22.6373 9.1999 22.9373 9.4999 22.9373V23.6873C9.4999 27.7373 14.1499 31.0373 19.9999 31.0373C25.8499 31.0373 30.4999 27.7373 30.4999 23.6873V22.9373C31.3999 22.4873 31.9999 21.5873 31.9999 20.5373ZM13.9999 22.4873C13.9999 21.4373 14.8999 20.6873 15.7999 20.6873C16.8499 20.6873 17.5999 21.5873 17.5999 22.4873C17.5999 23.3873 16.6999 24.2873 15.7999 24.2873C14.7499 24.2873 13.9999 23.5373 13.9999 22.4873ZM24.4999 27.4373C23.1499 28.3373 21.6499 28.9373 19.9999 28.7873C18.3499 28.7873 16.8499 28.3373 15.4999 27.4373C15.3499 27.2873 15.3499 26.9873 15.4999 26.6873C15.6499 26.5373 15.9499 26.5373 16.0999 26.6873C17.1499 27.4373 18.4999 27.8873 19.8499 27.7373C21.1999 27.8873 22.5499 27.4373 23.5999 26.6873C23.7499 26.5373 24.0499 26.5373 24.3499 26.6873C24.6499 26.8373 24.6499 27.1373 24.4999 27.4373ZM24.0499 24.2873C22.9999 24.2873 22.2499 23.3873 22.2499 22.4873C22.2499 21.5873 23.1499 20.6873 24.0499 20.6873C25.0999 20.6873 25.8499 21.5873 25.8499 22.4873C25.9999 23.5373 25.0999 24.2873 24.0499 24.2873Z" fill="#FFC764"/>
</g>
<defs>
<clipPath id="clip0_205_1179">
<rect width="40" height="40" fill="white" transform="translate(0 0.387695)"/>
</clipPath>
</defs>
</svg>
