<svg width="40" height="41" viewBox="0 0 40 41" fill="none" xmlns="http://www.w3.org/2000/svg">
<g clip-path="url(#clip0_205_1159)">
<path d="M20 40.3877C31.0457 40.3877 40 31.4334 40 20.3877C40 9.342 31.0457 0.387695 20 0.387695C8.9543 0.387695 0 9.342 0 20.3877C0 31.4334 8.9543 40.3877 20 40.3877Z" fill="#222222"/>
<path d="M9.82488 19.8027C15.6561 17.2627 19.5436 15.5881 21.4874 14.779C27.0436 12.4687 28.1968 12.0674 28.9499 12.0538C29.1155 12.0512 29.4843 12.0921 29.7249 12.2866C29.9249 12.4507 29.9811 12.6726 30.0093 12.8284C30.0343 12.984 30.0686 13.3387 30.0405 13.6156C29.7405 16.7781 28.4374 24.4524 27.7749 27.9946C27.4968 29.4934 26.9436 29.9959 26.4093 30.0449C25.2468 30.1518 24.3655 29.2774 23.2405 28.5402C21.4811 27.3862 20.4874 26.6681 18.778 25.5421C16.803 24.2409 18.0843 23.5256 19.2093 22.3568C19.503 22.0509 24.6218 17.3962 24.7186 16.974C24.7311 16.9212 24.7436 16.7243 24.6249 16.6206C24.5093 16.5165 24.3374 16.5521 24.2124 16.5802C24.0343 16.6202 21.2249 18.479 15.7749 22.1562C14.978 22.7043 14.2561 22.9715 13.6061 22.9574C12.8936 22.9421 11.5186 22.5537 10.4968 22.2218C9.24676 21.8146 8.24988 21.5993 8.33738 20.9077C8.38113 20.5477 8.87801 20.1793 9.82488 19.8027Z" fill="#FFC764"/>
</g>
<defs>
<clipPath id="clip0_205_1159">
<rect width="40" height="40" fill="white" transform="translate(0 0.387695)"/>
</clipPath>
</defs>
</svg>
