<svg width="40" height="41" viewBox="0 0 40 41" fill="none" xmlns="http://www.w3.org/2000/svg">
<g clip-path="url(#clip0_205_1167)">
<path d="M20 40.3877C31.0457 40.3877 40 31.4334 40 20.3877C40 9.342 31.0457 0.387695 20 0.387695C8.9543 0.387695 0 9.342 0 20.3877C0 31.4334 8.9543 40.3877 20 40.3877Z" fill="#222222"/>
<mask id="mask0_205_1167" style="mask-type:luminance" maskUnits="userSpaceOnUse" x="7" y="10" width="25" height="21">
<path d="M32 10.3877H7.5V30.3877H32V10.3877Z" fill="white"/>
</mask>
<g mask="url(#mask0_205_1167)">
<path d="M31.9986 12.8226C31.0812 13.229 30.1082 13.4957 29.1119 13.614C30.1497 12.9919 30.9465 12.007 31.3217 10.8334C30.3352 11.4188 29.2558 11.8313 28.1303 12.053C27.2134 11.0763 25.9073 10.4658 24.4616 10.4658C21.686 10.4658 19.4355 12.7162 19.4355 15.4917C19.4355 15.8856 19.48 16.2692 19.5657 16.6371C15.3886 16.4275 11.6853 14.4266 9.20634 11.3858C8.7738 12.1281 8.52595 12.9916 8.52595 13.9125C8.52595 15.6563 9.41332 17.1945 10.7618 18.0959C9.9637 18.0709 9.18313 17.8553 8.48528 17.4672C8.485 17.4882 8.485 17.5093 8.485 17.5304C8.485 19.9655 10.2174 21.9969 12.5166 22.4586C11.7765 22.6599 11.0001 22.6894 10.2469 22.5448C10.8864 24.5415 12.7426 25.9945 14.9418 26.0352C13.2217 27.3831 11.0546 28.1867 8.69992 28.1867C8.29418 28.1867 7.89418 28.1629 7.50098 28.1164C9.72519 29.5425 12.367 30.3745 15.2053 30.3745C24.45 30.3745 29.5052 22.7161 29.5052 16.0745C29.5052 15.8565 29.5004 15.6398 29.4906 15.4243C30.4746 14.713 31.3239 13.832 31.9986 12.8226Z" fill="#FFC764"/>
</g>
</g>
<defs>
<clipPath id="clip0_205_1167">
<rect width="40" height="40" fill="white" transform="translate(0 0.387695)"/>
</clipPath>
</defs>
</svg>
