<svg width="25" height="24" viewBox="0 0 25 24" fill="none" xmlns="http://www.w3.org/2000/svg">
<path d="M20.2993 9H11.2993C10.1947 9 9.29932 9.89543 9.29932 11V20C9.29932 21.1046 10.1947 22 11.2993 22H20.2993C21.4039 22 22.2993 21.1046 22.2993 20V11C22.2993 9.89543 21.4039 9 20.2993 9Z" stroke="black" stroke-width="2" stroke-linecap="round" stroke-linejoin="round"/>
<path d="M5.29932 15H4.29932C3.76888 15 3.26018 14.7893 2.8851 14.4142C2.51003 14.0391 2.29932 13.5304 2.29932 13V4C2.29932 3.46957 2.51003 2.96086 2.8851 2.58579C3.26018 2.21071 3.76888 2 4.29932 2H13.2993C13.8297 2 14.3385 2.21071 14.7135 2.58579C15.0886 2.96086 15.2993 3.46957 15.2993 4V5" stroke="black" stroke-width="2" stroke-linecap="round" stroke-linejoin="round"/>
</svg>
