<svg width="25" height="24" viewBox="0 0 25 24" fill="none" xmlns="http://www.w3.org/2000/svg">
<path d="M12.8003 13.4L15.7003 16.3C15.8836 16.4833 16.117 16.575 16.4003 16.575C16.6836 16.575 16.917 16.4833 17.1003 16.3C17.2836 16.1167 17.3753 15.8833 17.3753 15.6C17.3753 15.3167 17.2836 15.0833 17.1003 14.9L14.2003 12L17.1003 9.1C17.2836 8.91667 17.3753 8.68333 17.3753 8.4C17.3753 8.11667 17.2836 7.88333 17.1003 7.7C16.917 7.51667 16.6836 7.425 16.4003 7.425C16.117 7.425 15.8836 7.51667 15.7003 7.7L12.8003 10.6L9.90029 7.7C9.71696 7.51667 9.48363 7.425 9.20029 7.425C8.91696 7.425 8.68363 7.51667 8.50029 7.7C8.31696 7.88333 8.22529 8.11667 8.22529 8.4C8.22529 8.68333 8.31696 8.91667 8.50029 9.1L11.4003 12L8.50029 14.9C8.31696 15.0833 8.22529 15.3167 8.22529 15.6C8.22529 15.8833 8.31696 16.1167 8.50029 16.3C8.68363 16.4833 8.91696 16.575 9.20029 16.575C9.48363 16.575 9.71696 16.4833 9.90029 16.3L12.8003 13.4ZM12.8003 22C11.417 22 10.117 21.7373 8.90029 21.212C7.68363 20.6867 6.62529 19.9743 5.72529 19.075C4.82529 18.175 4.11296 17.1167 3.58829 15.9C3.06363 14.6833 2.80096 13.3833 2.80029 12C2.80029 10.6167 3.06296 9.31667 3.58829 8.1C4.11363 6.88333 4.82596 5.825 5.72529 4.925C6.62529 4.025 7.68363 3.31267 8.90029 2.788C10.117 2.26333 11.417 2.00067 12.8003 2C14.1836 2 15.4836 2.26267 16.7003 2.788C17.917 3.31333 18.9753 4.02567 19.8753 4.925C20.7753 5.825 21.488 6.88333 22.0133 8.1C22.5386 9.31667 22.801 10.6167 22.8003 12C22.8003 13.3833 22.5376 14.6833 22.0123 15.9C21.487 17.1167 20.7746 18.175 19.8753 19.075C18.9753 19.975 17.917 20.6877 16.7003 21.213C15.4836 21.7383 14.1836 22.0007 12.8003 22ZM12.8003 20C15.0336 20 16.9253 19.225 18.4753 17.675C20.0253 16.125 20.8003 14.2333 20.8003 12C20.8003 9.76667 20.0253 7.875 18.4753 6.325C16.9253 4.775 15.0336 4 12.8003 4C10.567 4 8.67529 4.775 7.12529 6.325C5.57529 7.875 4.80029 9.76667 4.80029 12C4.80029 14.2333 5.57529 16.125 7.12529 17.675C8.67529 19.225 10.567 20 12.8003 20Z" fill="white"/>
</svg>
