<svg width="301" height="300" viewBox="0 0 301 300" fill="none" xmlns="http://www.w3.org/2000/svg">
<path d="M222.221 264.797H40.5374C-3.68262 226.776 -12.0146 134.507 31.5184 100.611C37.2054 96.183 40.3494 89.232 39.8834 82.039C38.9664 67.883 43.2944 44.066 79.4534 33.872C79.4534 33.872 102.454 27.619 131.775 54.828C138.47 61.041 148.376 62.215 156.323 57.713C172.614 48.483 200.574 38.161 221.351 59.605C226.43 64.846 229.211 71.91 229.084 79.207C228.969 85.791 227.727 95.126 223.446 106.917C220.852 114.061 224.59 121.933 231.737 124.518C289.576 136.717 297.687 258.515 222.221 264.797Z" fill="#FFAB17" fill-opacity="0.1"/>
<path d="M250.15 264.797H31.1401V266.747H250.15V264.797Z" fill="white"/>
<path d="M40.5794 190.428C41.5064 190.854 41.1964 189.025 41.5764 187.669C41.9564 186.318 43.1804 182.485 44.1204 182.541C45.0584 182.595 44.4714 184.928 45.2334 185.597C45.9954 186.271 46.1194 186.059 46.0834 184.623C46.0474 183.187 46.4164 181.505 45.3394 178.894C44.2594 176.28 43.9854 174.492 44.8924 171.4C45.8044 168.308 46.1194 166.923 46.1194 166.923L40.2114 165.551L40.2064 165.572C40.2064 165.577 40.2064 165.582 40.2034 165.59L40.1934 165.647C40.1914 165.655 40.1884 165.663 40.1884 165.673L40.1724 165.756L40.1544 165.841C39.8524 167.363 40.1634 178.187 38.5754 180.69C36.7904 183.503 38.5224 184.414 38.5224 184.414C38.0834 186.231 39.4894 186.31 39.4894 186.31C39.4894 186.31 39.1794 187.157 39.3934 187.739C39.6104 188.323 40.1294 188.238 40.1294 188.238C40.1294 188.238 40.1344 188.264 40.1704 188.176C40.0964 188.468 39.7324 190.041 40.5794 190.428ZM40.1254 166.017L40.0244 166.536C40.0604 166.335 40.0964 166.159 40.1254 166.017ZM95.2084 181.221C94.2454 181.471 92.9724 180.622 92.5334 180.258C92.0944 179.898 91.8234 179.937 91.4314 180.369C91.0394 180.797 91.2854 181.542 91.3924 182.01C91.4994 182.477 91.4884 182.927 91.7524 183.39C92.0124 183.854 92.0554 184.36 92.2664 184.902C92.4804 185.448 92.5334 185.883 92.6834 186.461C92.8334 187.039 92.9334 187.92 92.3414 188.094C91.7494 188.272 91.7494 187.62 91.5674 187.085C91.3854 186.55 91.2174 186.126 90.8794 185.419C90.5404 184.709 90.4654 183.811 90.2484 183.721C90.0304 183.628 90.0344 183.76 90.0054 183.885C89.9764 184.006 90.3874 185.269 90.5264 185.718C90.6624 186.164 90.7154 186.877 90.8614 187.769C91.0044 188.661 91.1614 189.32 90.4864 189.502C89.8124 189.68 89.7334 188.5 89.6664 188.154C89.6024 187.808 89.5064 187.173 89.2424 186.549C88.9824 185.925 88.9644 185.44 88.8644 185.012C88.7644 184.58 88.6644 184.145 88.6044 184.16C88.5434 184.178 88.5364 184.278 88.6294 184.549C88.7254 184.824 88.6864 185.476 88.8044 186.079C88.9224 186.682 88.9294 187.22 89.0504 187.78C89.1754 188.344 89.2034 188.968 88.7654 189.043C88.3304 189.114 88.3164 189.132 88.0344 188.198C87.7494 187.267 87.9484 187.599 87.6424 186.425C87.3324 185.252 87.3354 185.155 87.3034 184.553C87.2744 183.95 87.2174 183.69 87.1184 183.715C87.0224 183.743 87.0404 184.089 87.1004 184.4C87.1614 184.71 86.9724 185.095 87.0434 186.272C87.1144 187.445 86.8584 187.567 86.6614 187.62C86.4654 187.67 86.2374 187.595 86.2044 187.488C86.1754 187.377 86.0764 186.892 85.9944 186.536C85.9164 186.176 85.9234 185.691 85.9234 185.331C85.9194 184.974 85.8664 184.743 85.8874 184.489C85.9084 184.232 85.9874 183.508 85.7694 183.087C85.5514 182.666 85.4984 181.061 85.4444 180.63C85.4084 180.352 85.3984 180.302 85.3984 180.302C85.3944 180.138 85.3804 178.633 85.4164 178.323C85.4524 177.995 85.3484 177.813 85.2914 177.635C85.2304 177.457 85.1804 176.911 85.2234 176.619C85.2664 176.327 84.8064 174.925 84.8064 174.925C84.8064 174.925 83.9074 170.31 83.0094 168.598L87.2424 167.607C87.2424 167.607 88.1024 172.839 88.9474 174.547C89.1364 175.217 89.5684 175.938 89.7894 176.252C90.0394 176.605 90.5564 176.748 90.9344 177.04C91.3084 177.329 92.3324 178.003 92.7324 178.331C93.1354 178.659 93.0074 178.895 93.8234 179.337C94.6434 179.779 94.6544 180.279 95.1504 180.353C95.6394 180.429 96.1714 180.975 95.2084 181.221Z" fill="#F7DF9B"/>
<path d="M71.7764 247.979V258.425H78.1264V247.708L71.7764 247.979Z" fill="#F7DF9B"/>
<path d="M70.0642 264.817L88.2652 264.811C89.1872 264.811 89.9342 264.063 89.9342 263.141V262.362C89.9342 262.124 89.6892 261.612 89.5042 261.463L79.2922 253.384C78.9592 253.115 78.4602 253.162 78.1842 253.489C76.9352 254.972 74.9152 255.926 71.9312 255.775C71.5722 255.757 71.2342 255.95 71.0752 256.273C69.7272 259.023 68.8482 261.431 68.9482 263.742C68.9752 264.341 69.4642 264.817 70.0642 264.817Z" fill="#333333"/>
<path d="M49.3013 247.979V258.425H55.6513V247.708L49.3013 247.979Z" fill="#F7DF9B"/>
<path d="M47.5905 264.817L65.7915 264.811C66.7135 264.811 67.4605 264.063 67.4605 263.141V262.362C67.4605 262.124 67.2155 261.612 67.0305 261.463L56.8185 253.384C56.4855 253.115 55.9865 253.162 55.7105 253.489C54.4615 254.972 52.4415 255.926 49.4575 255.775C49.0985 255.757 48.7605 255.95 48.6015 256.273C47.2535 259.023 46.3745 261.431 46.4745 263.742C46.5015 264.341 46.9895 264.817 47.5905 264.817ZM77.1365 90.468C76.6055 92.554 74.9935 93.988 73.4235 95.044C73.2595 94.081 72.9775 93.421 72.5635 93.271C70.6055 92.561 68.5085 94.487 66.7535 93.068C64.9955 91.649 62.4275 92.665 62.4275 92.665C62.5305 95.839 61.7535 94.487 61.4145 95.368C61.0755 96.245 61.8215 98.474 60.9405 98.778C60.0635 99.085 59.4885 96.684 58.5755 96.585C57.6625 96.482 56.1115 97.295 57.0885 99.927C58.0695 102.563 59.6245 102.766 59.6245 104.524C59.6245 104.524 55.5125 101.639 55.5125 93.215C55.5125 93.215 54.6135 90.875 58.5335 89.206C58.5335 89.206 56.6465 89.07 56.7785 88.532C56.9105 87.99 58.8475 87.99 58.8475 87.99C58.8475 87.99 58.8475 87.045 60.0635 87.99C60.0635 87.99 61.3975 84.341 65.1925 84.388C68.9835 84.431 68.9375 82.63 71.3265 82.765C73.7125 82.901 76.4625 86.503 76.2805 89.342C76.2805 89.342 76.7045 87.134 76.2915 86.189C76.2915 86.188 78.2205 86.231 77.1365 90.468Z" fill="#333333"/>
<path d="M71.6655 107.477C71.5155 107.687 71.2835 107.823 71.0235 107.844C70.4355 107.887 69.2545 108.133 69.3545 109.381C69.2765 109.338 69.1835 109.313 69.0835 109.306C69.0835 109.306 61.8405 109.955 59.2255 107.894C59.2045 107.876 59.1795 107.862 59.1575 107.855C59.3925 106.71 59.6245 105.376 59.6245 104.524C59.6245 102.766 58.0695 102.562 57.0885 99.9272C56.1115 97.2952 57.6625 96.4822 58.5755 96.5852C59.4885 96.6852 60.0625 99.0852 60.9405 98.7782C61.8215 98.4752 61.0765 96.2462 61.4145 95.3682C61.7535 94.4872 62.5305 95.8392 62.4275 92.6652C62.4275 92.6652 64.9955 91.6492 66.7535 93.0682C68.5085 94.4872 70.6055 92.5622 72.5635 93.2712C72.9775 93.4212 73.2595 94.0812 73.4235 95.0442C73.9945 98.3862 73.1495 105.387 71.6655 107.477Z" fill="#F7DF9B"/>
<path d="M69.5935 110.287C69.5935 110.287 68.3095 114.185 64.1515 114.185C64.1515 114.185 59.7935 111.653 58.6445 110.066C58.6445 110.066 58.9045 109.067 59.1585 107.855C59.1795 107.862 59.2045 107.876 59.2265 107.894C61.8405 109.955 69.0845 109.306 69.0845 109.306C69.1845 109.313 69.2775 109.338 69.3555 109.381C69.3725 109.638 69.4475 109.937 69.5935 110.287Z" fill="#F7DF9B"/>
<path d="M79.6472 251.573H71.4902C70.2742 251.573 69.2782 250.608 69.2392 249.392C67.6432 226.347 66.7052 206.223 66.9412 184.5C66.9182 183.781 66.3292 183.209 65.6092 183.209C64.9232 183.209 64.3492 183.73 64.2832 184.412L57.8832 249.539C57.7712 250.692 56.8012 251.572 55.6422 251.572H49.5022C48.2432 251.572 47.2292 250.54 47.2512 249.281C46.7912 223.487 47.2862 197.156 48.6302 170.347C48.6302 170.347 55.7932 171.969 66.7402 171.969C77.6872 171.969 79.6472 171.091 79.6472 171.091C81.8602 197.498 82.6492 223.583 81.8992 249.321C81.8992 250.564 80.8902 251.573 79.6472 251.573Z" fill="#333333"/>
<path d="M89.4943 175.785C89.4303 175.803 89.3623 175.817 89.2943 175.828L85.2073 176.399L85.0113 176.428C84.0873 176.556 83.2283 175.936 83.0573 175.023L80.5033 161.527C80.4783 161.395 80.2823 161.42 80.2893 161.552L80.7103 169.976C80.7313 170.457 80.4213 170.896 79.9543 171.017C79.8513 171.046 79.7513 171.07 79.6473 171.095C79.6433 171.099 79.6433 171.099 79.6403 171.095C79.6293 171.102 79.6193 171.106 79.6083 171.106C79.3583 171.174 79.1093 171.234 78.8593 171.295C78.8523 171.299 78.8413 171.299 78.8343 171.299C64.6863 174.726 51.8753 171.395 48.6763 170.436C48.6583 170.432 48.6443 170.425 48.6303 170.418C48.2023 170.268 47.9273 169.858 47.9493 169.405L48.7483 152.76C48.7553 152.624 48.5523 152.607 48.5343 152.742L45.5603 173.128C45.4603 173.806 44.9793 174.344 44.3513 174.54C44.2053 174.586 44.0553 174.611 43.8983 174.618C41.9833 174.7 40.6633 174.629 39.7573 174.49C37.5743 174.151 37.7743 173.409 37.7743 173.409C39.0333 134.666 44.8893 117.323 45.9273 115.882C46.7873 114.691 54.6433 112.355 57.3293 111.584C57.8783 111.427 58.2853 110.967 58.3813 110.403L58.7703 108.056C58.8023 107.871 58.9953 107.781 59.1593 107.853C59.1803 107.86 59.2053 107.874 59.2273 107.892C61.8413 109.953 69.0853 109.304 69.0853 109.304C69.1853 109.311 69.2783 109.336 69.3563 109.379C69.9193 109.661 69.9873 110.667 69.9733 111.284C69.9663 111.591 70.1333 111.876 70.4083 112.015L81.0793 117.429C82.1423 117.968 82.8983 118.959 83.1483 120.125C84.6393 127.176 85.9763 148.721 85.9763 148.721L90.7693 173.772C90.9383 174.683 90.3713 175.557 89.4943 175.785Z" fill="black"/>
<path d="M297.8 95.6738L283.592 136.596L268.1 132.11L252.796 142.683L253.156 126.095L232.385 118.263L297.8 95.6738Z" fill="#EBEEF3"/>
<path d="M297.8 95.6738L253.156 126.095L252.796 142.683L259.275 128.657L297.8 95.6738Z" fill="#D4D5D6"/>
<path d="M249.993 149.101L248.868 148.382C249.743 147.019 250.222 146.154 250.228 146.143L251.395 146.789C251.394 146.789 250.9 147.685 249.993 149.101ZM238.21 162.404L237.403 161.341C238.494 160.516 239.599 159.566 240.682 158.52L241.609 159.481C240.484 160.562 239.34 161.546 238.21 162.404ZM244.672 156.237L243.667 155.365C244.587 154.304 245.503 153.159 246.391 151.965L247.459 152.759C246.553 153.982 245.615 155.151 244.672 156.237ZM231.876 165.966L231.417 164.713C232.204 164.424 232.993 164.072 233.766 163.667L234.386 164.847C233.561 165.279 232.717 165.656 231.876 165.966Z" fill="#CCCCCC"/>
<path d="M130.862 201.535H104.158C101.71 201.535 99.7261 199.551 99.7261 197.103V170.399C99.7261 167.951 101.71 165.967 104.158 165.967H130.862C133.31 165.967 135.294 167.951 135.294 170.399V197.103C135.295 199.551 133.31 201.535 130.862 201.535Z" fill="#FFAB17"/>
<path d="M105.254 193.985C105.254 193.985 104.331 180.21 120.55 177.243V173.515L129.776 179.19L120.585 185.635V182.249C120.585 182.249 112.142 181.559 105.254 193.985Z" fill="white"/>
<path d="M117.51 126.243C124.825 126.243 130.754 120.313 130.754 112.999C130.754 105.684 124.825 99.7549 117.51 99.7549C110.196 99.7549 104.266 105.684 104.266 112.999C104.266 120.313 110.196 126.243 117.51 126.243Z" fill="white"/>
<path d="M117.511 123.74C123.443 123.74 128.252 118.931 128.252 112.999C128.252 107.067 123.443 102.258 117.511 102.258C111.578 102.258 106.77 107.067 106.77 112.999C106.77 118.931 111.578 123.74 117.511 123.74Z" fill="#FFAB17"/>
<path d="M117.511 104.598C115.876 104.598 114.474 105.269 113.481 106.306C111.854 108.003 111.323 110.681 112.661 112.999L117.511 121.4L122.361 112.999C124.516 109.265 121.822 104.598 117.511 104.598ZM117.511 113.073C115.923 113.073 114.636 111.786 114.636 110.198C114.636 108.61 115.923 107.323 117.511 107.323C119.099 107.323 120.386 108.61 120.386 110.198C120.385 111.786 119.098 113.073 117.511 113.073Z" fill="#ECEEF1"/>
<path d="M153.01 264.817H146.811C143.168 264.817 140.214 261.865 140.214 258.222V102.542C140.214 98.8998 143.167 95.9468 146.811 95.9468H153.01C149.367 95.9468 146.414 98.8998 146.414 102.542V258.222C146.414 261.865 149.367 264.817 153.01 264.817Z" fill="black"/>
<path d="M223.651 95.9458H153.011C149.368 95.9458 146.415 98.8988 146.415 102.541V258.221C146.415 261.864 149.368 264.816 153.011 264.816H223.651C227.294 264.816 230.247 261.864 230.247 258.221V102.541C230.248 98.8998 227.294 95.9458 223.651 95.9458Z" fill="#565656"/>
<path d="M226.972 103.95V256.668C226.972 259.24 224.887 261.325 222.317 261.325H154.498C151.926 261.325 149.843 259.24 149.843 256.668V103.95C149.843 101.378 151.927 99.293 154.498 99.293H222.317C224.887 99.293 226.972 101.378 226.972 103.95Z" fill="white"/>
<path d="M143.436 121.572C142.826 121.572 142.331 121.077 142.331 120.467V108.824C142.331 108.214 142.826 107.719 143.436 107.719C144.046 107.719 144.541 108.214 144.541 108.824V120.467C144.541 121.078 144.046 121.572 143.436 121.572ZM143.436 140.071C142.826 140.071 142.331 139.576 142.331 138.966V127.323C142.331 126.713 142.826 126.218 143.436 126.218C144.046 126.218 144.541 126.713 144.541 127.323V138.966C144.541 139.576 144.046 140.071 143.436 140.071Z" fill="#154D24"/>
<path d="M195.528 105.756H181.135C180.38 105.756 179.768 105.144 179.768 104.389C179.768 103.634 180.38 103.022 181.135 103.022H195.528C196.283 103.022 196.895 103.634 196.895 104.389C196.895 105.144 196.283 105.756 195.528 105.756Z" fill="#E2E2E2"/>
<path d="M182.225 238.975H164.033C162.923 238.975 162.024 238.075 162.024 236.966C162.024 235.856 162.924 234.957 164.033 234.957H182.225C183.335 234.957 184.234 235.857 184.234 236.966C184.234 238.076 183.335 238.975 182.225 238.975Z" fill="#ECEEF1"/>
<path d="M212.783 238.975H194.591C193.481 238.975 192.582 238.075 192.582 236.966C192.582 235.856 193.482 234.957 194.591 234.957H212.783C213.893 234.957 214.792 235.857 214.792 236.966C214.792 238.076 213.892 238.975 212.783 238.975Z" fill="white"/>
<path d="M217.852 148.242L188.407 156.089L158.963 148.242L183.804 126.063C186.368 123.557 190.446 123.557 193.01 126.063L217.852 148.242Z" fill="#FAC52D"/>
<path d="M217.852 148.242H158.963V185.96H217.852V148.242Z" fill="#EEBB27"/>
<path d="M213.835 133.556V165.575H162.979V123.919C162.979 122.661 163.999 121.642 165.256 121.642H201.936L213.835 133.556Z" fill="#ECEEF1"/>
<path d="M201.937 129.738V121.642L213.836 133.556H205.755C203.647 133.556 201.937 131.847 201.937 129.738Z" fill="white"/>
<path d="M191.401 139.584C190.325 140.152 189.229 140.367 187.918 140.367C184.709 140.367 181.988 138.019 181.988 134.261C181.988 130.23 184.786 126.746 189.131 126.746C192.536 126.746 194.826 129.134 194.826 132.402C194.826 135.337 193.182 137.06 191.343 137.06C190.56 137.06 189.836 136.532 189.895 135.338H189.817C189.132 136.493 188.232 137.06 187.058 137.06C185.923 137.06 184.944 136.14 184.944 134.594C184.944 132.167 186.862 129.956 189.582 129.956C190.424 129.956 191.167 130.132 191.676 130.367L191.011 133.909C190.717 135.396 190.952 136.081 191.598 136.101C192.596 136.121 193.712 134.79 193.712 132.52C193.712 129.682 192.009 127.647 188.976 127.647C185.786 127.647 183.105 130.171 183.105 134.144C183.105 137.412 185.238 139.428 188.134 139.428C189.249 139.428 190.287 139.193 191.089 138.743L191.401 139.584ZM190.325 131.13C190.129 131.071 189.797 130.993 189.346 130.993C187.624 130.993 186.234 132.617 186.234 134.516C186.234 135.377 186.665 136.003 187.526 136.003C188.661 136.003 189.698 134.555 189.914 133.342L190.325 131.13Z" fill="#374C3D"/>
<path d="M210.126 143.609H166.69V144.799H210.126V143.609Z" fill="white"/>
<path d="M210.126 150.064H166.69V151.254H210.126V150.064Z" fill="white"/>
<path d="M210.126 156.519H166.69V157.709H210.126V156.519Z" fill="white"/>
<path d="M217.852 148.242V185.961L188.407 167.102L217.852 148.242Z" fill="#FFC92E"/>
<path d="M188.407 167.102L158.963 185.961V148.242L188.407 167.102Z" fill="#FFC92E"/>
<path d="M217.852 185.961H158.963L181.768 165.41C185.541 162.01 191.274 162.01 195.047 165.41L217.852 185.961Z" fill="#FBBC05"/>
<path d="M200.982 212.348H175.579C170.849 212.348 167.015 208.514 167.015 203.784C167.015 199.054 170.849 195.22 175.579 195.22H200.982C205.712 195.22 209.546 199.054 209.546 203.784C209.545 208.514 205.711 212.348 200.982 212.348Z" fill="#FFAB17"/>
<path d="M175.965 206.392C176.404 206.662 177.047 206.888 177.723 206.888C178.726 206.888 179.312 206.358 179.312 205.592C179.312 204.882 178.906 204.477 177.881 204.082C176.642 203.643 175.875 203 175.875 201.93C175.875 200.747 176.855 199.868 178.331 199.868C179.108 199.868 179.672 200.048 180.01 200.24L179.74 201.04C179.492 200.905 178.985 200.679 178.298 200.679C177.261 200.679 176.867 201.299 176.867 201.817C176.867 202.527 177.329 202.876 178.377 203.282C179.661 203.778 180.315 204.397 180.315 205.513C180.315 206.685 179.447 207.699 177.656 207.699C176.924 207.699 176.124 207.485 175.718 207.215L175.965 206.392ZM185.587 204.026H182.635V206.764H185.925V207.586H181.655V199.992H185.756V200.815H182.635V203.215H185.587V204.026ZM187.198 207.587V199.993H188.268L190.702 203.835C191.265 204.725 191.705 205.525 192.065 206.303L192.088 206.292C191.998 205.278 191.975 204.354 191.975 203.171V199.994H192.899V207.588H191.907L189.496 203.735C188.966 202.89 188.459 202.022 188.076 201.2L188.042 201.211C188.098 202.169 188.121 203.081 188.121 204.343V207.588H187.198V207.587ZM194.612 200.094C195.209 200.004 195.919 199.936 196.696 199.936C198.104 199.936 199.107 200.263 199.772 200.882C200.448 201.502 200.842 202.381 200.842 203.609C200.842 204.848 200.459 205.862 199.749 206.561C199.039 207.271 197.867 207.654 196.391 207.654C195.692 207.654 195.107 207.62 194.611 207.564V200.094H194.612ZM195.592 206.809C195.84 206.854 196.2 206.865 196.584 206.865C198.68 206.865 199.818 205.693 199.818 203.643C199.829 201.852 198.815 200.714 196.742 200.714C196.235 200.714 195.852 200.759 195.593 200.815V206.809H195.592Z" fill="#ECEEF1"/>
<path d="M207.884 136.452C212.774 136.452 216.737 132.488 216.737 127.599C216.737 122.709 212.774 118.746 207.884 118.746C202.995 118.746 199.031 122.709 199.031 127.599C199.031 132.488 202.995 136.452 207.884 136.452Z" fill="#FBBC05"/>
<path d="M207.884 134.777C211.849 134.777 215.063 131.563 215.063 127.598C215.063 123.634 211.849 120.419 207.884 120.419C203.919 120.419 200.705 123.634 200.705 127.598C200.705 131.563 203.919 134.777 207.884 134.777Z" fill="#FFC92E"/>
<path d="M207.886 123.071L209.223 125.78L212.212 126.214L210.049 128.323L210.559 131.3L207.886 129.894L205.212 131.3L205.723 128.323L203.56 126.214L206.549 125.78L207.886 123.071Z" fill="#ECEEF1"/>
<path d="M161.999 106.343H151.055V107.503H161.999V106.343Z" fill="#ECEEF1"/>
<path d="M161.999 109.618H151.055V110.778H161.999V109.618Z" fill="#ECEEF1"/>
<path d="M161.999 112.894H151.055V114.054H161.999V112.894Z" fill="#ECEEF1"/>
<path d="M221.887 111.094C220.593 112.388 218.488 112.388 217.194 111.094C215.9 109.8 215.9 107.695 217.194 106.401C218.488 105.107 220.593 105.107 221.887 106.401C223.181 107.695 223.181 109.8 221.887 111.094ZM217.85 107.057C216.918 107.989 216.918 109.506 217.85 110.438C218.782 111.37 220.299 111.37 221.231 110.438C222.163 109.506 222.163 107.989 221.231 107.057C220.299 106.125 218.782 106.125 217.85 107.057Z" fill="white"/>
<path d="M221.883 110.441L221.227 111.098L225.099 114.97L225.755 114.313L221.883 110.441Z" fill="white"/>
</svg>
