<svg width="33" height="32" viewBox="0 0 33 32" fill="none" xmlns="http://www.w3.org/2000/svg">
<path fill-rule="evenodd" clip-rule="evenodd" d="M29.1005 16.0002C29.1005 23.0694 23.3697 28.8002 16.3005 28.8002C9.23124 28.8002 3.50049 23.0694 3.50049 16.0002C3.50049 8.93095 9.23124 3.2002 16.3005 3.2002C23.3697 3.2002 29.1005 8.93095 29.1005 16.0002ZM17.9005 9.60019C17.9005 10.4839 17.1841 11.2002 16.3005 11.2002C15.4168 11.2002 14.7005 10.4839 14.7005 9.60019C14.7005 8.71654 15.4168 8.0002 16.3005 8.0002C17.1841 8.0002 17.9005 8.71654 17.9005 9.60019ZM14.7005 14.4002C13.8168 14.4002 13.1005 15.1165 13.1005 16.0002C13.1005 16.8839 13.8168 17.6002 14.7005 17.6002V22.4002C14.7005 23.2838 15.4168 24.0002 16.3005 24.0002H17.9005C18.7841 24.0002 19.5005 23.2838 19.5005 22.4002C19.5005 21.5165 18.7841 20.8002 17.9005 20.8002V16.0002C17.9005 15.1165 17.1841 14.4002 16.3005 14.4002H14.7005Z" fill="#FFAB17"/>
</svg>
