<svg width="101" height="100" viewBox="0 0 101 100" fill="none" xmlns="http://www.w3.org/2000/svg">
<g clip-path="url(#clip0_63_2684)">
<path d="M43.0838 71.6032C42.7608 71.6032 42.3687 71.4417 42.1149 71.211L24.5601 53.7485C22.0226 51.211 21.9996 47.0819 24.5601 44.6367C27.0053 42.1222 31.2268 42.1222 33.7412 44.5444L43.0146 53.7485L66.4978 30.3345C70.5578 26.2745 77.5474 29.1811 77.5474 34.8789C77.5474 36.6782 76.9015 38.2929 75.6789 39.6078L44.3064 70.7958C43.9834 71.2572 43.7527 71.6032 43.0838 71.6032ZM22.6224 11.3956C21.2845 11.3956 20.6847 9.61935 21.792 8.88117C23.7527 7.61243 25.6443 6.32062 27.7205 5.3979C29.4506 4.61358 30.5348 7.10493 28.9431 7.91231C27.1438 8.81197 24.8831 9.82696 23.3375 11.1649C23.176 11.3264 22.9454 11.3956 22.6224 11.3956ZM6.35944 30.5882C5.39058 30.5882 4.6524 29.4579 5.06763 28.5582C5.85194 26.7589 7.3283 24.083 8.38943 22.5375C9.42749 21.015 11.6882 22.6759 10.6732 24.1522C9.91192 25.2595 7.88193 28.5582 7.48977 29.7578C7.42057 30.2422 6.84387 30.5882 6.35944 30.5882ZM1.72276 55.2018C1.00765 55.2018 0.338677 54.6251 0.338677 53.91C0.269473 51.5801 0.154133 49.2964 0.269473 46.9896C0.361745 45.1903 3.19912 45.1903 3.10684 47.4048C3.01457 49.4809 3.01457 51.6955 3.19912 53.7485C3.26832 54.5559 2.71469 55.2018 1.88424 55.271C1.81503 55.2018 1.72276 55.2018 1.72276 55.2018ZM10.0965 78.9388C8.73545 78.9388 7.67432 76.3091 6.84387 74.9481C6.17489 73.8408 4.23718 71.2341 6.03649 70.4037C7.65125 69.6193 8.25102 71.8569 9.19681 73.4948C9.93499 74.6943 10.5117 75.7554 11.1576 76.6551C11.7574 77.5548 10.95 78.9388 10.0965 78.9388ZM29.1968 95.271C28.1587 95.271 23.822 92.5029 22.6224 91.7647C21.0999 90.842 22.5301 88.4198 24.1449 89.4117C26.0134 90.5651 27.8819 91.7185 29.7735 92.5721C31.1345 93.1949 30.6962 95.271 29.1968 95.271ZM50.0734 99.9769C48.7585 99.9769 45.5751 100.392 45.7597 98.3391C45.9442 96.5398 47.9281 97.1395 50.1657 97.1395C51.4575 97.1395 52.6801 97.1395 53.8104 97.0473C55.6559 96.8858 55.9096 99.7462 54.0642 99.8846C52.7493 99.9769 51.3883 99.9769 50.0734 99.9769ZM71.7804 94.8558C70.3041 94.8558 69.8196 92.8027 71.1345 92.1799C73.1184 91.2341 75.033 90.1268 76.7401 88.9273C78.2626 87.8431 79.8081 90.2422 78.3548 91.188C77.4782 91.7647 72.7031 94.8558 71.7804 94.8558ZM90.627 78.2007C89.589 78.2007 88.8277 76.9089 89.4967 76.0092L91.0423 73.4948C92.2187 71.5571 92.8185 68.812 94.6178 69.6655C95.3329 69.9884 95.5866 70.8881 95.2637 71.534C94.364 73.3102 93.1414 75.7554 91.9188 77.4625C91.5267 77.9469 91.1115 78.2007 90.627 78.2007ZM98.5855 54.3944C97.732 54.3944 97.1322 53.6563 97.2014 52.8489C97.386 50.842 97.386 48.3275 97.2014 46.3437C97.0399 44.4982 99.8542 44.2445 100.062 46.0899C100.246 47.7508 100.385 51.4187 100.131 53.0796C99.9696 53.8177 99.3237 54.3944 98.5855 54.3944ZM93.5567 29.7578C92.1956 29.7578 91.8958 27.9815 90.5348 25.7901C90.0503 24.9827 89.5659 24.1522 88.9892 23.4371C87.8589 21.9377 90.3041 20.3229 91.2729 21.7993C92.5417 23.7139 93.8335 25.6747 94.7793 27.7278C95.1945 28.6505 94.5025 29.7578 93.5567 29.7578ZM76.9015 10.9112C75.9096 10.9112 74.6409 9.43481 73.7181 9.20413C73.7181 9.20413 73.6489 9.20413 73.6489 9.13492C72.4955 8.46595 71.3652 7.82004 70.3963 7.33561C68.7124 6.5513 70.0042 4.10609 71.6882 4.8904C73.4644 5.74392 75.9096 7.22027 77.7089 8.30447C78.9777 9.08879 78.1933 10.9112 76.9015 10.9112ZM46.3364 3.02189C44.5601 3.02189 44.514 0.369062 46.2672 0.184518C48.5278 -0.0461626 50.973 0.0230416 53.1645 0.115314C55.033 0.230654 54.7562 3.11416 52.9108 2.95268C50.8116 2.79121 48.5278 2.79121 46.4286 3.02189H46.3364ZM50.0734 92.1799C26.8439 92.1799 7.9742 73.241 7.9742 49.9884C7.9742 26.7589 26.9131 7.82004 50.1657 7.82004C73.3952 7.82004 92.3341 26.7589 92.3341 49.9884C92.2418 73.241 73.326 92.1799 50.0734 92.1799ZM50.0734 10.7497C28.3894 10.7497 10.7424 28.3737 10.7424 50.0807C10.7424 71.7877 28.3894 89.4117 50.0734 89.4117C71.7804 89.4117 89.4044 71.7877 89.4044 50.0807C89.4044 28.3045 71.7804 10.7497 50.0734 10.7497ZM29.1968 45.5363C25.9673 45.5363 24.3064 49.4117 26.5901 51.6955L43.0146 68.1199L73.6489 37.5778C75.033 36.1707 75.033 33.7485 73.6489 32.3644C72.1726 30.9112 69.9119 30.9112 68.4356 32.3644L43.9834 56.7474C43.2453 57.4625 42.2533 57.1395 41.6305 56.4936L31.8035 46.5974C31.0653 45.8593 30.0965 45.5363 29.1968 45.5363Z" fill="white"/>
<path d="M43.0146 53.7484L66.4979 30.3343C70.5579 26.2743 77.5475 29.1809 77.5475 34.8787C77.5475 36.678 76.9016 38.2928 75.679 39.6076L44.3064 70.7956C43.9835 71.257 43.7528 71.603 43.0838 71.603C42.7609 71.603 42.3687 71.4416 42.115 71.2109L24.5602 53.7484C22.0227 51.2109 21.9996 47.0817 24.5602 44.6365C27.0054 42.1221 31.2269 42.1221 33.7413 44.5442L43.0146 53.7484ZM50.0735 10.7495C28.3895 10.7495 10.7424 28.3735 10.7424 50.0805C10.7424 71.7876 28.3895 89.4116 50.0735 89.4116C71.7805 89.4116 89.4045 71.7876 89.4045 50.0805C89.4045 28.3043 71.7805 10.7495 50.0735 10.7495Z" fill="#7ED63F"/>
<path d="M68.4356 32.3644L43.9835 56.7473C43.2453 57.4624 42.2534 57.1395 41.6306 56.4936L31.8036 46.5974C31.0654 45.8592 30.0965 45.5362 29.1969 45.5362C25.9674 45.5362 24.3065 49.4117 26.5902 51.6954L43.0146 68.1199L73.649 37.5778C75.0331 36.1706 75.0331 33.7485 73.649 32.3644C72.1727 30.9111 69.912 30.9111 68.4356 32.3644Z" fill="#D9F2F2"/>
</g>
<defs>
<clipPath id="clip0_63_2684">
<rect width="100" height="100" fill="white" transform="translate(0.200195)"/>
</clipPath>
</defs>
</svg>
