<svg width="205" height="34" viewBox="0 0 205 34" fill="none" xmlns="http://www.w3.org/2000/svg">
<g clip-path="url(#clip0_91_7213)">
<path d="M46.9793 9.29226H49.3235L55.8872 24.5237H52.7874L51.3693 21.0365H44.7629L43.3874 24.5237H40.3535L46.9793 9.29226ZM50.42 18.7156L48.0758 12.5199L45.689 18.7156H50.4239H50.42ZM64.7758 24.5237H67.12L73.2769 9.29226H70.3515L66.07 20.8041L61.9162 9.29226H58.7971L64.7797 24.5237H64.7758ZM82.9637 9.29226H85.3079L91.8678 24.5237H88.768L87.3499 21.0365H80.7435L79.3679 24.5237H76.3341L82.9637 9.29226ZM86.4045 18.7156L84.0603 12.5199L81.6734 18.7156H86.4083H86.4045ZM97.8659 24.5237H107.053V22.0711H100.578V9.29226H97.8659V24.5237ZM118.255 9.29226H120.599L127.159 24.5237H124.059L122.641 21.0365H116.034L114.659 24.5237H111.625L118.255 9.29226ZM121.695 18.7156L119.351 12.5199L116.964 18.7156H121.699H121.695ZM133.157 24.5237H135.869V12.8415H135.911L143.444 24.5237H146.885V9.29226H144.172V20.6103H144.129L136.752 9.29226H133.16V24.5237H133.157ZM167.15 11.3149C166.39 10.4392 165.565 9.8231 164.674 9.46274C163.798 9.09077 162.844 8.90479 161.814 8.90479C160.636 8.90479 159.555 9.09851 158.567 9.48598C157.591 9.85795 156.746 10.3966 156.029 11.0979C155.328 11.7992 154.774 12.6555 154.371 13.6591C153.967 14.6471 153.77 15.7514 153.77 16.9719C153.77 18.1924 153.972 19.2464 154.371 20.2189C154.774 21.1954 155.324 22.0323 156.029 22.7375C156.746 23.4272 157.591 23.9658 158.567 24.3494C159.555 24.7213 160.64 24.9073 161.814 24.9073C162.988 24.9073 163.987 24.6904 164.976 24.2603C165.968 23.8302 166.804 23.1405 167.495 22.1951L165.259 20.6025C164.755 21.2496 164.212 21.7223 163.624 22.0207C163.05 22.3074 162.453 22.4508 161.837 22.4508C161.047 22.4508 160.33 22.3074 159.687 22.0207C159.055 21.734 158.513 21.3387 158.051 20.8389C157.591 20.3352 157.234 19.7423 156.975 19.0527C156.731 18.363 156.61 17.6113 156.61 16.7937C156.61 16.0343 156.731 15.3252 156.975 14.6626C157.234 14.0039 157.591 13.4304 158.051 12.9422C158.513 12.4385 159.055 12.0511 159.687 11.7798C160.334 11.4931 161.051 11.3497 161.837 11.3497C162.369 11.3497 162.891 11.4505 163.407 11.652C163.937 11.8534 164.484 12.2525 165.042 12.857L167.15 11.3071V11.3149ZM173.616 24.5237H176.329V17.8128H183.451V24.5237H186.163V9.29226H183.451V15.3601H176.329V9.29226H173.616V24.5237ZM193.865 24.5237H204.343V22.0711H196.574V17.9406H203.568V15.4879H196.574V11.745H203.956V9.29226H193.865V24.5237Z" fill="white"/>
<mask id="mask0_91_7213" style="mask-type:luminance" maskUnits="userSpaceOnUse" x="0" y="0" width="34" height="34">
<path d="M33.8816 0H0V33.8816H33.8816V0Z" fill="white"/>
</mask>
<g mask="url(#mask0_91_7213)">
<path fill-rule="evenodd" clip-rule="evenodd" d="M16.6208 0C7.4415 0 0 7.4415 0 16.6208C0 25.8 7.4415 33.2415 16.6208 33.2415C25.8 33.2415 33.2415 25.8 33.2415 16.6208C33.2415 7.4415 25.8 0 16.6208 0ZM15.2065 21.3272L15.1957 21.3469C14.8273 21.9921 14.6405 22.3192 14.3816 22.5654C14.0995 22.8349 13.7617 23.0308 13.3897 23.1404C13.0501 23.2339 12.6709 23.2339 11.9108 23.2339H8.6851C8.00762 23.2339 7.67153 23.2339 7.46846 23.1027C7.24744 22.9589 7.11266 22.7235 7.09649 22.4611C7.08391 22.2204 7.25103 21.9256 7.58704 21.338L15.5515 7.30135C15.8912 6.70473 16.0619 6.40642 16.2775 6.2968C16.5093 6.1782 16.7879 6.1782 17.0215 6.2968C17.2372 6.40642 17.4097 6.70473 17.7475 7.30135L19.3846 10.1587L19.3936 10.173C19.7602 10.8127 19.9453 11.1362 20.0261 11.4777C20.116 11.8496 20.116 12.2414 20.0261 12.6134C19.9453 12.9566 19.7602 13.2836 19.3882 13.9324L15.2047 21.3272H15.2065ZM25.9078 23.0991C25.703 23.2339 25.3615 23.2339 24.6787 23.2339H20.0567C19.3756 23.2339 19.0324 23.2339 18.8311 23.1027C18.61 22.9589 18.4753 22.7181 18.4591 22.4575C18.4465 22.2185 18.6155 21.9274 18.9533 21.3433L18.9605 21.329L21.2679 17.3684C21.6075 16.7843 21.7783 16.495 21.9903 16.3836C22.2239 16.2649 22.4971 16.2649 22.7289 16.3836C22.9392 16.4913 23.1044 16.7681 23.4297 17.3198L23.4567 17.3647L25.7713 21.3254C25.782 21.3452 25.7946 21.3631 25.8054 21.3829C26.127 21.9364 26.2906 22.2185 26.278 22.4521C26.2654 22.7127 26.127 22.9535 25.906 23.0973L25.9078 23.0991Z" fill="white"/>
</g>
</g>
<defs>
<clipPath id="clip0_91_7213">
<rect width="205" height="34" fill="white"/>
</clipPath>
</defs>
</svg>
