<svg width="141" height="40" viewBox="0 0 141 40" fill="none" xmlns="http://www.w3.org/2000/svg">
<g clip-path="url(#clip0_91_7134)">
<mask id="mask0_91_7134" style="mask-type:luminance" maskUnits="userSpaceOnUse" x="0" y="0" width="141" height="39">
<path d="M140.929 0.5H0V38.9352H140.929V0.5Z" fill="white"/>
</mask>
<g mask="url(#mask0_91_7134)">
<path d="M39.3252 5.13086H45.8067C47.4541 5.13086 48.6622 5.57258 49.431 6.3456C49.7806 6.64471 50.0603 7.01767 50.2501 7.43791C50.44 7.85816 50.5353 8.31533 50.5293 8.77685C50.5472 9.14839 50.5102 9.52055 50.4194 9.88116C50.1942 10.461 49.855 10.9893 49.4222 11.4343C49.2295 11.6187 49.0066 11.7682 48.7632 11.876C49.5143 12.105 50.1948 12.5231 50.7401 13.0908C51.1794 13.6429 51.399 14.3055 51.399 15.2994C51.4067 15.8687 51.2944 16.4333 51.0696 16.9558C50.7953 17.436 50.4206 17.8505 49.9713 18.1706C49.4445 18.4744 48.8935 18.7336 48.3239 18.9454C47.6649 19.1662 46.8961 19.1662 46.1273 19.1662H39.4332V5.13086H39.3252ZM45.2576 10.875C45.8228 10.8718 46.3821 10.7594 46.905 10.5437C47.1067 10.4403 47.2755 10.2819 47.392 10.0866C47.5085 9.89136 47.5681 9.6671 47.564 9.43943C47.5656 9.22484 47.5168 9.0129 47.4213 8.82096C47.3259 8.62902 47.1866 8.46253 47.0148 8.33513C46.7967 8.17311 46.5467 8.05975 46.2816 8.00262C46.0164 7.94549 45.7422 7.9459 45.4772 8.00384H42.4003V10.9926H45.2558L45.2576 10.875ZM46.0264 16.507C46.5916 16.5038 47.1509 16.3913 47.6738 16.1757C47.8915 16.069 48.0654 15.8893 48.1656 15.6676C48.2659 15.4459 48.2861 15.1961 48.2229 14.961C48.2246 14.7464 48.1757 14.5344 48.0803 14.3425C47.9848 14.1505 47.8455 13.9841 47.6738 13.8567C47.1385 13.5525 46.5312 13.3998 45.9165 13.4149H42.2905V16.5141L46.0264 16.507Z" fill="white"/>
<path d="M55.2515 5.13818H58.3267V19.2769H55.2515V5.13818Z" fill="white"/>
<path d="M63.0493 5.13818H65.9066L72.4962 13.864V5.13818H75.5714V19.2769H72.9355L66.0164 10.3302V19.2769H63.0493V5.13818Z" fill="white"/>
<path d="M84.9083 5.02783H87.7638L93.806 19.2769H90.6175L89.2996 16.0709H83.3707L82.0528 19.2769H78.8643L84.9083 5.02783ZM88.2049 13.4223L86.336 8.79138L84.469 13.4223H88.2049Z" fill="white"/>
<path d="M97.1011 5.13818H99.9566L106.548 13.864V5.13818H109.623V19.2769H106.987L100.176 10.3302V19.2769H97.1011V5.13818Z" fill="white"/>
<path d="M120.827 19.4975C119.85 19.4849 118.883 19.298 117.972 18.9454C116.244 18.2007 114.868 16.8161 114.128 15.0785C113.777 14.1617 113.591 13.1895 113.579 12.2073C113.609 10.2754 114.356 8.4244 115.672 7.0171C116.321 6.34133 117.106 5.81349 117.975 5.46929C118.913 5.07373 119.924 4.88543 120.941 4.91713C121.528 4.89886 122.117 4.93583 122.698 5.02756C123.192 5.1078 123.673 5.25645 124.127 5.46929C124.542 5.66669 124.946 5.88792 125.335 6.13187C125.728 6.39436 126.095 6.69247 126.434 7.02244L124.567 9.33792C124.044 8.89707 123.493 8.49128 122.917 8.12318C122.346 7.80936 121.701 7.65673 121.05 7.68146C120.485 7.68466 119.926 7.79713 119.403 8.01275C118.88 8.21385 118.423 8.55813 118.085 9.00663C117.727 9.44273 117.429 9.92565 117.199 10.4422C116.985 10.968 116.873 11.5304 116.87 12.0987C116.875 12.7006 116.987 13.2968 117.203 13.8584C117.39 14.3963 117.693 14.8864 118.089 15.294C118.46 15.7149 118.917 16.0509 119.429 16.2795C119.94 16.508 120.494 16.6239 121.054 16.6192C121.774 16.6324 122.488 16.4814 123.142 16.1775C123.735 15.8361 124.288 15.4286 124.79 14.9628L126.767 16.9505L125.668 18.0548C125.254 18.3543 124.813 18.6138 124.35 18.8296C123.863 19.0797 123.346 19.2653 122.811 19.3818C122.156 19.4678 121.495 19.5047 120.834 19.4922L120.827 19.4975Z" fill="white"/>
<path d="M130.274 5.13818H140.819V7.90073H133.239V10.7719H139.941V13.5327H133.239V16.5143H140.929V19.2769H130.274V5.13818Z" fill="white"/>
<path d="M43.2787 33.1929C42.5225 33.2176 41.7708 33.0664 41.0822 32.7512C40.4215 32.5304 39.7625 32.0886 39.1035 31.5365L40.2018 30.3217C40.6411 30.7635 41.0875 30.9843 41.6313 31.3156C42.1543 31.5312 42.7135 31.6437 43.2787 31.6469C43.7378 31.642 44.1893 31.5285 44.5966 31.3156C44.7404 31.2182 44.8565 31.0849 44.9335 30.9288C45.0106 30.7727 45.0459 30.5991 45.036 30.425C45.0522 30.2694 45.0133 30.113 44.9261 29.9833C44.8163 29.8711 44.7065 29.6502 44.5966 29.5398L43.9306 29.2157C43.6011 29.1052 43.1618 28.9948 42.8323 28.8844C42.3423 28.788 41.8637 28.6399 41.4046 28.4426C41.0415 28.3261 40.705 28.1384 40.4144 27.8905C40.1681 27.657 39.9472 27.3979 39.7554 27.1175C39.5859 26.7363 39.5105 26.3195 39.5358 25.9027C39.5555 25.4899 39.6294 25.0814 39.7554 24.688C39.8652 24.3567 40.1947 24.0254 40.4144 23.7974C40.7452 23.5485 41.1178 23.3615 41.5144 23.2453C41.9432 23.1182 42.3857 23.044 42.8323 23.0244C43.5075 23.0282 44.1776 23.1425 44.8163 23.3628C45.3876 23.6161 45.9384 23.9139 46.4637 24.2534L45.578 25.5786C45.1636 25.2802 44.7224 25.0214 44.2601 24.8056C43.8208 24.5847 43.3744 24.5847 42.9422 24.5847C42.5161 24.5759 42.0967 24.691 41.7341 24.916C41.4813 25.1466 41.3244 25.4647 41.2948 25.8066C41.2778 25.9974 41.3159 26.1891 41.4046 26.3587C41.5144 26.4691 41.6242 26.69 41.7341 26.8004C41.9813 26.9308 42.2384 27.0416 42.5029 27.1317C42.8973 27.2705 43.301 27.3812 43.7109 27.463C44.197 27.575 44.6742 27.7226 45.1387 27.9047C45.4902 28.0458 45.8223 28.2313 46.1271 28.4569C46.3457 28.6871 46.5306 28.9474 46.6763 29.2299C46.8127 29.583 46.887 29.9573 46.8959 30.336C46.8862 30.7499 46.812 31.1598 46.6763 31.5507C46.455 31.9079 46.1973 32.241 45.9075 32.5446C45.5774 32.7935 45.2053 32.9805 44.8092 33.0968C44.2672 33.0825 43.718 33.1929 43.2787 33.1929Z" fill="white"/>
<path d="M48.77 23.1416H50.637L53.6041 27.7797L56.6793 23.1416H58.5463V33.0821H56.7891V25.9024L53.7139 30.5405H53.6041L50.5272 25.9024V33.0821H48.77V23.1416Z" fill="white"/>
<path d="M64.4789 23.0312H66.1264L70.4095 32.9719H68.5424L67.554 30.5423H62.9395L61.9511 32.9719H60.1938L64.4789 23.0312ZM67.0049 29.1049L65.2477 25.1294L63.5932 29.1049H67.0049Z" fill="white"/>
<path d="M72.1669 23.1416H76.5618C77.1168 23.1608 77.6686 23.2348 78.2092 23.3625C78.6709 23.5123 79.0868 23.7784 79.4173 24.1355C79.687 24.4303 79.9093 24.7656 80.0762 25.1294C80.212 25.5203 80.2861 25.9301 80.2959 26.3441C80.2759 26.7209 80.2019 27.0928 80.0762 27.4484C79.9664 27.7797 79.7468 28.0005 79.6369 28.339C79.4047 28.5866 79.147 28.8087 78.8681 29.0015C78.5607 29.1943 78.228 29.3429 77.8797 29.4433L80.5155 33.1997H78.4288L76.0109 29.7674H73.8143V33.1926H72.0571L72.1669 23.1416ZM76.4519 28.0005C77.0011 28.0005 77.5502 27.8901 77.8797 27.5588C78.2124 27.2408 78.4092 26.8052 78.4288 26.3441C78.4092 25.8829 78.2124 25.4474 77.8797 25.1294C77.4299 24.8193 76.8923 24.6643 76.3474 24.6876H73.8143V28.0005H76.4519Z" fill="white"/>
<path d="M84.7988 24.6876H81.6138V23.1416H89.6329V24.6876H86.4462V33.0821H84.689L84.7988 24.6876Z" fill="white"/>
<path d="M100.288 33.1927C99.6041 33.2049 98.9271 33.0535 98.3129 32.7509C97.1048 32.1988 96.1163 31.3153 95.677 30.1006C95.4574 29.4362 95.2377 28.7736 95.3476 28.1111C95.3498 27.4349 95.4611 26.7636 95.677 26.1233C95.914 25.5113 96.2688 24.9524 96.7211 24.4786C97.1734 24.0048 97.7144 23.6255 98.3129 23.3625C98.9718 23.1417 99.6308 22.9208 100.401 22.9208C100.807 22.8975 101.214 22.9347 101.609 23.0313L102.598 23.3625C102.927 23.473 103.147 23.6938 103.483 23.8043C103.703 24.0251 104.033 24.246 104.252 24.4669L103.154 25.792C102.799 25.4344 102.392 25.134 101.946 24.9015C101.465 24.6754 100.939 24.5622 100.408 24.5702C99.9613 24.5898 99.5181 24.6639 99.0888 24.791C98.6815 24.9838 98.31 25.2452 97.9905 25.564C97.6703 25.8612 97.4416 26.2444 97.3315 26.6683C97.2051 27.0995 97.1314 27.5445 97.1119 27.9935C97.1314 28.4426 97.2051 28.8875 97.3315 29.3187C97.4416 29.7431 97.6703 30.1269 97.9905 30.4248C98.31 30.7435 98.6815 31.005 99.0888 31.1978C99.4873 31.4302 99.9565 31.5088 100.408 31.4186C100.939 31.4266 101.465 31.3134 101.946 31.0873C102.435 30.8291 102.88 30.4935 103.264 30.0935L104.362 31.1978L103.593 31.9708C103.264 32.1917 103.044 32.4125 102.708 32.5229C102.371 32.6334 102.049 32.8542 101.609 32.8542C101.17 33.1855 100.724 33.1855 100.291 33.1855L100.288 33.1927Z" fill="white"/>
<path d="M106.109 23.1416H107.756V27.2275H112.48V23.1416H114.238V33.0821H112.48V28.884H107.756V33.0821H106.109V23.1416Z" fill="white"/>
<path d="M120.278 23.0312H121.925L126.21 32.9719H124.352L123.364 30.5423H118.758L117.77 32.9719H116.012L120.278 23.0312ZM122.694 29.1049L121.047 25.1294L119.392 29.1049H122.694Z" fill="white"/>
<path d="M127.968 23.1416H129.725V33.0821H127.968V23.1416Z" fill="white"/>
<path d="M132.361 23.1416H133.898L139.172 29.9883V23.1416H140.929V33.0821H139.501L134.118 26.0128V33.0821H132.361V23.1416Z" fill="white"/>
<path d="M19.992 32.4198V36.7266L16.2561 38.9352L12.6319 36.7266V32.4198L16.2561 34.6284L19.992 32.4198ZM0 17.5081L3.62428 19.7185V27.1173L9.88618 30.8738V35.1805L0 29.3259V17.5081ZM32.514 17.5081V29.3259L22.518 35.1805V30.8738L28.7782 27.1173V19.7185L32.514 17.5081ZM22.518 11.6553L26.2521 13.8585V18.1707L19.992 21.9271V29.4364L16.366 31.6468L12.7417 29.4364V21.9271L6.2619 18.1707V13.8585L9.99601 11.6499L16.2561 15.4099L22.518 11.6553ZM6.2619 21.2734L9.88618 23.4767V27.7835L6.2619 25.5749V21.2734ZM26.2521 21.2734V25.5802L22.6279 27.7888V23.4767L26.2521 21.2734ZM3.62428 7.91488L7.36017 10.1181L3.62428 12.3179V16.6246L0 14.416V10.1181L3.62428 7.91488ZM28.888 7.91488L32.6239 10.1181V14.416L28.888 16.6246V12.3179L25.2637 10.1181L28.888 7.91488ZM16.2561 7.91488L19.992 10.1181L16.2561 12.3179L12.6319 10.1181L16.2561 7.91488ZM16.2561 0.5L26.2521 6.35282L22.6279 8.56321L16.366 4.80679L9.98892 8.56321L6.37704 6.35282L16.2561 0.5Z" fill="white"/>
</g>
</g>
<defs>
<clipPath id="clip0_91_7134">
<rect width="141" height="39" fill="white" transform="translate(0 0.5)"/>
</clipPath>
</defs>
</svg>
