<svg width="184" height="50" viewBox="0 0 184 50" fill="none" xmlns="http://www.w3.org/2000/svg">
<g clip-path="url(#clip0_91_7158)">
<mask id="path-1-outside-1_91_7158" maskUnits="userSpaceOnUse" x="41.4185" y="6.70459" width="144" height="27" fill="black">
<rect fill="white" x="41.4185" y="6.70459" width="144" height="27"/>
<path d="M55.1784 25.2757C55.1784 25.587 54.9174 25.8404 54.6056 25.8404H43.5713C43.8468 28.5626 45.8985 31.0459 48.7839 31.0459C50.7559 31.0459 52.2204 30.293 53.3224 28.7219C53.4819 28.5047 53.7211 28.3672 54.0256 28.4975C54.1924 28.5699 54.3084 28.7219 54.3374 28.8957C54.3664 29.0767 54.3156 29.178 54.2649 29.2794C53.1556 31.2124 50.9444 32.1608 48.7767 32.1608C45.0647 32.1608 42.4185 28.845 42.4185 25.2974C42.4185 21.7499 45.0647 18.4341 48.7767 18.4341C52.4886 18.4268 55.1711 21.7354 55.1784 25.2757ZM53.9966 24.74C53.7574 22.0178 51.6694 19.5345 48.7839 19.5345C45.8985 19.5345 43.8468 22.0178 43.5713 24.74H53.9966ZM68.5689 18.7019C68.8879 18.7019 69.1199 18.977 69.1199 19.2522C69.1199 19.5707 68.8807 19.8024 68.5689 19.8024H65.611V31.3934C65.611 31.6685 65.3717 31.9436 65.06 31.9436C64.741 31.9436 64.509 31.6685 64.509 31.3934V19.8024H61.667C61.348 19.8024 61.116 19.5635 61.116 19.2522C61.116 18.977 61.3553 18.7019 61.667 18.7019H64.509V14.4594C64.509 14.1915 64.6902 13.9454 64.9512 13.9019C65.321 13.844 65.611 14.0974 65.611 14.4449V18.7019H68.5689ZM86.614 24.3056V31.3283C86.614 31.6468 86.3385 31.8785 86.063 31.8785C85.744 31.8785 85.512 31.6396 85.512 31.3283V24.3056C85.512 21.9382 84.1708 19.5707 81.5245 19.5707C78.1316 19.5707 76.6671 22.5318 76.8628 25.5653C76.8628 25.645 76.8991 25.9997 76.8991 26.0359V31.3065C76.8991 31.5744 76.7178 31.8206 76.4569 31.864C76.0871 31.9219 75.7971 31.6685 75.7971 31.321V8.25482C75.7971 7.9797 76.0364 7.70459 76.3481 7.70459C76.6671 7.70459 76.8991 7.9797 76.8991 8.25482V21.3083C77.8488 19.6142 79.5453 18.4703 81.5173 18.4703C84.758 18.4703 86.614 21.3083 86.614 24.3056ZM106.399 25.2757C106.399 25.587 106.138 25.8404 105.826 25.8404H94.7846C95.0601 28.5626 97.1118 31.0459 99.9973 31.0459C101.969 31.0459 103.434 30.293 104.536 28.7219C104.695 28.5047 104.935 28.3672 105.239 28.4975C105.406 28.5699 105.522 28.7219 105.551 28.8957C105.58 29.0767 105.529 29.178 105.478 29.2794C104.369 31.2124 102.158 32.1608 99.9901 32.1608C96.2781 32.1608 93.6319 28.845 93.6319 25.2974C93.6319 21.7499 96.2781 18.4341 99.9901 18.4341C103.709 18.4268 106.392 21.7354 106.399 25.2757ZM105.21 24.74C104.971 22.0178 102.883 19.5345 99.9973 19.5345C97.1118 19.5345 95.0601 22.0178 94.7846 24.74H105.21ZM119.942 19.216C119.942 19.5707 119.746 19.7662 119.427 19.8096C116.186 20.2802 114.729 22.9228 114.729 25.9997V31.2703C114.729 31.5382 114.548 31.7844 114.287 31.8278C113.917 31.8857 113.627 31.6323 113.627 31.2848V19.2739C113.627 19.006 113.808 18.7599 114.069 18.7164C114.439 18.6585 114.729 18.9119 114.729 19.2594V21.7065C115.635 20.1716 117.455 18.7092 119.347 18.7092C119.623 18.7019 119.942 18.9046 119.942 19.216ZM138.067 25.2757C138.067 25.587 137.806 25.8404 137.494 25.8404H126.459C126.735 28.5626 128.787 31.0459 131.672 31.0459C133.644 31.0459 135.109 30.293 136.211 28.7219C136.37 28.5047 136.609 28.3672 136.914 28.4975C137.081 28.5699 137.197 28.7219 137.226 28.8957C137.255 29.0767 137.204 29.178 137.153 29.2794C136.044 31.2124 133.833 32.1608 131.665 32.1608C127.953 32.1608 125.307 28.845 125.307 25.2974C125.307 21.7499 127.953 18.4341 131.665 18.4341C135.377 18.4268 138.059 21.7354 138.067 25.2757ZM136.885 24.74C136.646 22.0178 134.558 19.5345 131.672 19.5345C128.787 19.5345 126.735 22.0178 126.459 24.74H136.885ZM155.88 19.3535V31.3934C155.88 31.712 155.604 31.9436 155.329 31.9436C155.01 31.9436 154.778 31.7047 154.778 31.3934V29.1056C153.871 30.9228 152.247 32.2188 150.196 32.2188C146.919 32.2188 145.099 29.3807 145.099 26.3834V19.3246C145.099 19.0494 145.338 18.7743 145.65 18.7743C145.969 18.7743 146.201 19.0494 146.201 19.3246V26.3834C146.201 28.7509 147.542 31.1183 150.188 31.1183C153.9 31.1183 154.77 27.6504 154.77 23.8205V19.3246C154.77 19.006 155.089 18.6802 155.481 18.7961C155.72 18.8757 155.88 19.1074 155.88 19.3535ZM183.792 24.2622V31.321C183.792 31.6396 183.516 31.8712 183.241 31.8712C182.922 31.8712 182.69 31.6323 182.69 31.321V24.2622C182.69 21.8947 181.349 19.5707 178.702 19.5707C175.382 19.5707 174.12 23.1182 174.12 25.8766V31.321C174.12 31.6396 173.845 31.8712 173.569 31.8712C173.25 31.8712 173.018 31.6323 173.018 31.321V24.2622C173.018 21.8947 171.677 19.5707 169.031 19.5707C165.674 19.5707 164.29 22.2133 164.413 25.7246C164.413 25.8042 164.449 25.9635 164.413 25.9997V31.3065C164.413 31.5744 164.232 31.8206 163.963 31.864C163.594 31.9219 163.304 31.6685 163.304 31.321V19.2739C163.304 19.006 163.485 18.7599 163.746 18.7164C164.116 18.6585 164.406 18.9119 164.406 19.2594V21.2721C165.355 19.578 167.052 18.4703 169.024 18.4703C171.271 18.4703 173.011 19.8893 173.722 21.9816C174.628 19.9327 176.404 18.4703 178.695 18.4703C181.936 18.4703 183.792 21.2648 183.792 24.2622Z"/>
</mask>
<path d="M55.1784 25.2757C55.1784 25.587 54.9174 25.8404 54.6056 25.8404H43.5713C43.8468 28.5626 45.8985 31.0459 48.7839 31.0459C50.7559 31.0459 52.2204 30.293 53.3224 28.7219C53.4819 28.5047 53.7211 28.3672 54.0256 28.4975C54.1924 28.5699 54.3084 28.7219 54.3374 28.8957C54.3664 29.0767 54.3156 29.178 54.2649 29.2794C53.1556 31.2124 50.9444 32.1608 48.7767 32.1608C45.0647 32.1608 42.4185 28.845 42.4185 25.2974C42.4185 21.7499 45.0647 18.4341 48.7767 18.4341C52.4886 18.4268 55.1711 21.7354 55.1784 25.2757ZM53.9966 24.74C53.7574 22.0178 51.6694 19.5345 48.7839 19.5345C45.8985 19.5345 43.8468 22.0178 43.5713 24.74H53.9966ZM68.5689 18.7019C68.8879 18.7019 69.1199 18.977 69.1199 19.2522C69.1199 19.5707 68.8807 19.8024 68.5689 19.8024H65.611V31.3934C65.611 31.6685 65.3717 31.9436 65.06 31.9436C64.741 31.9436 64.509 31.6685 64.509 31.3934V19.8024H61.667C61.348 19.8024 61.116 19.5635 61.116 19.2522C61.116 18.977 61.3553 18.7019 61.667 18.7019H64.509V14.4594C64.509 14.1915 64.6902 13.9454 64.9512 13.9019C65.321 13.844 65.611 14.0974 65.611 14.4449V18.7019H68.5689ZM86.614 24.3056V31.3283C86.614 31.6468 86.3385 31.8785 86.063 31.8785C85.744 31.8785 85.512 31.6396 85.512 31.3283V24.3056C85.512 21.9382 84.1708 19.5707 81.5245 19.5707C78.1316 19.5707 76.6671 22.5318 76.8628 25.5653C76.8628 25.645 76.8991 25.9997 76.8991 26.0359V31.3065C76.8991 31.5744 76.7178 31.8206 76.4569 31.864C76.0871 31.9219 75.7971 31.6685 75.7971 31.321V8.25482C75.7971 7.9797 76.0364 7.70459 76.3481 7.70459C76.6671 7.70459 76.8991 7.9797 76.8991 8.25482V21.3083C77.8488 19.6142 79.5453 18.4703 81.5173 18.4703C84.758 18.4703 86.614 21.3083 86.614 24.3056ZM106.399 25.2757C106.399 25.587 106.138 25.8404 105.826 25.8404H94.7846C95.0601 28.5626 97.1118 31.0459 99.9973 31.0459C101.969 31.0459 103.434 30.293 104.536 28.7219C104.695 28.5047 104.935 28.3672 105.239 28.4975C105.406 28.5699 105.522 28.7219 105.551 28.8957C105.58 29.0767 105.529 29.178 105.478 29.2794C104.369 31.2124 102.158 32.1608 99.9901 32.1608C96.2781 32.1608 93.6319 28.845 93.6319 25.2974C93.6319 21.7499 96.2781 18.4341 99.9901 18.4341C103.709 18.4268 106.392 21.7354 106.399 25.2757ZM105.21 24.74C104.971 22.0178 102.883 19.5345 99.9973 19.5345C97.1118 19.5345 95.0601 22.0178 94.7846 24.74H105.21ZM119.942 19.216C119.942 19.5707 119.746 19.7662 119.427 19.8096C116.186 20.2802 114.729 22.9228 114.729 25.9997V31.2703C114.729 31.5382 114.548 31.7844 114.287 31.8278C113.917 31.8857 113.627 31.6323 113.627 31.2848V19.2739C113.627 19.006 113.808 18.7599 114.069 18.7164C114.439 18.6585 114.729 18.9119 114.729 19.2594V21.7065C115.635 20.1716 117.455 18.7092 119.347 18.7092C119.623 18.7019 119.942 18.9046 119.942 19.216ZM138.067 25.2757C138.067 25.587 137.806 25.8404 137.494 25.8404H126.459C126.735 28.5626 128.787 31.0459 131.672 31.0459C133.644 31.0459 135.109 30.293 136.211 28.7219C136.37 28.5047 136.609 28.3672 136.914 28.4975C137.081 28.5699 137.197 28.7219 137.226 28.8957C137.255 29.0767 137.204 29.178 137.153 29.2794C136.044 31.2124 133.833 32.1608 131.665 32.1608C127.953 32.1608 125.307 28.845 125.307 25.2974C125.307 21.7499 127.953 18.4341 131.665 18.4341C135.377 18.4268 138.059 21.7354 138.067 25.2757ZM136.885 24.74C136.646 22.0178 134.558 19.5345 131.672 19.5345C128.787 19.5345 126.735 22.0178 126.459 24.74H136.885ZM155.88 19.3535V31.3934C155.88 31.712 155.604 31.9436 155.329 31.9436C155.01 31.9436 154.778 31.7047 154.778 31.3934V29.1056C153.871 30.9228 152.247 32.2188 150.196 32.2188C146.919 32.2188 145.099 29.3807 145.099 26.3834V19.3246C145.099 19.0494 145.338 18.7743 145.65 18.7743C145.969 18.7743 146.201 19.0494 146.201 19.3246V26.3834C146.201 28.7509 147.542 31.1183 150.188 31.1183C153.9 31.1183 154.77 27.6504 154.77 23.8205V19.3246C154.77 19.006 155.089 18.6802 155.481 18.7961C155.72 18.8757 155.88 19.1074 155.88 19.3535ZM183.792 24.2622V31.321C183.792 31.6396 183.516 31.8712 183.241 31.8712C182.922 31.8712 182.69 31.6323 182.69 31.321V24.2622C182.69 21.8947 181.349 19.5707 178.702 19.5707C175.382 19.5707 174.12 23.1182 174.12 25.8766V31.321C174.12 31.6396 173.845 31.8712 173.569 31.8712C173.25 31.8712 173.018 31.6323 173.018 31.321V24.2622C173.018 21.8947 171.677 19.5707 169.031 19.5707C165.674 19.5707 164.29 22.2133 164.413 25.7246C164.413 25.8042 164.449 25.9635 164.413 25.9997V31.3065C164.413 31.5744 164.232 31.8206 163.963 31.864C163.594 31.9219 163.304 31.6685 163.304 31.321V19.2739C163.304 19.006 163.485 18.7599 163.746 18.7164C164.116 18.6585 164.406 18.9119 164.406 19.2594V21.2721C165.355 19.578 167.052 18.4703 169.024 18.4703C171.271 18.4703 173.011 19.8893 173.722 21.9816C174.628 19.9327 176.404 18.4703 178.695 18.4703C181.936 18.4703 183.792 21.2648 183.792 24.2622Z" fill="white"/>
<path d="M55.1784 25.2757C55.1784 25.587 54.9174 25.8404 54.6056 25.8404H43.5713C43.8468 28.5626 45.8985 31.0459 48.7839 31.0459C50.7559 31.0459 52.2204 30.293 53.3224 28.7219C53.4819 28.5047 53.7211 28.3672 54.0256 28.4975C54.1924 28.5699 54.3084 28.7219 54.3374 28.8957C54.3664 29.0767 54.3156 29.178 54.2649 29.2794C53.1556 31.2124 50.9444 32.1608 48.7767 32.1608C45.0647 32.1608 42.4185 28.845 42.4185 25.2974C42.4185 21.7499 45.0647 18.4341 48.7767 18.4341C52.4886 18.4268 55.1711 21.7354 55.1784 25.2757ZM53.9966 24.74C53.7574 22.0178 51.6694 19.5345 48.7839 19.5345C45.8985 19.5345 43.8468 22.0178 43.5713 24.74H53.9966ZM68.5689 18.7019C68.8879 18.7019 69.1199 18.977 69.1199 19.2522C69.1199 19.5707 68.8807 19.8024 68.5689 19.8024H65.611V31.3934C65.611 31.6685 65.3717 31.9436 65.06 31.9436C64.741 31.9436 64.509 31.6685 64.509 31.3934V19.8024H61.667C61.348 19.8024 61.116 19.5635 61.116 19.2522C61.116 18.977 61.3553 18.7019 61.667 18.7019H64.509V14.4594C64.509 14.1915 64.6902 13.9454 64.9512 13.9019C65.321 13.844 65.611 14.0974 65.611 14.4449V18.7019H68.5689ZM86.614 24.3056V31.3283C86.614 31.6468 86.3385 31.8785 86.063 31.8785C85.744 31.8785 85.512 31.6396 85.512 31.3283V24.3056C85.512 21.9382 84.1708 19.5707 81.5245 19.5707C78.1316 19.5707 76.6671 22.5318 76.8628 25.5653C76.8628 25.645 76.8991 25.9997 76.8991 26.0359V31.3065C76.8991 31.5744 76.7178 31.8206 76.4569 31.864C76.0871 31.9219 75.7971 31.6685 75.7971 31.321V8.25482C75.7971 7.9797 76.0364 7.70459 76.3481 7.70459C76.6671 7.70459 76.8991 7.9797 76.8991 8.25482V21.3083C77.8488 19.6142 79.5453 18.4703 81.5173 18.4703C84.758 18.4703 86.614 21.3083 86.614 24.3056ZM106.399 25.2757C106.399 25.587 106.138 25.8404 105.826 25.8404H94.7846C95.0601 28.5626 97.1118 31.0459 99.9973 31.0459C101.969 31.0459 103.434 30.293 104.536 28.7219C104.695 28.5047 104.935 28.3672 105.239 28.4975C105.406 28.5699 105.522 28.7219 105.551 28.8957C105.58 29.0767 105.529 29.178 105.478 29.2794C104.369 31.2124 102.158 32.1608 99.9901 32.1608C96.2781 32.1608 93.6319 28.845 93.6319 25.2974C93.6319 21.7499 96.2781 18.4341 99.9901 18.4341C103.709 18.4268 106.392 21.7354 106.399 25.2757ZM105.21 24.74C104.971 22.0178 102.883 19.5345 99.9973 19.5345C97.1118 19.5345 95.0601 22.0178 94.7846 24.74H105.21ZM119.942 19.216C119.942 19.5707 119.746 19.7662 119.427 19.8096C116.186 20.2802 114.729 22.9228 114.729 25.9997V31.2703C114.729 31.5382 114.548 31.7844 114.287 31.8278C113.917 31.8857 113.627 31.6323 113.627 31.2848V19.2739C113.627 19.006 113.808 18.7599 114.069 18.7164C114.439 18.6585 114.729 18.9119 114.729 19.2594V21.7065C115.635 20.1716 117.455 18.7092 119.347 18.7092C119.623 18.7019 119.942 18.9046 119.942 19.216ZM138.067 25.2757C138.067 25.587 137.806 25.8404 137.494 25.8404H126.459C126.735 28.5626 128.787 31.0459 131.672 31.0459C133.644 31.0459 135.109 30.293 136.211 28.7219C136.37 28.5047 136.609 28.3672 136.914 28.4975C137.081 28.5699 137.197 28.7219 137.226 28.8957C137.255 29.0767 137.204 29.178 137.153 29.2794C136.044 31.2124 133.833 32.1608 131.665 32.1608C127.953 32.1608 125.307 28.845 125.307 25.2974C125.307 21.7499 127.953 18.4341 131.665 18.4341C135.377 18.4268 138.059 21.7354 138.067 25.2757ZM136.885 24.74C136.646 22.0178 134.558 19.5345 131.672 19.5345C128.787 19.5345 126.735 22.0178 126.459 24.74H136.885ZM155.88 19.3535V31.3934C155.88 31.712 155.604 31.9436 155.329 31.9436C155.01 31.9436 154.778 31.7047 154.778 31.3934V29.1056C153.871 30.9228 152.247 32.2188 150.196 32.2188C146.919 32.2188 145.099 29.3807 145.099 26.3834V19.3246C145.099 19.0494 145.338 18.7743 145.65 18.7743C145.969 18.7743 146.201 19.0494 146.201 19.3246V26.3834C146.201 28.7509 147.542 31.1183 150.188 31.1183C153.9 31.1183 154.77 27.6504 154.77 23.8205V19.3246C154.77 19.006 155.089 18.6802 155.481 18.7961C155.72 18.8757 155.88 19.1074 155.88 19.3535ZM183.792 24.2622V31.321C183.792 31.6396 183.516 31.8712 183.241 31.8712C182.922 31.8712 182.69 31.6323 182.69 31.321V24.2622C182.69 21.8947 181.349 19.5707 178.702 19.5707C175.382 19.5707 174.12 23.1182 174.12 25.8766V31.321C174.12 31.6396 173.845 31.8712 173.569 31.8712C173.25 31.8712 173.018 31.6323 173.018 31.321V24.2622C173.018 21.8947 171.677 19.5707 169.031 19.5707C165.674 19.5707 164.29 22.2133 164.413 25.7246C164.413 25.8042 164.449 25.9635 164.413 25.9997V31.3065C164.413 31.5744 164.232 31.8206 163.963 31.864C163.594 31.9219 163.304 31.6685 163.304 31.321V19.2739C163.304 19.006 163.485 18.7599 163.746 18.7164C164.116 18.6585 164.406 18.9119 164.406 19.2594V21.2721C165.355 19.578 167.052 18.4703 169.024 18.4703C171.271 18.4703 173.011 19.8893 173.722 21.9816C174.628 19.9327 176.404 18.4703 178.695 18.4703C181.936 18.4703 183.792 21.2648 183.792 24.2622Z" stroke="white" stroke-width="2" mask="url(#path-1-outside-1_91_7158)"/>
<g opacity="0.6">
<mask id="mask0_91_7158" style="mask-type:luminance" maskUnits="userSpaceOnUse" x="0" y="18" width="31" height="17">
<path d="M0 18.3979H30.5874V34.37H0V18.3979Z" fill="white"/>
</mask>
<g mask="url(#mask0_91_7158)">
<path d="M15.2967 18.3979L0 25.3452L15.2967 34.37L30.5874 25.3452L15.2967 18.3979Z" fill="white"/>
</g>
</g>
<g opacity="0.45">
<mask id="mask1_91_7158" style="mask-type:luminance" maskUnits="userSpaceOnUse" x="0" y="0" width="16" height="35">
<path d="M0 0H15.2967V34.3699H0V0Z" fill="white"/>
</mask>
<g mask="url(#mask1_91_7158)">
<path d="M0 25.3451L15.2967 34.3699V0L0 25.3451Z" fill="white"/>
</g>
</g>
<g opacity="0.8">
<mask id="mask2_91_7158" style="mask-type:luminance" maskUnits="userSpaceOnUse" x="15" y="0" width="16" height="35">
<path d="M15.2969 0H30.5936V34.3699H15.2969V0Z" fill="white"/>
</mask>
<g mask="url(#mask2_91_7158)">
<path d="M15.2969 0V34.3699L30.5876 25.3451L15.2969 0Z" fill="white"/>
</g>
</g>
<g opacity="0.45">
<mask id="mask3_91_7158" style="mask-type:luminance" maskUnits="userSpaceOnUse" x="0" y="28" width="16" height="22">
<path d="M0 28.2393H15.2967V49.7595H0V28.2393Z" fill="white"/>
</mask>
<g mask="url(#mask3_91_7158)">
<path d="M0 28.2393L15.2967 49.7595V37.2641L0 28.2393Z" fill="white"/>
</g>
</g>
<g opacity="0.8">
<mask id="mask4_91_7158" style="mask-type:luminance" maskUnits="userSpaceOnUse" x="15" y="28" width="16" height="22">
<path d="M15.2969 28.2393H30.5996V49.7595H15.2969V28.2393Z" fill="white"/>
</mask>
<g mask="url(#mask4_91_7158)">
<path d="M15.2969 37.2641V49.7595L30.5996 28.2393L15.2969 37.2641Z" fill="white"/>
</g>
</g>
</g>
<defs>
<clipPath id="clip0_91_7158">
<rect width="184" height="50" fill="white"/>
</clipPath>
</defs>
</svg>
