<svg width="156" height="42" viewBox="0 0 156 42" fill="none" xmlns="http://www.w3.org/2000/svg">
<g clip-path="url(#clip0_91_7191)">
<mask id="mask0_91_7191" style="mask-type:luminance" maskUnits="userSpaceOnUse" x="0" y="0" width="156" height="41">
<path d="M155.293 0.5H0V40.8195H155.293V0.5Z" fill="white"/>
</mask>
<g mask="url(#mask0_91_7191)">
<path d="M14.1608 0.886229C15.1407 0.371257 16.6318 0.371257 17.6118 0.886229L27.6113 6.14104C28.2015 6.45119 28.5256 6.91335 28.5837 7.39044H28.5932V33.8039C28.5803 34.3243 28.2531 34.8412 27.6113 35.1785L17.6118 40.4333C16.6318 40.9483 15.1407 40.9483 14.1608 40.4333L4.16128 35.1785C3.52222 34.8427 3.21554 34.322 3.20036 33.8039C3.19885 33.7528 3.19866 33.7103 3.20011 33.675L3.20004 7.5601C3.19903 7.53149 3.19894 7.50292 3.19976 7.47448L3.20036 7.39044L3.20483 7.39041C3.24924 6.90809 3.55867 6.45774 4.16128 6.14104L14.1608 0.886229ZM27.0191 22.1264L17.6118 27.07C16.6318 27.5849 15.1407 27.5849 14.1608 27.07L4.77408 22.1374V33.7516L14.1608 38.6583C14.6908 38.9402 15.241 39.2149 15.7789 39.2498L15.8863 39.2533C16.4468 39.2552 16.991 38.972 17.5429 38.704L27.0191 33.7094V22.1264ZM1.57394 33.2296C1.57394 34.2414 1.69215 34.9067 1.92687 35.3754C2.12141 35.7638 2.4133 36.0605 2.94629 36.4218L2.97671 36.4423C3.09368 36.5207 3.22253 36.6029 3.37937 36.6993L3.56434 36.8121L4.1323 37.1532L3.31769 38.4932L2.68198 38.1111L2.57513 38.0459C2.39132 37.9328 2.23897 37.8361 2.09687 37.7407C0.57786 36.7217 0.0113475 35.611 0.000169164 33.2999L0 33.2296H1.57394ZM15.0991 15.0468C15.0263 15.0716 14.9581 15.1004 14.8959 15.1331L4.89636 20.3879C4.88587 20.3934 4.87585 20.3989 4.86634 20.4043L4.85787 20.4092L4.87355 20.4181L4.89636 20.4304L14.8959 25.6852C14.9581 25.7179 15.0263 25.7467 15.0991 25.7716V15.0468ZM16.6735 15.0468V25.7716C16.7463 25.7467 16.8145 25.7179 16.8767 25.6852L26.8763 20.4304C26.8868 20.4249 26.8968 20.4195 26.9063 20.4141L26.9148 20.4092L26.899 20.4002L26.8763 20.3879L16.8767 15.1331C16.8145 15.1004 16.7463 15.0716 16.6735 15.0468ZM27.0191 9.26413L18.0489 13.978L27.0191 18.692V9.26413ZM4.77408 9.27515V18.6809L13.7234 13.978L4.77408 9.27515ZM16.8767 2.27096C16.3567 1.99769 15.4159 1.99769 14.8959 2.27096L4.89636 7.52579C4.88587 7.53131 4.87585 7.53676 4.86634 7.54214L4.85787 7.54702L4.87355 7.55597L4.89636 7.56829L14.8959 12.8231C15.4159 13.0964 16.3567 13.0964 16.8767 12.8231L26.8763 7.56829C26.8868 7.56277 26.8968 7.55732 26.9063 7.55191L26.9148 7.54702L26.899 7.53808L26.8763 7.52579L16.8767 2.27096ZM28.4969 2.8472L29.1326 3.2292L29.2395 3.29447C29.4233 3.40736 29.5756 3.50434 29.7177 3.59966C31.2367 4.61857 31.8032 5.72947 31.8143 8.0404L31.8146 8.1108H30.2406C30.2406 7.09879 30.1224 6.43364 29.8877 5.96502C29.6932 5.57663 29.4013 5.27981 28.8683 4.91864L28.8379 4.89813C28.7209 4.81966 28.592 4.73748 28.4352 4.64087L28.2502 4.52817L27.6823 4.18715L28.4969 2.8472Z" fill="white"/>
<path d="M47.804 32.7025V17.9722H51.8888V15.2751H47.804V13.3387C47.804 11.1488 48.7619 10.0539 50.6774 10.0539C51.2311 10.0539 51.8199 10.1461 52.4429 10.3305V7.46052C51.6813 7.23 50.839 7.11475 49.9157 7.11475C48.1388 7.11475 46.7598 7.62189 45.7789 8.63618C44.798 9.65046 44.3075 11.1258 44.3075 13.0622V15.2751H40.9497V17.9722H44.3075V32.7025H47.804ZM61.9974 32.9444C63.3361 32.9444 64.5073 32.6678 65.5111 32.1144C66.515 31.5613 67.271 30.766 67.7788 29.7287V32.7025H71.2406V15.2751H67.7788V18.1105C67.2477 17.0732 66.4864 16.2721 65.4938 15.7073C64.5016 15.1426 63.3361 14.8602 61.9974 14.8602C60.4974 14.8602 59.1586 15.2405 57.9818 16.0013C56.8047 16.762 55.8874 17.8339 55.2297 19.217C54.572 20.6001 54.2431 22.1907 54.2431 23.9887C54.2431 25.7868 54.566 27.3601 55.2124 28.7086C55.8584 30.0572 56.7643 31.1003 57.9298 31.8379C59.0953 32.5755 60.4511 32.9444 61.9974 32.9444ZM62.8283 30.1782C61.2357 30.1782 59.9953 29.6364 59.107 28.553C58.2184 27.4696 57.7739 25.9482 57.7739 23.9887C57.7739 22.0063 58.2184 20.456 59.107 19.338C59.9953 18.22 61.2244 17.661 62.7937 17.661C64.386 17.661 65.6151 18.2027 66.4804 19.2862C67.346 20.3696 67.7788 21.9141 67.7788 23.9196C67.7788 25.902 67.346 27.4408 66.4804 28.5357C65.6151 29.6307 64.3976 30.1782 62.8283 30.1782ZM79.8258 32.7025V22.7785C79.8258 21.234 80.27 20.0008 81.1586 19.0787C82.0472 18.1566 83.23 17.6956 84.707 17.6956C85.9994 17.6956 86.9397 18.0414 87.5284 18.7329C88.1168 19.4245 88.411 20.531 88.411 22.0524V32.7025H91.9075V21.8449C91.9075 17.1884 89.8188 14.8602 85.6416 14.8602C84.3032 14.8602 83.1087 15.1541 82.0585 15.7419C81.0086 16.3297 80.2066 17.1769 79.6526 18.2834L79.341 15.2751H76.0871C76.2717 16.7274 76.364 18.3641 76.364 20.1852V32.7025H79.8258ZM103.608 32.9444C104.577 32.9444 105.443 32.8178 106.205 32.5642V29.7287C105.581 29.9131 104.97 30.0053 104.37 30.0053C103.447 30.0053 102.725 29.7575 102.206 29.2619C101.687 28.7662 101.427 27.9191 101.427 26.7204V17.9722H106.239V15.2751H101.427V9.70808L97.9311 10.9183V15.2751H94.5383V17.9722H97.9311V26.997C97.9311 28.9334 98.4273 30.4087 99.4195 31.423C100.412 32.4373 101.808 32.9444 103.608 32.9444ZM116.971 32.9444C118.655 32.9444 120.144 32.5755 121.437 31.8379C122.729 31.1003 123.727 30.0514 124.431 28.6913C125.135 27.3313 125.487 25.7407 125.487 23.9196C125.487 22.0985 125.135 20.5021 124.431 19.1305C123.727 17.759 122.729 16.7044 121.437 15.9667C120.144 15.229 118.655 14.8602 116.971 14.8602C115.263 14.8602 113.763 15.229 112.471 15.9667C111.178 16.7044 110.18 17.759 109.476 19.1305C108.772 20.5021 108.42 22.0985 108.42 23.9196C108.42 25.7407 108.772 27.3313 109.476 28.6913C110.18 30.0514 111.178 31.1003 112.471 31.8379C113.763 32.5755 115.263 32.9444 116.971 32.9444ZM116.936 30.1782C115.344 30.1782 114.115 29.648 113.249 28.5876C112.384 27.5272 111.951 25.9712 111.951 23.9196C111.951 21.9141 112.39 20.3696 113.267 19.2862C114.143 18.2027 115.378 17.661 116.971 17.661C118.54 17.661 119.758 18.2027 120.623 19.2862C121.489 20.3696 121.921 21.9141 121.921 23.9196C121.921 25.9712 121.494 27.5272 120.64 28.5876C119.786 29.648 118.552 30.1782 116.936 30.1782ZM133.033 32.7025V22.8477C133.033 21.2571 133.426 20.0008 134.211 19.0787C134.995 18.1566 136.057 17.6956 137.396 17.6956C138.549 17.6956 139.386 18.0414 139.905 18.7329C140.425 19.4245 140.684 20.5194 140.684 22.0178V32.7025H144.181V22.8477C144.181 21.2571 144.567 20.0008 145.34 19.0787C146.113 18.1566 147.169 17.6956 148.508 17.6956C149.662 17.6956 150.498 18.0414 151.018 18.7329C151.537 19.4245 151.796 20.5194 151.796 22.0178V32.7025H155.293V21.8449C155.293 17.1884 153.354 14.8602 149.477 14.8602C148.185 14.8602 147.025 15.1599 145.998 15.7592C144.971 16.3586 144.192 17.1769 143.661 18.2142C142.83 15.9782 141.065 14.8602 138.365 14.8602C137.095 14.8602 135.987 15.1483 135.041 15.7246C134.095 16.3009 133.368 17.1193 132.861 18.1797L132.549 15.2751H129.295C129.479 16.7274 129.572 18.3641 129.572 20.1852V32.7025H133.033Z" fill="white"/>
</g>
</g>
<defs>
<clipPath id="clip0_91_7191">
<rect width="156" height="41" fill="white" transform="translate(0 0.5)"/>
</clipPath>
</defs>
</svg>
