<svg width="64" height="64" viewBox="0 0 64 64" fill="none" xmlns="http://www.w3.org/2000/svg">
<g clip-path="url(#clip0_91_7267)">
<path d="M32 64C49.6731 64 64 49.6731 64 32C64 14.3269 49.6731 0 32 0C14.3269 0 0 14.3269 0 32C0 49.6731 14.3269 64 32 64Z" fill="#EBF3FE"/>
<path d="M32 47C29.9444 47 28.0067 46.6039 26.1867 45.8117C24.3667 45.0194 22.7767 43.9433 21.4167 42.5833C20.0556 41.2222 18.9789 39.6317 18.1867 37.8117C17.3944 35.9917 16.9989 34.0544 17 32C17 30.7778 17.1389 29.59 17.4167 28.4367C17.6944 27.2833 18.0972 26.2 18.625 25.1867C19.1528 24.1733 19.7844 23.2294 20.52 22.355C21.2556 21.4806 22.0822 20.6956 23 20L34.3333 31.3333L32 33.6667L23 24.6667C22.1667 25.6667 21.5139 26.785 21.0417 28.0217C20.5694 29.2583 20.3333 30.5844 20.3333 32C20.3333 35.2222 21.4722 37.9722 23.75 40.25C26.0278 42.5278 28.7778 43.6667 32 43.6667C35.2222 43.6667 37.9722 42.5278 40.25 40.25C42.5278 37.9722 43.6667 35.2222 43.6667 32C43.6667 29.0278 42.715 26.4656 40.8117 24.3133C38.9083 22.1611 36.5267 20.89 33.6667 20.5V23.6667H30.3333V17H32C34.0556 17 35.9933 17.3961 37.8133 18.1883C39.6333 18.9806 41.2233 20.0567 42.5833 21.4167C43.9444 22.7778 45.0211 24.3683 45.8133 26.1883C46.6056 28.0083 47.0011 29.9456 47 32C47 34.0556 46.6039 35.9933 45.8117 37.8133C45.0194 39.6333 43.9433 41.2233 42.5833 42.5833C41.2222 43.9444 39.6317 45.0211 37.8117 45.8133C35.9917 46.6056 34.0544 47.0011 32 47ZM32 42C31.5278 42 31.1317 41.84 30.8117 41.52C30.4917 41.2 30.3322 40.8044 30.3333 40.3333C30.3333 39.8611 30.4933 39.465 30.8133 39.145C31.1333 38.825 31.5289 38.6656 32 38.6667C32.4722 38.6667 32.8683 38.8267 33.1883 39.1467C33.5083 39.4667 33.6678 39.8622 33.6667 40.3333C33.6667 40.8056 33.5067 41.2017 33.1867 41.5217C32.8667 41.8417 32.4711 42.0011 32 42ZM40.3333 33.6667C39.8611 33.6667 39.465 33.5067 39.145 33.1867C38.825 32.8667 38.6656 32.4711 38.6667 32C38.6667 31.5278 38.8267 31.1317 39.1467 30.8117C39.4667 30.4917 39.8622 30.3322 40.3333 30.3333C40.8056 30.3333 41.2017 30.4933 41.5217 30.8133C41.8417 31.1333 42.0011 31.5289 42 32C42 32.4722 41.84 32.8683 41.52 33.1883C41.2 33.5083 40.8044 33.6678 40.3333 33.6667ZM23.6667 33.6667C23.1944 33.6667 22.7983 33.5067 22.4783 33.1867C22.1583 32.8667 21.9989 32.4711 22 32C22 31.5278 22.16 31.1317 22.48 30.8117C22.8 30.4917 23.1956 30.3322 23.6667 30.3333C24.1389 30.3333 24.535 30.4933 24.855 30.8133C25.175 31.1333 25.3344 31.5289 25.3333 32C25.3333 32.4722 25.1733 32.8683 24.8533 33.1883C24.5333 33.5083 24.1378 33.6678 23.6667 33.6667Z" fill="#FFAB17"/>
</g>
<defs>
<clipPath id="clip0_91_7267">
<rect width="64" height="64" fill="white"/>
</clipPath>
</defs>
</svg>
