<svg width="48" height="49" viewBox="0 0 48 49" fill="none" xmlns="http://www.w3.org/2000/svg">
<g clip-path="url(#clip0_91_7599)">
<path d="M24 48.9834C37.2548 48.9834 48 38.2382 48 24.9834C48 11.7286 37.2548 0.983398 24 0.983398C10.7452 0.983398 0 11.7286 0 24.9834C0 38.2382 10.7452 48.9834 24 48.9834Z" fill="#02DADE"/>
<mask id="mask0_91_7599" style="mask-type:luminance" maskUnits="userSpaceOnUse" x="8" y="9" width="32" height="32">
<path d="M39.0721 9.62305H8.64014V40.343H39.0721V9.62305Z" fill="white"/>
</mask>
<g mask="url(#mask0_91_7599)">
<path fill-rule="evenodd" clip-rule="evenodd" d="M14.1121 14.4231C13.6321 11.9271 15.5521 9.62305 18.0481 9.62305C20.2561 9.62305 22.0801 11.4471 22.0801 13.6551V18.6471C22.6561 18.6471 23.2321 18.5511 23.8081 18.5511C24.3841 18.5511 24.8641 18.5511 25.4401 18.6471V13.6551C25.4401 11.4471 27.2641 9.62305 29.4721 9.62305C31.9681 9.62305 33.8881 11.9271 33.5041 14.4231L32.4481 20.2791C36.1921 21.9111 39.0721 24.7911 39.0721 28.3431V30.5511C39.0721 33.5271 37.1521 36.0231 34.3681 37.6551C31.5841 39.3831 27.9361 40.3431 23.8081 40.3431C19.6801 40.3431 16.0321 39.3831 13.2481 37.6551C10.5601 36.0231 8.64014 33.5271 8.64014 30.5511V28.3431C8.64014 24.7911 11.4241 21.9111 15.1681 20.2791L14.1121 14.4231ZM31.0081 21.0471L32.2561 14.1351C32.5441 12.4071 31.2961 10.775 29.4721 10.775C27.9361 10.775 26.6881 12.0231 26.6881 13.5591V19.8951C26.3041 19.7991 25.8241 19.7991 25.4401 19.7991C24.8641 19.7991 24.3841 19.7031 23.8081 19.7031C23.2321 19.7031 22.6561 19.7031 22.0801 19.7991C21.6961 19.7991 21.2161 19.8951 20.8321 19.8951V13.6551C20.8321 12.1191 19.5841 10.871 18.0481 10.871C16.3201 10.871 14.9761 12.5031 15.3601 14.2311L16.6081 21.1431C12.5761 22.6791 9.88814 25.3671 9.88814 28.4391V30.6471C9.88814 35.3511 16.1281 39.1911 23.8081 39.1911C31.4881 39.1911 37.7281 35.3511 37.7281 30.6471V28.4391C37.8241 25.2711 35.1361 22.5831 31.0081 21.0471Z" fill="#633001"/>
<path d="M37.8244 30.5508C37.8244 35.2548 31.5844 39.0948 23.9044 39.0948C16.2244 39.0948 9.98438 35.2548 9.98438 30.5508V28.3428H37.9204V30.5508H37.8244Z" fill="#FEDC90"/>
<path fill-rule="evenodd" clip-rule="evenodd" d="M15.3604 14.2311C14.9764 12.5031 16.3204 10.8711 18.0484 10.8711C19.5844 10.8711 20.8324 12.1191 20.8324 13.6551V19.9911C21.7924 19.8951 22.7524 19.7991 23.8084 19.7991C24.7684 19.7991 25.7284 19.8951 26.6884 19.9911V13.6551C26.6884 12.1191 27.9364 10.8711 29.4724 10.8711C31.2004 10.8711 32.5444 12.5031 32.2564 14.2311L31.0084 21.1431C35.0404 22.6791 37.8244 25.3671 37.8244 28.4391C37.8244 33.1431 31.5844 36.9831 23.9044 36.9831C16.2244 36.9831 9.98438 33.1431 9.98438 28.4391C9.98438 25.3671 12.6724 22.6791 16.7044 21.1431L15.3604 14.2311Z" fill="#D1884F"/>
<path d="M19.9685 27.7669C19.9685 29.0149 19.2965 30.0709 18.4325 30.0709C17.5685 30.0709 16.8965 29.0149 16.8965 27.7669C16.8965 26.5189 17.5685 25.4629 18.4325 25.4629C19.2965 25.4629 19.9685 26.5189 19.9685 27.7669Z" fill="#633001"/>
<path d="M30.6242 27.7669C30.6242 29.0149 29.9522 30.0709 29.0882 30.0709C28.2242 30.0709 27.5522 29.0149 27.5522 27.7669C27.5522 26.5189 28.2242 25.4629 29.0882 25.4629C29.9522 25.4629 30.6242 26.5189 30.6242 27.7669Z" fill="#633001"/>
</g>
</g>
<defs>
<clipPath id="clip0_91_7599">
<rect width="48" height="48" fill="white" transform="translate(0 0.983398)"/>
</clipPath>
</defs>
</svg>
