<svg width="148" height="32" viewBox="0 0 148 32" fill="none" xmlns="http://www.w3.org/2000/svg">
<g clip-path="url(#clip0_91_7199)">
<mask id="mask0_91_7199" style="mask-type:luminance" maskUnits="userSpaceOnUse" x="0" y="0" width="148" height="32">
<path d="M147.975 0.5H0V31.4491H147.975V0.5Z" fill="white"/>
</mask>
<g mask="url(#mask0_91_7199)">
<path d="M26.0732 9.95486C25.4357 9.56227 24.607 9.56227 23.9058 9.95486L18.9333 12.9647L15.5546 14.9276L10.5823 17.9375C9.94482 18.3301 9.11606 18.3301 8.41482 17.9375L4.46241 15.582C3.82492 15.1894 3.37868 14.4697 3.37868 13.6844V9.03881C3.37868 8.25363 3.76117 7.53389 4.46241 7.1413L8.35108 4.85119C8.98856 4.45861 9.81725 4.45861 10.5185 4.85119L14.4072 7.1413C15.0447 7.53389 15.4909 8.25363 15.4909 9.03881V12.0487L18.8696 10.0203V7.01044C18.8696 6.22526 18.4872 5.50552 17.7859 5.11293L10.5823 0.794442C9.94482 0.401853 9.11606 0.401853 8.41482 0.794442L1.08373 5.11293C0.382492 5.50552 0 6.22526 0 7.01044V15.7128C0 16.498 0.382492 17.2177 1.08373 17.6103L8.41482 21.9288C9.05232 22.3215 9.88109 22.3215 10.5823 21.9288L15.5546 18.9844L18.9333 16.956L23.9058 14.0116C24.5432 13.619 25.372 13.619 26.0732 14.0116L29.9618 16.3018C30.5994 16.6943 31.0456 17.4141 31.0456 18.1992V22.8449C31.0456 23.63 30.6631 24.3498 29.9618 24.7423L26.0732 27.098C25.4357 27.4905 24.607 27.4905 23.9058 27.098L20.0171 24.8078C19.3796 24.4153 18.9333 23.6955 18.9333 22.9103V19.9005L15.5546 21.9288V24.9387C15.5546 25.7238 15.9372 26.4436 16.6384 26.8362L23.9695 31.1547C24.607 31.5473 25.4357 31.5473 26.1369 31.1547L33.4681 26.8362C34.1055 26.4436 34.5518 25.7238 34.5518 24.9387V16.2363C34.5518 15.4511 34.1693 14.7314 33.4681 14.3388L26.0732 9.95486Z" fill="white"/>
<path d="M48.0121 28.6662V21.4415C48.7895 22.428 50.2003 22.9793 51.8415 22.9793C56.0165 22.9793 58.8382 19.9908 58.8382 15.4355C58.8382 10.8801 56.2468 7.8916 52.187 7.8916C50.3154 7.8916 48.8758 8.58796 48.0121 9.71953V8.12372H44.0098V28.6662H48.0121ZM51.352 19.4975C49.1926 19.4975 47.7817 17.8727 47.7817 15.4355C47.7817 12.9692 49.1926 11.3444 51.352 11.3444C53.4539 11.3444 54.8936 12.9692 54.8936 15.4355C54.8936 17.8727 53.4539 19.4975 51.352 19.4975Z" fill="white"/>
<path d="M67.9261 22.9793C72.389 22.9793 75.5851 19.7877 75.5851 15.4355C75.5851 11.0832 72.389 7.8916 67.9261 7.8916C63.4632 7.8916 60.2671 11.0832 60.2671 15.4355C60.2671 19.7877 63.4632 22.9793 67.9261 22.9793ZM67.9261 19.4975C65.7666 19.4975 64.2981 17.8437 64.2981 15.4355C64.2981 12.9982 65.7666 11.3444 67.9261 11.3444C70.0856 11.3444 71.5541 12.9982 71.5541 15.4355C71.5541 17.8437 70.0856 19.4975 67.9261 19.4975Z" fill="white"/>
<path d="M82.0068 22.7472V1.76953H78.0046V22.7472H82.0068Z" fill="white"/>
<path d="M94.0377 8.12354L91.0145 17.5533L87.9624 8.12354H83.8738L89.1429 22.6309L87.0123 28.666H90.8418L92.886 22.689L98.1552 8.12354H94.0377Z" fill="white"/>
<path d="M109.395 9.57446C108.589 8.55894 107.15 7.8916 105.393 7.8916C101.16 7.8916 98.5981 10.8801 98.5981 15.4355C98.5981 19.9908 101.16 22.9793 105.45 22.9793C107.15 22.9793 108.675 22.341 109.424 21.2674V23.1824C109.424 24.5461 108.532 25.5036 107.322 25.5036H100.642V28.6662H107.955C111.238 28.6662 113.427 26.6642 113.427 23.6176V8.12372H109.395V9.57446ZM106.084 19.4975C103.953 19.4975 102.542 17.9017 102.542 15.4355C102.542 12.9692 103.953 11.3444 106.084 11.3444C108.244 11.3444 109.655 12.9692 109.655 15.4355C109.655 17.9017 108.244 19.4975 106.084 19.4975Z" fill="white"/>
<path d="M123.516 22.9793C127.979 22.9793 131.175 19.7877 131.175 15.4355C131.175 11.0832 127.979 7.8916 123.516 7.8916C119.054 7.8916 115.857 11.0832 115.857 15.4355C115.857 19.7877 119.054 22.9793 123.516 22.9793ZM123.516 19.4975C121.356 19.4975 119.888 17.8437 119.888 15.4355C119.888 12.9982 121.356 11.3444 123.516 11.3444C125.676 11.3444 127.144 12.9982 127.144 15.4355C127.144 17.8437 125.676 19.4975 123.516 19.4975Z" fill="white"/>
<path d="M137.396 22.7472V14.7391C137.396 12.8531 138.634 11.4894 140.39 11.4894C142.059 11.4894 143.182 12.7661 143.182 14.536V22.7472H147.213V13.6365C147.213 10.2708 145.083 7.8916 141.8 7.8916C139.814 7.8916 138.201 8.73303 137.396 10.1548V8.12372H133.365V22.7472H137.396Z" fill="white"/>
</g>
</g>
<defs>
<clipPath id="clip0_91_7199">
<rect width="148" height="31" fill="white" transform="translate(0 0.5)"/>
</clipPath>
</defs>
</svg>
