<svg width="137" height="44" viewBox="0 0 137 44" fill="none" xmlns="http://www.w3.org/2000/svg">
<path fill-rule="evenodd" clip-rule="evenodd" d="M37.907 21.9613C37.907 31.9018 29.8349 39.9602 19.8776 39.9602C9.92018 39.9602 1.84814 31.9018 1.84814 21.9613C1.84814 12.0208 9.92018 3.9624 19.8776 3.9624C29.8349 3.9624 37.907 12.0208 37.907 21.9613ZM21.7992 23.6194V23.6223V23.6252C26.1906 23.4284 29.469 22.6645 29.469 21.7501C29.469 20.8356 26.1935 20.0717 21.7992 19.8749V22.8612C21.6717 22.8728 20.9876 22.9307 19.6195 22.9307C18.4803 22.9307 17.6542 22.8815 17.3672 22.8612V19.872C12.9671 20.0659 9.68006 20.8328 9.68006 21.7472C9.68006 22.6645 12.9642 23.4284 17.3672 23.6223V23.6194C17.6513 23.6339 18.4542 23.6657 19.5992 23.6657C21.0311 23.6657 21.6746 23.6281 21.7992 23.6194ZM21.7992 16.8915V19.5653L21.8021 19.5682C26.7761 19.7968 30.5154 20.7836 30.5154 21.9613C30.5154 23.1419 26.7761 24.1258 21.8021 24.3544V32.9256H17.3701V24.3544C12.3903 24.1229 8.64236 23.139 8.64236 21.9584C8.64236 20.7778 12.3874 19.7939 17.3701 19.5653V16.8915H11.2396V12.8143H27.9298V16.8915H21.7992Z" fill="white"/>
<path d="M53.2216 13.9288V18.252H57.4304V21.4958H53.1926V28.0732C53.1926 29.5259 53.9955 30.2349 55.1723 30.2349C55.7608 30.2349 56.4419 30.0497 56.9985 29.7719L58.0507 32.9839C56.9695 33.415 56.0709 33.6002 54.926 33.6321C51.6157 33.7565 49.4505 31.8727 49.4505 28.0732V21.4958H46.604V18.252H49.4505V14.331L53.2216 13.9288ZM125.783 18.0494L126.061 19.8088C127.238 17.925 128.815 17.6472 130.363 17.6472C131.94 17.6472 133.456 18.2635 134.29 19.0969L132.589 22.3697C131.815 21.7215 131.105 21.3801 129.867 21.3801C127.887 21.3801 126.061 22.4305 126.061 25.2403V33.2704H122.287V18.0436L125.783 18.0494ZM116.533 23.886C116.287 21.9096 114.739 20.92 112.574 20.92C110.533 20.92 108.861 21.9096 108.304 23.886H116.533ZM108.243 27.0055C108.49 28.8893 110.13 30.2493 112.791 30.2493C114.183 30.2493 116.009 29.7227 116.875 28.8285L119.287 31.2071C117.678 32.8739 115.049 33.6784 112.728 33.6784C107.469 33.6784 104.342 30.4345 104.342 25.5557C104.342 20.9229 107.498 17.5864 112.449 17.5864C117.554 17.5864 120.742 20.7377 120.154 27.0055H108.243ZM91.5993 11.6543V20.1155C92.9616 18.3561 94.6312 17.8295 96.3646 17.8295C100.695 17.8295 102.614 20.7637 102.614 25.2432V33.2733H98.84V25.275C98.84 22.4942 97.3849 21.3222 95.3733 21.3222C93.1442 21.3222 91.5993 23.206 91.5993 25.4921V33.2761H87.8253V11.6572L91.5993 11.6543ZM81.5758 13.7551V18.0783H85.7846V21.3222H81.5469V27.8996C81.5469 29.3523 82.3527 30.0612 83.5266 30.0612C84.115 30.0612 84.7962 29.876 85.3527 29.5982L86.4049 32.8103C85.3237 33.2414 84.4252 33.4266 83.2802 33.4585C79.97 33.5829 77.8047 31.6962 77.8047 27.8996V21.3222H74.9583V18.0783H77.8047V14.1574L81.5758 13.7551ZM71.1495 23.886C70.9031 21.9096 69.3553 20.92 67.19 20.92C65.1494 20.92 63.4769 21.9096 62.9203 23.886H71.1495ZM62.8595 27.0055C63.1059 28.8893 64.7465 30.2493 67.4074 30.2493C68.7987 30.2493 70.6249 29.7227 71.4916 28.8285L73.9032 31.2071C72.2945 32.8739 69.6654 33.6784 67.3436 33.6784C62.0826 33.6784 58.9579 30.4345 58.9579 25.5557C58.9579 20.9229 62.1145 17.5864 67.0625 17.5864C72.1669 17.5864 75.3525 20.7377 74.767 27.0055H62.8595Z" fill="white"/>
</svg>
