<svg width="123" height="40" viewBox="0 0 123 40" fill="none" xmlns="http://www.w3.org/2000/svg">
<g clip-path="url(#clip0_91_7226)">
<path d="M50.9528 16.3007H52.8704V28.8646H50.9528V16.3007ZM45.8184 10.9839H61.4744V12.9051H45.8184V10.9839ZM54.4253 16.3007H56.3429V28.8646H54.4253V16.3007ZM109.409 28.8825H111.347V21.3138L109.409 19.1543V28.8825Z" fill="white"/>
<path d="M119.613 10.9837V25.0101L105.901 9.74463V28.8823H107.839V14.844L121.554 30.1155V10.9837H119.613ZM93.3544 10.9718C88.4281 10.9718 84.4204 14.987 84.4204 19.9226C84.4204 24.8582 88.4281 28.8734 93.3544 28.8734C98.2807 28.8734 102.289 24.8582 102.289 19.9226C102.289 14.987 98.2807 10.9718 93.3544 10.9718ZM93.3544 26.9432C89.4895 26.9432 86.344 23.7948 86.344 19.9196C86.344 16.0444 89.4865 12.896 93.3544 12.896C97.2223 12.896 100.365 16.0444 100.365 19.9196C100.365 23.7948 97.2194 26.9432 93.3544 26.9432Z" fill="white"/>
<path d="M93.354 18.633C92.6464 18.633 92.0666 19.2138 92.0666 19.9228C92.0666 20.6317 92.6464 21.2125 93.354 21.2125C94.0616 21.2125 94.6413 20.6317 94.6413 19.9228C94.6413 19.2138 94.0675 18.633 93.354 18.633ZM81.0575 16.4705C81.0575 13.4442 78.6166 10.9839 75.6168 10.9839H65.3955V28.8825H67.3042V12.926H75.6168C77.5404 12.926 79.1072 14.5165 79.1072 16.4675C79.1072 18.4096 77.5612 19.9942 75.6555 20.0151L68.874 20.0121V28.8795H70.7827V21.9542H75.2541L78.905 28.8795H81.1199L77.3085 21.6831C79.5234 20.9534 81.0575 18.8266 81.0575 16.4705Z" fill="white"/>
<path d="M30.4506 5.88616L1.37305 0.5L16.6734 39.2565L37.9961 13.11L30.4506 5.88616ZM29.9815 8.26195L34.4301 12.5161L22.2619 14.7345L29.9815 8.26195ZM19.6215 14.2877L6.79766 3.58397L27.7572 7.46495L19.6215 14.2877ZM18.7086 16.1838L16.6179 33.581L5.34252 5.02569L18.7086 16.1838ZM20.6429 17.1052L34.1149 14.6507L18.6632 33.6013L20.6429 17.1052Z" fill="white"/>
</g>
<defs>
<clipPath id="clip0_91_7226">
<rect width="122" height="39" fill="white" transform="translate(0.543945 0.5)"/>
</clipPath>
</defs>
</svg>
