<svg width="48" height="49" viewBox="0 0 48 49" fill="none" xmlns="http://www.w3.org/2000/svg">
<mask id="mask0_91_7613" style="mask-type:luminance" maskUnits="userSpaceOnUse" x="0" y="0" width="48" height="49">
<path d="M48 0.983398H0V48.9834H48V0.983398Z" fill="white"/>
</mask>
<g mask="url(#mask0_91_7613)">
<path d="M18.8235 11.9057C18.2245 11.8313 18.196 11.8066 18.4812 11.7818C19.0231 11.7075 20.2779 11.8066 21.1621 11.9799C23.2156 12.401 25.0694 13.4908 27.0373 15.3979L27.5507 15.918L28.2923 15.819C31.458 15.3731 34.7094 15.7199 37.4188 16.8096C38.1603 17.1069 39.3296 17.7013 39.4722 17.8499C39.5294 17.8995 39.6149 18.2214 39.672 18.5434C39.8716 19.7075 39.786 20.5743 39.3581 21.2431C39.13 21.6146 39.13 21.7137 39.2726 22.0356C39.3867 22.2833 39.729 22.4568 40.0427 22.4568C40.7272 22.4568 41.4402 21.5155 41.7825 20.2028L41.9251 19.6827L42.1817 19.9304C43.6363 21.3422 44.7771 23.2988 44.9482 24.6858L45.0052 25.0574L44.7485 24.7353C44.3208 24.1657 43.9215 23.7942 43.3796 23.4722C42.4099 22.9025 41.3832 22.7292 38.6737 22.6053C36.221 22.4815 34.8234 22.3081 33.4544 21.9118C31.1158 21.2431 29.918 20.3763 27.1514 17.1812C25.925 15.7694 25.155 15.0016 24.385 14.3577C22.7023 12.9459 21.0195 12.2028 18.8235 11.9057Z" fill="#FF007A"/>
<path d="M40.0712 15.0511C40.1282 14.11 40.2708 13.4907 40.5847 12.9211C40.6987 12.6982 40.8128 12.5 40.8413 12.5C40.8698 12.5 40.8128 12.6734 40.7272 12.8715C40.4991 13.4164 40.4706 14.1842 40.6132 15.0511C40.8128 16.1656 40.8984 16.3143 42.2673 17.5279C42.8948 18.0975 43.6363 18.8158 43.9215 19.113L44.4064 19.6579L43.9215 19.2616C43.3226 18.7663 41.9536 17.8251 41.6399 17.7013C41.4402 17.6022 41.4117 17.6022 41.2691 17.726C41.155 17.8251 41.1265 17.9737 41.1265 18.692C41.098 19.8065 40.9269 20.5001 40.4991 21.2183C40.2708 21.5898 40.2423 21.5155 40.4421 21.0944C40.5847 20.7725 40.6132 20.6239 40.6132 19.5588C40.6132 17.4041 40.3279 16.8839 38.5882 16.017C38.1603 15.7942 37.4188 15.4722 36.9911 15.2988C36.5347 15.1254 36.1924 14.9768 36.2209 14.9768C36.278 14.9273 37.9607 15.3483 38.6167 15.596C39.6149 15.9428 39.786 15.9675 39.9001 15.9428C39.9856 15.8684 40.0427 15.6703 40.0712 15.0511ZM19.9929 18.7415C18.795 17.305 18.025 15.0759 18.1961 13.4164L18.2531 12.8963L18.5383 12.9459C19.0517 13.0201 19.9359 13.3174 20.3636 13.5403C21.5045 14.1347 22.0179 14.952 22.5027 16.983C22.6453 17.5774 22.8449 18.271 22.9305 18.4938C23.0732 18.8653 23.615 19.7323 24.0713 20.2771C24.385 20.6734 24.1854 20.8715 23.4724 20.822C22.3886 20.7229 20.934 19.8561 19.9929 18.7415ZM38.6167 29.5155C32.9697 27.5341 30.9732 25.8251 30.9732 22.9273C30.9732 22.5062 31.0018 22.1594 31.0018 22.1594C31.0303 22.1594 31.2299 22.3081 31.4866 22.4815C32.6273 23.274 33.9108 23.6208 37.4759 24.0666C39.5579 24.339 40.7557 24.5372 41.8395 24.8592C45.2905 25.8499 47.4295 27.8808 47.9428 30.63C48.0854 31.4226 47.9999 32.9335 47.7717 33.726C47.5721 34.3453 47.0017 35.4845 46.8591 35.5093C46.8306 35.5093 46.7736 35.3855 46.7736 35.1873C46.7165 34.1471 46.1175 33.1564 45.1194 32.3886C43.9215 31.4969 42.3813 30.8282 38.6167 29.5155ZM34.6238 30.3328C34.5668 29.9613 34.4242 29.4908 34.3386 29.2926L34.196 28.9211L34.4527 29.1935C34.8235 29.565 35.1087 30.0109 35.3654 30.63C35.565 31.1007 35.565 31.2493 35.565 32.0171C35.565 32.7601 35.5365 32.9335 35.3654 33.3545C35.0802 34.0232 34.738 34.4938 34.1675 35.014C33.1408 35.9304 31.8003 36.4258 29.8895 36.6486C29.5472 36.6734 28.5775 36.7477 27.7219 36.7973C25.5829 36.8963 24.1568 37.0945 22.8734 37.4907C22.7023 37.5402 22.5312 37.5898 22.5026 37.565C22.4456 37.5155 23.3298 37.0697 24.0428 36.7724C25.0409 36.3514 26.0677 36.1285 28.3208 35.7818C29.4332 35.6332 30.5739 35.435 30.8592 35.3359C33.6827 34.5681 35.0802 32.661 34.6238 30.3328Z" fill="#FF007A"/>
<path d="M37.2192 34.3206C36.4777 32.9089 36.3065 31.5714 36.7058 30.3082C36.7629 30.1844 36.8199 30.0605 36.8769 30.0605C36.934 30.0605 37.1051 30.1348 37.2762 30.2339C37.6184 30.4321 38.3314 30.7788 40.1567 31.6457C42.467 32.7354 43.7788 33.5776 44.6915 34.5435C45.4901 35.3856 45.9749 36.3515 46.2032 37.5404C46.3457 38.2091 46.2602 39.8191 46.0606 40.4878C45.433 42.593 44.007 44.2773 41.925 45.2432C41.6113 45.3918 41.3546 45.4909 41.3261 45.4909C41.2976 45.4909 41.4117 45.2432 41.5828 44.946C42.2672 43.6828 42.3529 42.4692 41.8394 41.107C41.5257 40.2649 40.8698 39.2494 39.5578 37.5404C37.9892 35.559 37.6184 35.0389 37.2192 34.3206ZM15.9715 41.8996C18.082 40.364 20.6773 39.2742 23.0731 38.9274C24.0998 38.7788 25.811 38.8283 26.7521 39.0513C28.2637 39.398 29.6328 40.141 30.3457 41.0574C31.0303 41.9491 31.344 42.7169 31.6577 44.4259C31.7718 45.0946 31.9144 45.788 31.9429 45.9367C32.171 46.8283 32.6275 47.5219 33.1978 47.8934C34.0819 48.463 35.622 48.4878 37.1337 47.9924C37.3903 47.9181 37.6185 47.8438 37.6185 47.8685C37.6755 47.9181 36.9055 48.3639 36.3922 48.5869C35.6791 48.9088 35.1087 49.0079 34.3386 49.0079C32.9697 49.0079 31.8003 48.3887 30.8592 47.1503C30.6594 46.9026 30.2602 46.1844 29.9179 45.5156C28.9198 43.5095 28.4063 42.915 27.2371 42.2463C26.2103 41.6766 24.8983 41.5528 23.9001 41.9738C22.5882 42.5187 22.2459 43.9801 23.1586 44.8716C23.5294 45.2432 24.2139 45.5405 24.7842 45.6147C25.8395 45.7385 26.7521 45.0203 26.7521 44.1039C26.7521 43.5095 26.4955 43.1627 25.811 42.8902C24.8984 42.5435 23.9001 42.9398 23.9287 43.7076C23.9287 44.0296 24.0998 44.2277 24.4705 44.3764C24.6987 44.4754 24.6987 44.4754 24.5276 44.4506C23.7005 44.302 23.5009 43.4104 24.1568 42.8407C24.9554 42.1473 26.6381 42.4445 27.2085 43.4104C27.4367 43.8066 27.4652 44.5992 27.2656 45.0946C26.7808 46.1844 25.4117 46.754 24.0142 46.432C23.0731 46.2092 22.6737 45.9862 21.533 44.9707C19.5365 43.1875 18.7664 42.8407 15.9144 42.4692L15.3726 42.3949L15.9715 41.8996Z" fill="#FF007A"/>
<path fill-rule="evenodd" clip-rule="evenodd" d="M0.969744 2.04842C7.61501 9.0577 17.8539 19.9555 18.3673 20.55C18.795 21.0453 18.6239 21.5159 17.9109 21.8626C17.5116 22.0608 16.6845 22.2589 16.2853 22.2589C15.829 22.2589 15.287 22.0608 14.9163 21.7388C14.6596 21.5159 13.5472 20.1042 11.0375 16.711C9.1266 14.1104 7.50094 11.9555 7.47241 11.9308C7.35833 11.8813 7.35833 11.8813 10.8378 17.2806C13.0339 20.6738 13.7469 21.8874 13.7469 22.036C13.7469 22.358 13.6328 22.5314 13.1765 22.9772C12.4065 23.7202 12.0643 24.5624 11.8075 26.3208C11.5223 28.2775 10.7523 29.6645 8.55619 32.0175C7.27277 33.4045 7.07312 33.6521 6.7594 34.2218C6.36012 34.9153 6.24603 35.3116 6.18899 36.2032C6.13195 37.1444 6.24603 37.7388 6.55976 38.6305C6.84496 39.4231 7.15869 39.9432 7.92874 40.9586C8.58471 41.8502 8.984 42.519 8.984 42.7667C8.984 42.9648 9.04103 42.9648 10.0678 42.7667C12.5206 42.2714 14.5455 41.4292 15.6577 40.389C16.3423 39.745 16.5134 39.3983 16.5134 38.5066C16.5134 37.9369 16.4849 37.8131 16.3138 37.4664C16.0286 36.9215 15.4866 36.4757 14.3174 35.7822C12.7772 34.8658 12.1213 34.1227 11.9501 33.132C11.8075 32.2899 11.9786 31.7203 12.8343 30.1599C13.7184 28.5499 13.9465 27.8812 14.0892 26.2466C14.1748 25.2063 14.3174 24.7852 14.6596 24.4633C15.0303 24.1165 15.344 23.9927 16.2282 23.8937C17.6827 23.7202 18.6239 23.3983 19.3654 22.7791C20.0215 22.2589 20.3066 21.7388 20.3352 20.971L20.3637 20.4014L19.9929 20.0546C18.6524 18.7171 0.0856098 0.983398 4.79033e-05 0.983398C-0.0284726 0.983398 0.427855 1.45399 0.969744 2.04842ZM9.72553 37.2682C10.0393 36.7977 9.86813 36.2032 9.35476 35.906C8.86992 35.6336 8.12839 35.7574 8.12839 36.1289C8.12839 36.228 8.18542 36.3271 8.35655 36.3766C8.61323 36.5004 8.64175 36.6242 8.4421 36.8967C8.24246 37.1691 8.24246 37.4168 8.49915 37.5902C8.89844 37.8627 9.44033 37.7141 9.72553 37.2682ZM21.2763 24.2403C20.5919 24.4138 19.9359 25.0577 19.7363 25.7017C19.6221 26.098 19.6793 26.8162 19.8789 27.0392C20.1926 27.3858 20.4778 27.4849 21.2763 27.4849C22.845 27.4849 24.1855 26.8906 24.3281 26.1722C24.4707 25.5779 23.8718 24.7605 23.0446 24.3889C22.6168 24.1908 21.7327 24.1165 21.2763 24.2403ZM23.1016 25.4788C23.3298 25.1816 23.2442 24.8596 22.8165 24.6366C22.0464 24.2156 20.8771 24.5624 20.8771 25.2063C20.8771 25.5283 21.476 25.8751 22.0464 25.8751C22.4172 25.8751 22.9305 25.6769 23.1016 25.4788Z" fill="#FF007A"/>
</g>
</svg>
