<svg width="145" height="36" viewBox="0 0 145 36" fill="none" xmlns="http://www.w3.org/2000/svg">
<g clip-path="url(#clip0_91_7236)">
<path fill-rule="evenodd" clip-rule="evenodd" d="M36.7762 17.9284C36.7762 27.8637 28.7832 35.8567 18.8478 35.8567C8.91244 35.8567 0.919434 27.8637 0.919434 17.9284C0.919434 7.99301 8.91244 0 18.8478 0C28.7832 0 36.7762 7.99301 36.7762 17.9284ZM15.038 28.6107C9.2113 26.5192 6.22318 20.0201 8.38964 14.268C9.51016 11.1305 11.9753 8.74014 15.038 7.61961C15.3369 7.47027 15.4863 7.24617 15.4863 6.87254V5.82678C15.4863 5.52791 15.3369 5.30381 15.038 5.22922C14.9633 5.22922 14.8139 5.22922 14.7392 5.30381C7.64257 7.54485 3.75802 15.0898 5.99907 22.1864C7.3437 26.3696 10.556 29.5819 14.7392 30.9265C15.038 31.0758 15.3369 30.9265 15.4115 30.6276C15.4863 30.5531 15.4863 30.4783 15.4863 30.3289V29.283C15.4863 29.0589 15.2622 28.7602 15.038 28.6107ZM22.9565 5.30381C22.6576 5.15446 22.3587 5.30381 22.2842 5.60267C22.2094 5.67743 22.2094 5.75202 22.2094 5.90154V6.9473C22.2094 7.24617 22.4335 7.54485 22.6576 7.69438C28.4843 9.7859 31.4724 16.2849 29.306 22.0371C28.1855 25.1745 25.7203 27.5649 22.6576 28.6855C22.3587 28.8348 22.2094 29.0589 22.2094 29.4325V30.4783C22.2094 30.7772 22.3587 31.0013 22.6576 31.0758C22.7324 31.0758 22.8817 31.0758 22.9565 31.0013C30.0531 28.7602 33.9376 21.2152 31.6966 14.1187C30.3519 9.86066 27.0649 6.64843 22.9565 5.30381ZM23.7782 20.7674C23.7782 18.1529 22.2094 17.2565 19.072 16.8831C16.8309 16.5842 16.3827 15.9866 16.3827 14.9407C16.3827 13.8948 17.1298 13.2226 18.6238 13.2226C19.9684 13.2226 20.7155 13.6708 21.0889 14.7914C21.1637 15.0155 21.3878 15.1648 21.6119 15.1648H22.807C23.1058 15.1648 23.33 14.9407 23.33 14.642V14.5673C23.0311 12.9238 21.6865 11.6539 19.9684 11.5046V9.71172C19.9684 9.41285 19.7443 9.18875 19.3708 9.11399H18.2503C17.9514 9.11399 17.7273 9.33809 17.6526 9.71172V11.4298C15.4115 11.7287 13.9923 13.2226 13.9923 15.0902C13.9923 17.5554 15.4863 18.5264 18.6238 18.9C20.7155 19.2735 21.3878 19.7217 21.3878 20.917C21.3878 22.1122 20.3418 22.9339 18.9226 22.9339C16.9803 22.9339 16.3079 22.1121 16.0838 20.9915C16.0093 20.6928 15.7852 20.5433 15.561 20.5433H14.291C13.9923 20.5433 13.7682 20.7674 13.7682 21.0663V21.1411C14.0669 23.0085 15.2622 24.3531 17.7273 24.7267V26.5196C17.7273 26.8183 17.9514 27.0424 18.3249 27.1171H19.4454C19.7443 27.1171 19.9684 26.893 20.0431 26.5196V24.7267C22.2842 24.3531 23.7782 22.7844 23.7782 20.7674Z" fill="white"/>
<path d="M52.2046 24.8424C51.0018 24.8424 49.9829 24.6425 49.1481 24.2427C48.3273 23.8429 47.6623 23.2984 47.1529 22.6091C46.6576 21.9198 46.2897 21.134 46.0491 20.2517C45.8227 19.3694 45.7095 18.4526 45.7095 17.5014V10.0571H48.0868V17.5014C48.0868 18.1769 48.1575 18.8318 48.299 19.4659C48.4405 20.0863 48.667 20.6446 48.9783 21.1409C49.2896 21.6372 49.707 22.0301 50.2306 22.3196C50.7683 22.6091 51.4263 22.7538 52.2046 22.7538C52.997 22.7538 53.655 22.6091 54.1786 22.3196C54.7163 22.0163 55.1337 21.6165 55.4309 21.1202C55.7422 20.6101 55.9686 20.0449 56.1101 19.4245C56.2516 18.8042 56.3224 18.1631 56.3224 17.5014V10.0571H58.7209V17.5014C58.7209 18.5078 58.5935 19.459 58.3388 20.3551C58.0982 21.2374 57.7162 22.0163 57.1926 22.6918C56.6832 23.3535 56.0181 23.8774 55.1974 24.2634C54.3767 24.6494 53.3791 24.8424 52.2046 24.8424Z" fill="white"/>
<path d="M70.7973 13.5103C70.6558 13.3587 70.4506 13.2002 70.1818 13.0347C69.9129 12.8555 69.5945 12.6901 69.2266 12.5384C68.8587 12.3868 68.4625 12.2627 68.038 12.1662C67.6134 12.0697 67.1748 12.0215 66.722 12.0215C65.7314 12.0215 64.9956 12.2007 64.5145 12.5591C64.0334 12.9176 63.7928 13.4138 63.7928 14.048C63.7928 14.5167 63.9272 14.8889 64.1961 15.1646C64.465 15.4266 64.8753 15.6471 65.4272 15.8264C65.9791 16.0056 66.6724 16.1986 67.5073 16.4054C68.5261 16.6397 69.4106 16.9223 70.1605 17.2532C70.9105 17.5703 71.4836 17.9976 71.8798 18.5353C72.276 19.0729 72.4741 19.7829 72.4741 20.6652C72.4741 21.4096 72.3326 22.0506 72.0496 22.5883C71.7666 23.1259 71.3704 23.5671 70.861 23.9117C70.3516 24.2426 69.7643 24.4907 69.0992 24.6562C68.4342 24.8078 67.7196 24.8836 66.9554 24.8836C66.2055 24.8836 65.4555 24.8078 64.7055 24.6562C63.9697 24.5045 63.2622 24.2839 62.5829 23.9944C61.9179 23.6911 61.3023 23.3258 60.7363 22.8985L61.8188 20.9133C62.0028 21.0925 62.2646 21.2924 62.6042 21.513C62.9579 21.7198 63.3612 21.9197 63.814 22.1127C64.281 22.3057 64.7833 22.4711 65.3211 22.609C65.8729 22.733 66.4319 22.7951 66.9979 22.7951C67.946 22.7951 68.6677 22.6365 69.1629 22.3195C69.6723 21.9886 69.927 21.5199 69.927 20.9133C69.927 20.417 69.7643 20.0241 69.4389 19.7346C69.1134 19.4313 68.6394 19.1763 68.0167 18.9695C67.3941 18.7627 66.6512 18.5559 65.788 18.3492C64.7975 18.0872 63.9697 17.8046 63.3046 17.5013C62.6396 17.1843 62.1372 16.7845 61.7976 16.302C61.4721 15.8057 61.3094 15.1784 61.3094 14.4202C61.3094 13.4552 61.55 12.6418 62.0311 11.9801C62.5122 11.3046 63.1631 10.8014 63.9838 10.4706C64.8187 10.1259 65.7527 9.95361 66.7856 9.95361C67.4649 9.95361 68.1087 10.0294 68.7172 10.1811C69.3256 10.3189 69.8917 10.5119 70.4152 10.7601C70.953 11.0082 71.4411 11.2908 71.8798 11.6079L70.7973 13.5103Z" fill="white"/>
<path d="M74.8584 24.739V10.0571H80.2073C81.8346 10.0571 83.193 10.388 84.2826 11.0497C85.3722 11.6976 86.1858 12.5799 86.7235 13.6966C87.2754 14.7994 87.5513 16.0264 87.5513 17.3774C87.5513 18.8662 87.2471 20.1621 86.6386 21.2649C86.0443 22.3678 85.1953 23.2225 84.0916 23.8291C82.9878 24.4357 81.6931 24.739 80.2073 24.739H74.8584ZM85.1316 17.3774C85.1316 16.3434 84.9335 15.4336 84.5373 14.6478C84.1552 13.8482 83.5963 13.2278 82.8605 12.7867C82.1388 12.3318 81.2544 12.1043 80.2073 12.1043H77.2357V22.6918H80.2073C81.2685 22.6918 82.16 22.4574 82.8817 21.9887C83.6175 21.52 84.1765 20.8858 84.5585 20.0863C84.9406 19.2867 85.1316 18.3837 85.1316 17.3774Z" fill="white"/>
<path d="M94.3413 17.2943C94.3413 16.3983 94.504 15.5229 94.8294 14.6682C95.1549 13.7996 95.6289 13.0139 96.2516 12.3108C96.8883 11.5939 97.6595 11.0287 98.5652 10.6151C99.4708 10.1878 100.497 9.97412 101.643 9.97412C103.001 9.97412 104.176 10.2774 105.166 10.884C106.157 11.4767 106.893 12.2419 107.374 13.1793L105.506 14.3993C105.223 13.8065 104.862 13.3378 104.423 12.9932C103.999 12.6485 103.532 12.4073 103.022 12.2694C102.527 12.1316 102.039 12.0626 101.558 12.0626C100.765 12.0626 100.072 12.2212 99.4779 12.5382C98.8836 12.8415 98.3812 13.2482 97.9709 13.7583C97.5746 14.2684 97.2704 14.8405 97.0581 15.4746C96.86 16.1088 96.761 16.7429 96.761 17.3771C96.761 18.0801 96.8813 18.7625 97.1218 19.4242C97.3624 20.0722 97.6949 20.6512 98.1194 21.1613C98.5581 21.6575 99.0746 22.0504 99.6689 22.3399C100.263 22.6294 100.914 22.7742 101.622 22.7742C102.103 22.7742 102.605 22.6915 103.129 22.526C103.652 22.3606 104.133 22.1056 104.572 21.7609C105.025 21.4025 105.379 20.9338 105.633 20.3548L107.607 21.4508C107.296 22.1814 106.808 22.8018 106.143 23.3118C105.492 23.8219 104.756 24.2079 103.935 24.4698C103.129 24.7318 102.329 24.8627 101.537 24.8627C100.476 24.8627 99.5062 24.6491 98.6288 24.2217C97.7515 23.7806 96.9945 23.2016 96.3577 22.4847C95.7209 21.754 95.2257 20.9407 94.8719 20.0446C94.5181 19.1347 94.3413 18.218 94.3413 17.2943Z" fill="white"/>
<path d="M115.881 24.8423C114.792 24.8423 113.808 24.6355 112.931 24.2219C112.053 23.8083 111.296 23.25 110.66 22.5469C110.023 21.8301 109.528 21.0305 109.174 20.1482C108.834 19.2521 108.664 18.3354 108.664 17.3979C108.664 16.4191 108.848 15.4886 109.216 14.6063C109.584 13.7102 110.094 12.9176 110.744 12.2283C111.395 11.5252 112.16 10.9738 113.037 10.574C113.928 10.1604 114.891 9.95361 115.924 9.95361C116.999 9.95361 117.975 10.1673 118.853 10.5947C119.744 11.022 120.501 11.5941 121.124 12.311C121.761 13.0278 122.249 13.8274 122.588 14.7097C122.942 15.592 123.119 16.495 123.119 17.4186C123.119 18.3974 122.935 19.3348 122.567 20.2309C122.213 21.1132 121.711 21.9059 121.06 22.609C120.409 23.2983 119.638 23.8428 118.747 24.2426C117.869 24.6424 116.914 24.8423 115.881 24.8423ZM111.084 17.3979C111.084 18.0872 111.197 18.7558 111.424 19.4038C111.65 20.0517 111.968 20.6307 112.379 21.1408C112.803 21.6371 113.313 22.03 113.907 22.3195C114.501 22.609 115.167 22.7537 115.902 22.7537C116.666 22.7537 117.346 22.6021 117.94 22.2988C118.534 21.9955 119.03 21.5888 119.426 21.0787C119.836 20.5549 120.147 19.9759 120.36 19.3417C120.572 18.6938 120.678 18.0459 120.678 17.3979C120.678 16.7086 120.565 16.0469 120.339 15.4128C120.126 14.7649 119.808 14.1927 119.383 13.6965C118.959 13.1864 118.449 12.7866 117.855 12.4971C117.275 12.2076 116.624 12.0628 115.902 12.0628C115.138 12.0628 114.459 12.2145 113.865 12.5178C113.27 12.8211 112.768 13.2277 112.358 13.7378C111.947 14.2479 111.629 14.82 111.402 15.4541C111.19 16.0883 111.084 16.7362 111.084 17.3979Z" fill="white"/>
<path d="M125.58 24.739V10.0571H127.958V24.739H125.58Z" fill="white"/>
<path d="M133.741 14.3583V24.739H131.363V10.0571H133.316L141.849 20.6653V10.0778H144.247V24.739H142.167L133.741 14.3583Z" fill="white"/>
</g>
<defs>
<clipPath id="clip0_91_7236">
<rect width="144" height="36" fill="white" transform="translate(0.544189)"/>
</clipPath>
</defs>
</svg>
