<svg width="61" height="42" viewBox="0 0 61 42" fill="none" xmlns="http://www.w3.org/2000/svg">
<path d="M27.0151 31.8359L24.157 30.9243L24.1534 30.9355L24.1499 30.9467L27.0151 31.8359ZM24.2222 36.9922L21.9864 34.9918L21.9791 35L21.9718 35.0083L24.2222 36.9922ZM9.9082 40.4028L9.02595 43.2702L9.0428 43.2754L9.05971 43.2803L9.9082 40.4028ZM6.12158 38.4692L4.26142 40.8229L4.28229 40.8394L4.30345 40.8555L6.12158 38.4692ZM1.39502 30.5737L-1.52215 31.2739L-1.52053 31.2805L1.39502 30.5737ZM1.71729 10.0293L-1.14084 9.11765L-1.1433 9.12535L-1.14571 9.13305L1.71729 10.0293ZM18.8511 1.48926L17.9584 4.35336L17.9804 4.36023L18.0026 4.36677L18.8511 1.48926ZM22.6377 3.42285L20.7959 5.79091L20.8077 5.80009L20.8196 5.80915L22.6377 3.42285ZM25.5112 6.67236L22.9419 8.22102L22.9496 8.23385L22.9575 8.24661L25.5112 6.67236ZM27.3643 11.3184L24.4471 12.0185L24.4487 12.0252L27.3643 11.3184ZM18.7437 12.9297L15.7705 13.3299L15.7742 13.3579L15.7785 13.3859L18.7437 12.9297ZM18.1528 10.5664L15.3568 11.6537L15.3698 11.6872L15.3836 11.7203L18.1528 10.5664ZM17.2129 9.00879L14.9974 11.0316L15.0199 11.0562L15.0428 11.0802L17.2129 9.00879ZM15.9238 8.12256L14.7549 10.8855L14.8178 10.9121L14.8819 10.9358L15.9238 8.12256ZM12.4326 8.28369L13.8085 10.9496L13.8244 10.9414L13.8401 10.933L12.4326 8.28369ZM10.0962 12.2583L7.15445 11.67L7.14972 11.6936L7.14537 11.7173L10.0962 12.2583ZM9.98877 28.9355L7.0146 29.3284L7.01879 29.3601L7.02365 29.3917L9.98877 28.9355ZM10.5796 31.3257L7.77373 32.3874L7.79128 32.4337L7.81036 32.4795L10.5796 31.3257ZM11.5464 32.9102L9.33093 34.933L9.35336 34.9575L9.37632 34.9816L11.5464 32.9102ZM12.8354 33.7695L11.7935 36.5828L12.8354 33.7695ZM16.2998 33.6084L17.6757 36.2743L16.2998 33.6084ZM17.7231 32.2119L15.1753 30.6281L15.1693 30.6378L15.1633 30.6476L17.7231 32.2119ZM18.6362 29.6069L15.6926 29.0279L15.6889 29.0469L15.6854 29.066L18.6362 29.6069ZM25.0088 17.3608V24.5044H31.0088V17.3608H25.0088ZM25.0088 24.5044C25.0088 27.0905 24.7028 29.2133 24.157 30.9243L29.8733 32.7476C30.6524 30.3049 31.0088 27.54 31.0088 24.5044H25.0088ZM24.1499 30.9467C23.609 32.6898 22.8672 34.0075 21.9864 34.9918L26.4579 38.9926C28.0121 37.2556 29.1322 35.1358 29.8803 32.7251L24.1499 30.9467ZM21.9718 35.0083C21.0803 36.0196 20.0374 36.7535 18.8163 37.2394L21.0343 42.8143C23.1432 41.9753 24.965 40.6861 26.4725 38.9761L21.9718 35.0083ZM18.8163 37.2394C17.5437 37.7457 16.0904 38.0205 14.4199 38.0205V44.0205C16.7599 44.0205 18.9768 43.6329 21.0343 42.8143L18.8163 37.2394ZM14.4199 38.0205C13.0655 38.0205 11.85 37.8477 10.7567 37.5253L9.05971 43.2803C10.7593 43.7815 12.5517 44.0205 14.4199 44.0205V38.0205ZM10.7905 37.5355C9.72141 37.2066 8.77791 36.7216 7.93971 36.0829L4.30345 40.8555C5.72111 41.9357 7.30203 42.7397 9.02595 43.2702L10.7905 37.5355ZM7.98175 36.1156C7.16919 35.4734 6.43927 34.6527 5.80182 33.6186L0.694274 36.7671C1.66815 38.347 2.85392 39.7105 4.26142 40.8229L7.98175 36.1156ZM5.80182 33.6186C5.18927 32.6249 4.67954 31.3889 4.31057 29.8669L-1.52053 31.2805C-1.03013 33.3034 -0.304508 35.1469 0.694274 36.7671L5.80182 33.6186ZM4.31218 29.8736C3.94821 28.3571 3.75049 26.5751 3.75049 24.5044H-2.24951C-2.24951 26.9454 -2.01755 29.2097 -1.52214 31.2738L4.31218 29.8736ZM3.75049 24.5044V17.3608H-2.24951V24.5044H3.75049ZM3.75049 17.3608C3.75049 14.7472 4.04976 12.6203 4.58028 10.9255L-1.14571 9.13305C-1.90425 11.5562 -2.24951 14.317 -2.24951 17.3608H3.75049ZM4.57541 10.9409C5.13392 9.18996 5.88648 7.86406 6.77283 6.87343L2.30139 2.87266C0.75284 4.60339 -0.374477 6.71499 -1.14084 9.11765L4.57541 10.9409ZM6.77283 6.87343C7.68674 5.85201 8.74459 5.11334 9.96984 4.62587L7.75184 -0.949113C5.64701 -0.111708 3.82238 1.17273 2.30139 2.87266L6.77283 6.87343ZM9.96984 4.62587C11.2424 4.11958 12.6957 3.84473 14.3662 3.84473V-2.15527C12.0263 -2.15527 9.80934 -1.76769 7.75184 -0.949113L9.96984 4.62587ZM14.3662 3.84473C15.7095 3.84473 16.9001 4.02351 17.9584 4.35336L19.7438 -1.37484C18.0449 -1.90437 16.2456 -2.15527 14.3662 -2.15527V3.84473ZM18.0026 4.36677C19.0459 4.67443 19.9699 5.14851 20.7959 5.79091L24.4795 1.05479C23.0496 -0.0573624 21.4492 -0.872344 19.6996 -1.38825L18.0026 4.36677ZM20.8196 5.80915C21.6242 6.42222 22.3345 7.21327 22.9419 8.22102L28.0806 5.1237C27.1125 3.51752 25.907 2.14223 24.4558 1.03656L20.8196 5.80915ZM22.9575 8.24661C23.5671 9.23562 24.0772 10.4773 24.4471 12.0185L30.2814 10.6182C29.7919 8.57869 29.0667 6.72304 28.065 5.09812L22.9575 8.24661ZM24.4487 12.0252C24.8109 13.5193 25.0088 15.2894 25.0088 17.3608H31.0088C31.0088 14.9205 30.777 12.6623 30.2798 10.6116L24.4487 12.0252ZM21.9585 25.6055V16.2061H15.9585V25.6055H21.9585ZM21.9585 16.2061C21.9585 14.8467 21.8814 13.5954 21.7088 12.4735L15.7785 13.3859C15.8924 14.126 15.9585 15.0589 15.9585 16.2061H21.9585ZM21.7168 12.5295C21.5678 11.4224 21.3189 10.365 20.9221 9.41256L15.3836 11.7203C15.5239 12.0569 15.6688 12.575 15.7705 13.3299L21.7168 12.5295ZM20.9488 9.47907C20.5928 8.5636 20.0924 7.68054 19.383 6.93736L15.0428 11.0802C15.0854 11.1248 15.2115 11.2801 15.3568 11.6537L20.9488 9.47907ZM19.4283 6.98598C18.7568 6.25044 17.9338 5.66784 16.9658 5.30931L14.8819 10.9358C14.8884 10.9382 14.8961 10.9416 14.9091 10.9505C14.9228 10.96 14.9531 10.983 14.9974 11.0316L19.4283 6.98598ZM17.0927 5.35966C16.2112 4.98669 15.2873 4.82715 14.3662 4.82715V10.8271C14.591 10.8271 14.7055 10.8645 14.7549 10.8855L17.0927 5.35966ZM14.3662 4.82715C13.2113 4.82715 12.0752 5.07653 11.0252 5.63434L13.8401 10.933C13.9359 10.8821 14.0889 10.8271 14.3662 10.8271V4.82715ZM11.0567 5.61783C9.92042 6.20429 9.06954 7.10111 8.44943 8.11583L13.5691 11.2445C13.6546 11.1047 13.7224 11.0275 13.7615 10.9891C13.7984 10.9529 13.8142 10.9466 13.8085 10.9496L11.0567 5.61783ZM8.44943 8.11583C7.80929 9.16334 7.40999 10.3922 7.15445 11.67L13.0379 12.8466C13.2121 11.9759 13.4215 11.4861 13.5691 11.2445L8.44943 8.11583ZM7.14537 11.7173C6.90516 13.0276 6.80078 14.5368 6.80078 16.2061H12.8008C12.8008 14.7601 12.8933 13.6375 13.047 12.7993L7.14537 11.7173ZM6.80078 16.2061V25.6055H12.8008V16.2061H6.80078ZM6.80078 25.6055C6.80078 26.9682 6.86755 28.215 7.0146 29.3284L12.9629 28.5427C12.8593 27.7583 12.8008 26.785 12.8008 25.6055H6.80078ZM7.02365 29.3917C7.18898 30.4663 7.42937 31.4773 7.77373 32.3874L13.3854 30.264C13.2285 29.8492 13.075 29.2668 12.9539 28.4794L7.02365 29.3917ZM7.81036 32.4795C8.17982 33.3662 8.67118 34.2104 9.33093 34.933L13.7618 30.8873C13.6696 30.7864 13.5165 30.5742 13.3488 30.1718L7.81036 32.4795ZM9.37632 34.9816C10.0489 35.6862 10.8586 36.2365 11.7935 36.5828L13.8774 30.9563C13.8455 30.9445 13.7958 30.9219 13.7165 30.8387L9.37632 34.9816ZM11.7935 36.5828C12.6455 36.8983 13.5308 37.0381 14.4199 37.0381V31.0381C14.1632 31.0381 13.9922 30.9988 13.8774 30.9563L11.7935 36.5828ZM14.4199 37.0381C15.5397 37.0381 16.6472 36.8051 17.6757 36.2743L14.9239 30.9425C14.8424 30.9846 14.6966 31.0381 14.4199 31.0381V37.0381ZM17.6757 36.2743C18.812 35.6878 19.6629 34.791 20.283 33.7763L15.1633 30.6476C15.0778 30.7874 15.01 30.8646 14.9709 30.903C14.934 30.9392 14.9182 30.9455 14.9239 30.9425L17.6757 36.2743ZM20.271 33.7957C20.9435 32.7138 21.3475 31.4548 21.587 30.1479L15.6854 29.066C15.5311 29.9075 15.3263 30.3851 15.1753 30.6281L20.271 33.7957ZM21.5798 30.186C21.8441 28.8427 21.9585 27.3022 21.9585 25.6055H15.9585C15.9585 27.0597 15.8581 28.1869 15.6926 29.0279L21.5798 30.186ZM41.0068 17.146V14.146H38.0068V17.146H41.0068ZM48.1772 16.5552L49.623 19.1838L49.634 19.1778L49.645 19.1716L48.1772 16.5552ZM49.8154 14.8364L52.5117 16.1517L52.5179 16.139L52.524 16.1262L49.8154 14.8364ZM49.8423 10.0024L47.1446 11.3148L47.1588 11.344L47.1736 11.3729L49.8423 10.0024ZM48.3384 8.41797L46.785 10.9845L46.81 10.9996L46.8353 11.0142L48.3384 8.41797ZM43.6387 8.25684L44.8028 11.0217L44.8335 11.0089L44.8638 10.9953L43.6387 8.25684ZM41.9468 9.49219L39.6421 7.57163L39.6229 7.59468L39.6042 7.6181L41.9468 9.49219ZM41.3022 11.4526V14.4526H44.3022V11.4526H41.3022ZM32.2251 11.4526H29.2251V14.4526H32.2251V11.4526ZM34.0513 5.75928L31.6803 3.92114L31.6774 3.92493L34.0513 5.75928ZM38.9121 2.10693L40.073 4.87326L40.085 4.86815L38.9121 2.10693ZM52.7427 2.10693L51.604 4.88244L51.6142 4.88662L51.6244 4.89072L52.7427 2.10693ZM57.6304 5.8667L55.1714 7.58531L55.182 7.60043L55.1928 7.61542L57.6304 5.8667ZM58.4629 15.7764L61.1133 17.1819L58.4629 15.7764ZM51.8564 21.0132L52.8051 23.8592L52.8152 23.8559L52.8251 23.8525L51.8564 21.0132ZM41.0068 21.7651H38.0068V24.7651H41.0068V21.7651ZM41.0068 23.8867H38.0068V26.8867H41.0068V23.8867ZM41.0068 19.375V16.375H38.0068V19.375H41.0068ZM52.2593 20.0464L51.4563 22.9369L51.4713 22.9411L51.4863 22.9451L52.2593 20.0464ZM59.1074 25.1758L56.4166 26.5022L56.4203 26.5098L56.4241 26.5174L59.1074 25.1758ZM58.9463 34.3872L56.2765 33.0189L58.9463 34.3872ZM55.8579 38.0127L54.0683 35.6049L55.8579 38.0127ZM51.2119 40.2686L52.0284 43.1553L52.0418 43.1515L52.0553 43.1476L51.2119 40.2686ZM40.5503 40.376L39.7556 43.2688L39.7704 43.2729L39.7852 43.2768L40.5503 40.376ZM36.0923 38.335L34.3829 40.8004L34.3941 40.8081L34.4054 40.8157L36.0923 38.335ZM32.8428 34.79L30.2203 36.247L30.231 36.2663L30.2421 36.2855L32.8428 34.79ZM31.6343 29.6069V26.6069H28.6343V29.6069H31.6343ZM40.7114 29.6069H43.7114V26.6069H40.7114V29.6069ZM41.3828 31.8628L38.8766 33.5116L38.9018 33.55L38.9282 33.5876L41.3828 31.8628ZM43.2358 33.4473L41.8694 36.118L43.2358 33.4473ZM48.5532 33.4204L49.9682 36.0658L49.979 36.06L49.9898 36.0541L48.5532 33.4204ZM50.2988 26.1426L47.6651 27.5791L47.6776 27.602L47.6905 27.6246L50.2988 26.1426ZM48.3921 24.4238L47.1959 27.175L47.2066 27.1797L47.2174 27.1843L48.3921 24.4238ZM41.0068 20.146H45.4111V14.146H41.0068V20.146ZM45.4111 20.146C46.8618 20.146 48.3275 19.8964 49.623 19.1838L46.7315 13.9265C46.5947 14.0017 46.2163 14.146 45.4111 14.146V20.146ZM49.645 19.1716C50.8941 18.4709 51.8775 17.4519 52.5117 16.1517L47.1191 13.5212C47.0372 13.689 46.9285 13.8159 46.7095 13.9387L49.645 19.1716ZM52.524 16.1262C53.1122 14.891 53.3525 13.546 53.3525 12.1777H47.3525C47.3525 12.8505 47.2348 13.278 47.1068 13.5466L52.524 16.1262ZM53.3525 12.1777C53.3525 10.9417 53.0815 9.743 52.511 8.63203L47.1736 11.3729C47.2834 11.5868 47.3525 11.8382 47.3525 12.1777H53.3525ZM52.54 8.69004C51.9384 7.45349 51.0025 6.49385 49.8415 5.82169L46.8353 11.0142C47.0349 11.1298 47.1016 11.2265 47.1446 11.3148L52.54 8.69004ZM49.8918 5.85147C48.6131 5.07752 47.1626 4.80029 45.7334 4.80029V10.8003C46.4168 10.8003 46.703 10.9349 46.785 10.9845L49.8918 5.85147ZM45.7334 4.80029C44.5778 4.80029 43.4633 5.04879 42.4136 5.51838L44.8638 10.9953C45.1748 10.8562 45.4567 10.8003 45.7334 10.8003V4.80029ZM42.4745 5.49193C41.3774 5.95388 40.4141 6.6453 39.6421 7.57163L44.2514 11.4127C44.3747 11.2649 44.5393 11.1327 44.8028 11.0217L42.4745 5.49193ZM39.6042 7.6181C38.6981 8.75063 38.3022 10.0876 38.3022 11.4526H44.3022C44.3022 11.3485 44.3164 11.3128 44.3133 11.3221C44.3121 11.3257 44.3089 11.3342 44.303 11.345C44.2972 11.3559 44.2918 11.3633 44.2894 11.3663L39.6042 7.6181ZM41.3022 8.45264H32.2251V14.4526H41.3022V8.45264ZM35.2251 11.4526C35.2251 9.81591 35.6603 8.58345 36.4251 7.59362L31.6774 3.92493C30.0074 6.08615 29.2251 8.64926 29.2251 11.4526H35.2251ZM36.4222 7.59741C37.3162 6.44429 38.5057 5.53091 40.073 4.87323L37.7513 -0.659365C35.3081 0.3659 33.2571 1.88741 31.6803 3.92115L36.4222 7.59741ZM40.085 4.86815C41.7156 4.1755 43.4895 3.81787 45.438 3.81787V-2.18213C42.7316 -2.18213 40.1548 -1.68039 37.7392 -0.654279L40.085 4.86815ZM45.438 3.81787C47.9081 3.81787 49.9422 4.20066 51.604 4.88244L53.8813 -0.668572C51.3537 -1.70554 48.518 -2.18213 45.438 -2.18213V3.81787ZM51.6244 4.89072C53.2406 5.53997 54.3781 6.45029 55.1714 7.58531L60.0893 4.14809C58.5551 1.95303 56.4342 0.356843 53.861 -0.676852L51.6244 4.89072ZM55.1928 7.61542C55.94 8.65709 56.4028 10.0532 56.4028 11.9897H62.4028C62.4028 9.05654 61.684 6.37058 60.068 4.11798L55.1928 7.61542ZM56.4028 11.9897C56.4028 12.8445 56.2086 13.6239 55.8125 14.3709L61.1133 17.1819C61.9704 15.5655 62.4028 13.8205 62.4028 11.9897H56.4028ZM55.8125 14.3709C55.3942 15.1596 54.795 15.8838 53.9661 16.5417L57.696 21.2415C59.1229 20.109 60.2783 18.7564 61.1133 17.1819L55.8125 14.3709ZM53.9661 16.5417C53.1362 17.2004 52.1226 17.7526 50.8877 18.1739L52.8251 23.8525C54.6339 23.2354 56.2701 22.3732 57.696 21.2415L53.9661 16.5417ZM50.9078 18.1671C49.7465 18.5542 48.4241 18.7651 46.915 18.7651V24.7651C48.9867 24.7651 50.9586 24.4748 52.8051 23.8592L50.9078 18.1671ZM46.915 18.7651H41.0068V24.7651H46.915V18.7651ZM44.0068 21.7651V17.146H38.0068V21.7651H44.0068ZM44.0068 23.8867V19.375H38.0068V23.8867H44.0068ZM41.0068 22.375H46.915V16.375H41.0068V22.375ZM46.915 22.375C48.6392 22.375 50.1457 22.5729 51.4563 22.9369L53.0622 17.1558C51.1502 16.6247 49.0939 16.375 46.915 16.375V22.375ZM51.4863 22.9451C52.7887 23.2924 53.8215 23.7891 54.6397 24.3933L58.204 19.5667C56.6948 18.4522 54.9525 17.6598 53.0323 17.1477L51.4863 22.9451ZM54.6397 24.3933C55.4265 24.9743 56.0063 25.6699 56.4166 26.5022L61.7982 23.8493C60.9553 22.1394 59.7447 20.7045 58.204 19.5667L54.6397 24.3933ZM56.4241 26.5174C56.8111 27.2913 57.0474 28.2603 57.0474 29.4995H63.0474C63.0474 27.4803 62.657 25.5668 61.7907 23.8341L56.4241 26.5174ZM57.0474 29.4995C57.0474 30.9145 56.7659 32.0641 56.2765 33.0189L61.6161 35.7555C62.5948 33.8458 63.0474 31.7369 63.0474 29.4995H57.0474ZM56.2765 33.0189C55.7578 34.0311 55.0338 34.8874 54.0683 35.6049L57.6475 40.4205C59.3318 39.1686 60.6667 37.6079 61.6161 35.7555L56.2765 33.0189ZM54.0683 35.6049C53.0603 36.3541 51.8405 36.9584 50.3686 37.3895L52.0553 43.1476C54.1283 42.5403 56.0058 41.6407 57.6475 40.4205L54.0683 35.6049ZM50.3955 37.3818C48.92 37.7991 47.2733 38.0205 45.438 38.0205V44.0205C47.7563 44.0205 49.9589 43.7406 52.0284 43.1553L50.3955 37.3818ZM45.438 38.0205C44.0757 38.0205 42.7035 37.8413 41.3153 37.4752L39.7852 43.2768C41.6556 43.7701 43.5418 44.0205 45.438 44.0205V38.0205ZM41.345 37.4832C40.0208 37.1194 38.8383 36.5744 37.7792 35.8542L34.4054 40.8157C36.0318 41.9217 37.8213 42.7374 39.7556 43.2688L41.345 37.4832ZM37.8016 35.8696C36.8284 35.1948 36.048 34.346 35.4435 33.2946L30.2421 36.2855C31.2847 38.0987 32.6707 39.6132 34.3829 40.8004L37.8016 35.8696ZM35.4652 33.3331C34.954 32.4128 34.6343 31.2082 34.6343 29.6069H28.6343C28.6343 32.016 29.1202 34.2669 30.2203 36.247L35.4652 33.3331ZM31.6343 32.6069H40.7114V26.6069H31.6343V32.6069ZM37.7114 29.6069C37.7114 31.0095 38.103 32.3359 38.8766 33.5116L43.8891 30.2139C43.7674 30.029 43.7114 29.8515 43.7114 29.6069H37.7114ZM38.9282 33.5876C39.6932 34.6762 40.6957 35.5175 41.8694 36.118L44.6023 30.7765C44.2362 30.5892 44.0035 30.3743 43.8374 30.138L38.9282 33.5876ZM41.8694 36.118C43.0774 36.736 44.3804 37.0381 45.7334 37.0381V31.0381C45.2961 31.0381 44.934 30.9463 44.6023 30.7765L41.8694 36.118ZM45.7334 37.0381C47.2063 37.0381 48.6607 36.7651 49.9682 36.0658L47.1383 30.7751C46.9061 30.8993 46.4806 31.0381 45.7334 31.0381V37.0381ZM49.9898 36.0541C51.2197 35.3832 52.2421 34.4338 52.9533 33.1971L47.7518 30.2062C47.6394 30.4018 47.4623 30.5982 47.1167 30.7867L49.9898 36.0541ZM52.9533 33.1971C53.643 31.9976 53.9702 30.6799 53.9702 29.3115H47.9702C47.9702 29.6977 47.8857 29.9734 47.7518 30.2062L52.9533 33.1971ZM53.9702 29.3115C53.9702 27.6913 53.7032 26.0616 52.9072 24.6605L47.6905 27.6246C47.7896 27.7991 47.9702 28.282 47.9702 29.3115H53.9702ZM52.9325 24.706C52.1727 23.3131 51.0168 22.2804 49.5668 21.6634L47.2174 27.1843C47.4503 27.2834 47.5655 27.3965 47.6651 27.5791L52.9325 24.706ZM49.5883 21.6726C48.2933 21.1096 46.8699 20.8867 45.4111 20.8867V26.8867C46.2798 26.8867 46.8437 27.0219 47.1959 27.175L49.5883 21.6726ZM45.4111 20.8867H41.0068V26.8867H45.4111V20.8867Z" fill="white"/>
</svg>
