<svg width="61" height="42" viewBox="0 0 61 42" fill="none" xmlns="http://www.w3.org/2000/svg">
<path d="M26.5742 31.8359L23.7161 30.9243L23.7125 30.9355L23.709 30.9467L26.5742 31.8359ZM23.7812 36.9922L21.5455 34.9918L21.5382 35L21.5309 35.0083L23.7812 36.9922ZM9.46729 40.4028L8.58503 43.2702L8.60188 43.2754L8.61879 43.2803L9.46729 40.4028ZM5.68066 38.4692L3.8205 40.8229L3.84137 40.8394L3.86253 40.8555L5.68066 38.4692ZM0.954102 30.5737L-1.96307 31.2739L-1.96145 31.2805L0.954102 30.5737ZM1.27637 10.0293L-1.58176 9.11765L-1.58422 9.12535L-1.58663 9.13305L1.27637 10.0293ZM18.4102 1.48926L17.5175 4.35336L17.5395 4.36023L17.5617 4.36677L18.4102 1.48926ZM22.1968 3.42285L20.355 5.79091L20.3668 5.80009L20.3786 5.80915L22.1968 3.42285ZM25.0703 6.67236L22.5009 8.22102L22.5087 8.23385L22.5165 8.24661L25.0703 6.67236ZM26.9233 11.3184L24.0062 12.0185L24.0078 12.0252L26.9233 11.3184ZM18.3027 12.9297L15.3296 13.3299L15.3333 13.3579L15.3376 13.3859L18.3027 12.9297ZM17.7119 10.5664L14.9159 11.6537L14.9289 11.6872L14.9427 11.7203L17.7119 10.5664ZM16.772 9.00879L14.5565 11.0316L14.5789 11.0562L14.6019 11.0802L16.772 9.00879ZM15.4829 8.12256L14.314 10.8855L14.3769 10.9121L14.441 10.9358L15.4829 8.12256ZM11.9917 8.28369L13.3676 10.9496L13.3834 10.9414L13.3992 10.933L11.9917 8.28369ZM9.65527 12.2583L6.71353 11.67L6.7088 11.6936L6.70445 11.7173L9.65527 12.2583ZM9.54785 28.9355L6.57368 29.3284L6.57787 29.3601L6.58274 29.3917L9.54785 28.9355ZM10.1387 31.3257L7.33281 32.3874L7.35037 32.4337L7.36944 32.4795L10.1387 31.3257ZM11.1055 32.9102L8.89001 34.933L8.91244 34.9575L8.9354 34.9816L11.1055 32.9102ZM12.3945 33.7695L11.3526 36.5828L12.3945 33.7695ZM15.8589 33.6084L17.2348 36.2743L15.8589 33.6084ZM17.2822 32.2119L14.7344 30.6281L14.7283 30.6378L14.7224 30.6476L17.2822 32.2119ZM18.1953 29.6069L15.2517 29.0279L15.248 29.0469L15.2445 29.066L18.1953 29.6069ZM24.5679 17.3608V24.5044H30.5679V17.3608H24.5679ZM24.5679 24.5044C24.5679 27.0905 24.2618 29.2133 23.7161 30.9243L29.4323 32.7476C30.2115 30.3049 30.5679 27.54 30.5679 24.5044H24.5679ZM23.709 30.9467C23.1681 32.6898 22.4263 34.0075 21.5455 34.9918L26.017 38.9926C27.5711 37.2556 28.6913 35.1358 29.4394 32.7251L23.709 30.9467ZM21.5309 35.0083C20.6393 36.0196 19.5965 36.7535 18.3754 37.2394L20.5934 42.8143C22.7023 41.9753 24.5241 40.6861 26.0316 38.9761L21.5309 35.0083ZM18.3754 37.2394C17.1028 37.7457 15.6495 38.0205 13.979 38.0205V44.0205C16.3189 44.0205 18.5359 43.6329 20.5934 42.8143L18.3754 37.2394ZM13.979 38.0205C12.6246 38.0205 11.4091 37.8477 10.3158 37.5253L8.61879 43.2803C10.3184 43.7815 12.1107 44.0205 13.979 44.0205V38.0205ZM10.3495 37.5355C9.28049 37.2066 8.33699 36.7216 7.49879 36.0829L3.86253 40.8555C5.2802 41.9357 6.86111 42.7397 8.58503 43.2702L10.3495 37.5355ZM7.54083 36.1156C6.72827 35.4734 5.99835 34.6527 5.3609 33.6186L0.253356 36.7671C1.22724 38.347 2.41301 39.7105 3.8205 40.8229L7.54083 36.1156ZM5.3609 33.6186C4.74836 32.6249 4.23862 31.3889 3.86965 29.8669L-1.96145 31.2805C-1.47104 33.3034 -0.745426 35.1469 0.253356 36.7671L5.3609 33.6186ZM3.87126 29.8736C3.5073 28.3571 3.30957 26.5751 3.30957 24.5044H-2.69043C-2.69043 26.9454 -2.45847 29.2097 -1.96306 31.2738L3.87126 29.8736ZM3.30957 24.5044V17.3608H-2.69043V24.5044H3.30957ZM3.30957 17.3608C3.30957 14.7472 3.60884 12.6203 4.13936 10.9255L-1.58663 9.13305C-2.34517 11.5562 -2.69043 14.317 -2.69043 17.3608H3.30957ZM4.1345 10.9409C4.693 9.18996 5.44556 7.86406 6.33191 6.87343L1.86047 2.87266C0.311922 4.60339 -0.815395 6.71499 -1.58176 9.11765L4.1345 10.9409ZM6.33191 6.87343C7.24582 5.85201 8.30368 5.11334 9.52892 4.62587L7.31092 -0.949113C5.20609 -0.111708 3.38146 1.17273 1.86047 2.87266L6.33191 6.87343ZM9.52892 4.62587C10.8015 4.11958 12.2548 3.84473 13.9253 3.84473V-2.15527C11.5854 -2.15527 9.36842 -1.76769 7.31092 -0.949113L9.52892 4.62587ZM13.9253 3.84473C15.2686 3.84473 16.4592 4.02351 17.5175 4.35336L19.3029 -1.37484C17.604 -1.90437 15.8047 -2.15527 13.9253 -2.15527V3.84473ZM17.5617 4.36677C18.605 4.67443 19.529 5.14851 20.355 5.79091L24.0386 1.05479C22.6087 -0.0573624 21.0082 -0.872344 19.2587 -1.38825L17.5617 4.36677ZM20.3786 5.80915C21.1833 6.42222 21.8935 7.21327 22.5009 8.22102L27.6397 5.1237C26.6716 3.51752 25.4661 2.14223 24.0149 1.03656L20.3786 5.80915ZM22.5165 8.24661C23.1262 9.23562 23.6363 10.4773 24.0062 12.0185L29.8405 10.6182C29.351 8.57869 28.6257 6.72304 27.6241 5.09812L22.5165 8.24661ZM24.0078 12.0252C24.37 13.5193 24.5679 15.2894 24.5679 17.3608H30.5679C30.5679 14.9205 30.3361 12.6623 29.8389 10.6116L24.0078 12.0252ZM21.5176 25.6055V16.2061H15.5176V25.6055H21.5176ZM21.5176 16.2061C21.5176 14.8467 21.4404 13.5954 21.2678 12.4735L15.3376 13.3859C15.4515 14.126 15.5176 15.0589 15.5176 16.2061H21.5176ZM21.2759 12.5295C21.1269 11.4224 20.878 10.365 20.4811 9.41256L14.9427 11.7203C15.0829 12.0569 15.2279 12.575 15.3296 13.3299L21.2759 12.5295ZM20.5079 9.47907C20.1519 8.5636 19.6514 7.68054 18.942 6.93736L14.6019 11.0802C14.6445 11.1248 14.7706 11.2801 14.9159 11.6537L20.5079 9.47907ZM18.9874 6.98598C18.3158 6.25044 17.4929 5.66784 16.5249 5.30931L14.441 10.9358C14.4475 10.9382 14.4552 10.9416 14.4681 10.9505C14.4819 10.96 14.5122 10.983 14.5565 11.0316L18.9874 6.98598ZM16.6518 5.35966C15.7703 4.98669 14.8464 4.82715 13.9253 4.82715V10.8271C14.15 10.8271 14.2645 10.8645 14.314 10.8855L16.6518 5.35966ZM13.9253 4.82715C12.7703 4.82715 11.6342 5.07653 10.5842 5.63434L13.3992 10.933C13.495 10.8821 13.648 10.8271 13.9253 10.8271V4.82715ZM10.6158 5.61783C9.4795 6.20429 8.62862 7.10111 8.00851 8.11583L13.1282 11.2445C13.2137 11.1047 13.2815 11.0275 13.3206 10.9891C13.3575 10.9529 13.3733 10.9466 13.3676 10.9496L10.6158 5.61783ZM8.00851 8.11583C7.36837 9.16334 6.96907 10.3922 6.71353 11.67L12.597 12.8466C12.7712 11.9759 12.9806 11.4861 13.1282 11.2445L8.00851 8.11583ZM6.70445 11.7173C6.46424 13.0276 6.35986 14.5368 6.35986 16.2061H12.3599C12.3599 14.7601 12.4524 13.6375 12.6061 12.7993L6.70445 11.7173ZM6.35986 16.2061V25.6055H12.3599V16.2061H6.35986ZM6.35986 25.6055C6.35986 26.9682 6.42663 28.215 6.57368 29.3284L12.522 28.5427C12.4184 27.7583 12.3599 26.785 12.3599 25.6055H6.35986ZM6.58274 29.3917C6.74806 30.4663 6.98846 31.4773 7.33281 32.3874L12.9445 30.264C12.7876 29.8492 12.6341 29.2668 12.513 28.4794L6.58274 29.3917ZM7.36944 32.4795C7.7389 33.3662 8.23026 34.2104 8.89001 34.933L13.3209 30.8873C13.2287 30.7864 13.0756 30.5742 12.9079 30.1718L7.36944 32.4795ZM8.9354 34.9816C9.608 35.6862 10.4177 36.2365 11.3526 36.5828L13.4365 30.9563C13.4046 30.9445 13.3549 30.9219 13.2755 30.8387L8.9354 34.9816ZM11.3526 36.5828C12.2046 36.8983 13.0899 37.0381 13.979 37.0381V31.0381C13.7223 31.0381 13.5513 30.9988 13.4365 30.9563L11.3526 36.5828ZM13.979 37.0381C15.0988 37.0381 16.2063 36.8051 17.2348 36.2743L14.483 30.9425C14.4014 30.9846 14.2557 31.0381 13.979 31.0381V37.0381ZM17.2348 36.2743C18.3711 35.6878 19.222 34.791 19.8421 33.7763L14.7224 30.6476C14.6369 30.7874 14.5691 30.8646 14.53 30.903C14.4931 30.9392 14.4773 30.9455 14.483 30.9425L17.2348 36.2743ZM19.8301 33.7957C20.5026 32.7138 20.9065 31.4548 21.1461 30.1479L15.2445 29.066C15.0902 29.9075 14.8854 30.3851 14.7344 30.6281L19.8301 33.7957ZM21.1389 30.186C21.4031 28.8427 21.5176 27.3022 21.5176 25.6055H15.5176C15.5176 27.0597 15.4172 28.1869 15.2517 29.0279L21.1389 30.186ZM60.1704 25.2026H63.1704V22.2026H60.1704V25.2026ZM60.1704 32.1851V35.1851H63.1704V32.1851H60.1704ZM32.0259 32.1851L29.0399 32.475L29.303 35.1851H32.0259V32.1851ZM31.4888 26.6528L28.941 25.0689L28.4046 25.9316L28.5028 26.9427L31.4888 26.6528ZM47.1992 1.38184V-1.61816H45.5318L44.6514 -0.202072L47.1992 1.38184ZM54.3428 1.38184L56.9028 2.94597L59.6914 -1.61816H54.3428V1.38184ZM46.5815 14.0845L44.0216 12.5203L44.0035 12.5499L43.9861 12.5799L46.5815 14.0845ZM40.1362 25.2026L37.5408 23.698L34.9295 28.2026H40.1362V25.2026ZM56.2227 1.38184H59.2227V-1.61816H56.2227V1.38184ZM56.2227 40.4834V43.4834H59.2227V40.4834H56.2227ZM47.1724 40.4834H44.1724V43.4834H47.1724V40.4834ZM47.1724 1.38184V-1.61816H44.1724V1.38184H47.1724ZM57.1704 25.2026V32.1851H63.1704V25.2026H57.1704ZM60.1704 29.1851H32.0259V35.1851H60.1704V29.1851ZM35.0118 31.8952L34.4747 26.3629L28.5028 26.9427L29.0399 32.475L35.0118 31.8952ZM34.0366 28.2367L49.747 2.96574L44.6514 -0.202072L28.941 25.0689L34.0366 28.2367ZM47.1992 4.38184H54.3428V-1.61816H47.1992V4.38184ZM51.7828 -0.182295L44.0216 12.5203L49.1415 15.6486L56.9028 2.94597L51.7828 -0.182295ZM43.9861 12.5799L37.5408 23.698L42.7317 26.7072L49.177 15.5891L43.9861 12.5799ZM40.1362 28.2026H60.1704V22.2026H40.1362V28.2026ZM53.2227 1.38184V40.4834H59.2227V1.38184H53.2227ZM56.2227 37.4834H47.1724V43.4834H56.2227V37.4834ZM50.1724 40.4834V1.38184H44.1724V40.4834H50.1724ZM47.1724 4.38184H56.2227V-1.61816H47.1724V4.38184Z" fill="white"/>
</svg>
