<svg width="60" height="42" viewBox="0 0 60 42" fill="none" xmlns="http://www.w3.org/2000/svg">
<path d="M26.5742 31.8359L23.7161 30.9243L23.7125 30.9355L23.709 30.9467L26.5742 31.8359ZM23.7812 36.9922L21.5455 34.9918L21.5382 35L21.5309 35.0083L23.7812 36.9922ZM9.46729 40.4028L8.58503 43.2702L8.60188 43.2754L8.61879 43.2803L9.46729 40.4028ZM5.68066 38.4692L3.8205 40.8229L3.84137 40.8394L3.86253 40.8555L5.68066 38.4692ZM0.954102 30.5737L-1.96307 31.2739L-1.96145 31.2805L0.954102 30.5737ZM1.27637 10.0293L-1.58176 9.11765L-1.58422 9.12535L-1.58663 9.13305L1.27637 10.0293ZM18.4102 1.48926L17.5175 4.35336L17.5395 4.36023L17.5617 4.36677L18.4102 1.48926ZM22.1968 3.42285L20.355 5.79091L20.3668 5.80009L20.3786 5.80915L22.1968 3.42285ZM25.0703 6.67236L22.5009 8.22102L22.5087 8.23385L22.5165 8.24661L25.0703 6.67236ZM26.9233 11.3184L24.0062 12.0185L24.0078 12.0252L26.9233 11.3184ZM18.3027 12.9297L15.3296 13.3299L15.3333 13.3579L15.3376 13.3859L18.3027 12.9297ZM17.7119 10.5664L14.9159 11.6537L14.9289 11.6872L14.9427 11.7203L17.7119 10.5664ZM16.772 9.00879L14.5565 11.0316L14.5789 11.0562L14.6019 11.0802L16.772 9.00879ZM15.4829 8.12256L14.314 10.8855L14.3769 10.9121L14.441 10.9358L15.4829 8.12256ZM11.9917 8.28369L13.3676 10.9496L13.3834 10.9414L13.3992 10.933L11.9917 8.28369ZM9.65527 12.2583L6.71353 11.67L6.7088 11.6936L6.70445 11.7173L9.65527 12.2583ZM9.54785 28.9355L6.57368 29.3284L6.57787 29.3601L6.58274 29.3917L9.54785 28.9355ZM10.1387 31.3257L7.33281 32.3874L7.35037 32.4337L7.36944 32.4795L10.1387 31.3257ZM11.1055 32.9102L8.89001 34.933L8.91244 34.9575L8.9354 34.9816L11.1055 32.9102ZM12.3945 33.7695L11.3526 36.5828L12.3945 33.7695ZM15.8589 33.6084L17.2348 36.2743L15.8589 33.6084ZM17.2822 32.2119L14.7344 30.6281L14.7283 30.6378L14.7224 30.6476L17.2822 32.2119ZM18.1953 29.6069L15.2517 29.0279L15.248 29.0469L15.2445 29.066L18.1953 29.6069ZM24.5679 17.3608V24.5044H30.5679V17.3608H24.5679ZM24.5679 24.5044C24.5679 27.0905 24.2618 29.2133 23.7161 30.9243L29.4323 32.7476C30.2115 30.3049 30.5679 27.54 30.5679 24.5044H24.5679ZM23.709 30.9467C23.1681 32.6898 22.4263 34.0075 21.5455 34.9918L26.017 38.9926C27.5711 37.2556 28.6913 35.1358 29.4394 32.7251L23.709 30.9467ZM21.5309 35.0083C20.6393 36.0196 19.5965 36.7535 18.3754 37.2394L20.5934 42.8143C22.7023 41.9753 24.5241 40.6861 26.0316 38.9761L21.5309 35.0083ZM18.3754 37.2394C17.1028 37.7457 15.6495 38.0205 13.979 38.0205V44.0205C16.3189 44.0205 18.5359 43.6329 20.5934 42.8143L18.3754 37.2394ZM13.979 38.0205C12.6246 38.0205 11.4091 37.8477 10.3158 37.5253L8.61879 43.2803C10.3184 43.7815 12.1107 44.0205 13.979 44.0205V38.0205ZM10.3495 37.5355C9.28049 37.2066 8.33699 36.7216 7.49879 36.0829L3.86253 40.8555C5.2802 41.9357 6.86111 42.7397 8.58503 43.2702L10.3495 37.5355ZM7.54083 36.1156C6.72827 35.4734 5.99835 34.6527 5.3609 33.6186L0.253356 36.7671C1.22724 38.347 2.41301 39.7105 3.8205 40.8229L7.54083 36.1156ZM5.3609 33.6186C4.74836 32.6249 4.23862 31.3889 3.86965 29.8669L-1.96145 31.2805C-1.47104 33.3034 -0.745426 35.1469 0.253356 36.7671L5.3609 33.6186ZM3.87126 29.8736C3.5073 28.3571 3.30957 26.5751 3.30957 24.5044H-2.69043C-2.69043 26.9454 -2.45847 29.2097 -1.96306 31.2738L3.87126 29.8736ZM3.30957 24.5044V17.3608H-2.69043V24.5044H3.30957ZM3.30957 17.3608C3.30957 14.7472 3.60884 12.6203 4.13936 10.9255L-1.58663 9.13305C-2.34517 11.5562 -2.69043 14.317 -2.69043 17.3608H3.30957ZM4.1345 10.9409C4.693 9.18996 5.44556 7.86406 6.33191 6.87343L1.86047 2.87266C0.311922 4.60339 -0.815395 6.71499 -1.58176 9.11765L4.1345 10.9409ZM6.33191 6.87343C7.24582 5.85201 8.30368 5.11334 9.52892 4.62587L7.31092 -0.949113C5.20609 -0.111708 3.38146 1.17273 1.86047 2.87266L6.33191 6.87343ZM9.52892 4.62587C10.8015 4.11958 12.2548 3.84473 13.9253 3.84473V-2.15527C11.5854 -2.15527 9.36842 -1.76769 7.31092 -0.949113L9.52892 4.62587ZM13.9253 3.84473C15.2686 3.84473 16.4592 4.02351 17.5175 4.35336L19.3029 -1.37484C17.604 -1.90437 15.8047 -2.15527 13.9253 -2.15527V3.84473ZM17.5617 4.36677C18.605 4.67443 19.529 5.14851 20.355 5.79091L24.0386 1.05479C22.6087 -0.0573624 21.0082 -0.872344 19.2587 -1.38825L17.5617 4.36677ZM20.3786 5.80915C21.1833 6.42222 21.8935 7.21327 22.5009 8.22102L27.6397 5.1237C26.6716 3.51752 25.4661 2.14223 24.0149 1.03656L20.3786 5.80915ZM22.5165 8.24661C23.1262 9.23562 23.6363 10.4773 24.0062 12.0185L29.8405 10.6182C29.351 8.57869 28.6257 6.72304 27.6241 5.09812L22.5165 8.24661ZM24.0078 12.0252C24.37 13.5193 24.5679 15.2894 24.5679 17.3608H30.5679C30.5679 14.9205 30.3361 12.6623 29.8389 10.6116L24.0078 12.0252ZM21.5176 25.6055V16.2061H15.5176V25.6055H21.5176ZM21.5176 16.2061C21.5176 14.8467 21.4404 13.5954 21.2678 12.4735L15.3376 13.3859C15.4515 14.126 15.5176 15.0589 15.5176 16.2061H21.5176ZM21.2759 12.5295C21.1269 11.4224 20.878 10.365 20.4811 9.41256L14.9427 11.7203C15.0829 12.0569 15.2279 12.575 15.3296 13.3299L21.2759 12.5295ZM20.5079 9.47907C20.1519 8.5636 19.6514 7.68054 18.942 6.93736L14.6019 11.0802C14.6445 11.1248 14.7706 11.2801 14.9159 11.6537L20.5079 9.47907ZM18.9874 6.98598C18.3158 6.25044 17.4929 5.66784 16.5249 5.30931L14.441 10.9358C14.4475 10.9382 14.4552 10.9416 14.4681 10.9505C14.4819 10.96 14.5122 10.983 14.5565 11.0316L18.9874 6.98598ZM16.6518 5.35966C15.7703 4.98669 14.8464 4.82715 13.9253 4.82715V10.8271C14.15 10.8271 14.2645 10.8645 14.314 10.8855L16.6518 5.35966ZM13.9253 4.82715C12.7703 4.82715 11.6342 5.07653 10.5842 5.63434L13.3992 10.933C13.495 10.8821 13.648 10.8271 13.9253 10.8271V4.82715ZM10.6158 5.61783C9.4795 6.20429 8.62862 7.10111 8.00851 8.11583L13.1282 11.2445C13.2137 11.1047 13.2815 11.0275 13.3206 10.9891C13.3575 10.9529 13.3733 10.9466 13.3676 10.9496L10.6158 5.61783ZM8.00851 8.11583C7.36837 9.16334 6.96907 10.3922 6.71353 11.67L12.597 12.8466C12.7712 11.9759 12.9806 11.4861 13.1282 11.2445L8.00851 8.11583ZM6.70445 11.7173C6.46424 13.0276 6.35986 14.5368 6.35986 16.2061H12.3599C12.3599 14.7601 12.4524 13.6375 12.6061 12.7993L6.70445 11.7173ZM6.35986 16.2061V25.6055H12.3599V16.2061H6.35986ZM6.35986 25.6055C6.35986 26.9682 6.42663 28.215 6.57368 29.3284L12.522 28.5427C12.4184 27.7583 12.3599 26.785 12.3599 25.6055H6.35986ZM6.58274 29.3917C6.74806 30.4663 6.98846 31.4773 7.33281 32.3874L12.9445 30.264C12.7876 29.8492 12.6341 29.2668 12.513 28.4794L6.58274 29.3917ZM7.36944 32.4795C7.7389 33.3662 8.23026 34.2104 8.89001 34.933L13.3209 30.8873C13.2287 30.7864 13.0756 30.5742 12.9079 30.1718L7.36944 32.4795ZM8.9354 34.9816C9.608 35.6862 10.4177 36.2365 11.3526 36.5828L13.4365 30.9563C13.4046 30.9445 13.3549 30.9219 13.2755 30.8387L8.9354 34.9816ZM11.3526 36.5828C12.2046 36.8983 13.0899 37.0381 13.979 37.0381V31.0381C13.7223 31.0381 13.5513 30.9988 13.4365 30.9563L11.3526 36.5828ZM13.979 37.0381C15.0988 37.0381 16.2063 36.8051 17.2348 36.2743L14.483 30.9425C14.4014 30.9846 14.2557 31.0381 13.979 31.0381V37.0381ZM17.2348 36.2743C18.3711 35.6878 19.222 34.791 19.8421 33.7763L14.7224 30.6476C14.6369 30.7874 14.5691 30.8646 14.53 30.903C14.4931 30.9392 14.4773 30.9455 14.483 30.9425L17.2348 36.2743ZM19.8301 33.7957C20.5026 32.7138 20.9065 31.4548 21.1461 30.1479L15.2445 29.066C15.0902 29.9075 14.8854 30.3851 14.7344 30.6281L19.8301 33.7957ZM21.1389 30.186C21.4031 28.8427 21.5176 27.3022 21.5176 25.6055H15.5176C15.5176 27.0597 15.4172 28.1869 15.2517 29.0279L21.1389 30.186ZM40.0557 23.0542L39.3692 25.9746L41.3047 26.4296L42.4778 24.8242L40.0557 23.0542ZM32.8584 21.3623L29.8792 21.0099L29.5646 23.6698L32.1719 24.2827L32.8584 21.3623ZM35.2217 1.38184V-1.61816H32.5556L32.2424 1.02945L35.2217 1.38184ZM58.0757 1.38184H61.0757V-1.61816H58.0757V1.38184ZM58.0757 8.41797V11.418H61.0757V8.41797H58.0757ZM42.6069 8.41797V5.41797H39.93L39.6263 8.07762L42.6069 8.41797ZM41.7207 16.1792L38.7401 15.8389L38.0608 21.7872L43.2323 18.7705L41.7207 16.1792ZM43.896 15.293L44.8447 18.139L44.8593 18.1341L44.874 18.1291L43.896 15.293ZM52.4629 15.6421L51.3545 18.4298L51.3747 18.4378L51.3949 18.4456L52.4629 15.6421ZM56.2764 18.1934L54.0693 20.2253L54.0774 20.2341L54.0856 20.2428L56.2764 18.1934ZM58.6128 22.3022L55.7544 23.2132L55.759 23.2274L55.7636 23.2415L58.6128 22.3022ZM58.5859 32.7759L55.7564 31.7791L55.7531 31.7885L55.7498 31.7979L58.5859 32.7759ZM56.0884 36.9922L53.8585 34.9853L53.8569 34.9871L56.0884 36.9922ZM51.8721 39.9463L53.0362 42.7112L53.0486 42.706L53.0608 42.7007L51.8721 39.9463ZM36.2959 37.9053L34.4496 40.2698L34.4675 40.2838L34.4856 40.2975L36.2959 37.9053ZM33.1807 34.2261L30.5174 35.607L30.5276 35.6268L30.5382 35.6464L33.1807 34.2261ZM32.0796 29.3652V26.3652H29.1094L29.0797 29.3352L32.0796 29.3652ZM41.1836 29.3652L44.1788 29.1957L44.0186 26.3652H41.1836V29.3652ZM43.4395 33.4741L41.9062 36.0527L41.9469 36.0769L41.9884 36.0998L43.4395 33.4741ZM48.0049 33.501L46.45 30.9354L48.0049 33.501ZM50.1265 29.8755L53.0802 30.4006L53.0821 30.3895L50.1265 29.8755ZM50.019 24.6655L47.1126 25.409L47.1207 25.4406L47.1295 25.4719L50.019 24.6655ZM49.0522 22.7051L46.717 24.5883L46.7321 24.6071L46.7476 24.6256L49.0522 22.7051ZM47.3066 21.4429L46.168 24.2184L46.1802 24.2234L46.1925 24.2283L47.3066 21.4429ZM40.7422 20.1338L33.5449 18.4419L32.1719 24.2827L39.3692 25.9746L40.7422 20.1338ZM35.8376 21.7147L38.2009 1.73422L32.2424 1.02945L29.8792 21.0099L35.8376 21.7147ZM35.2217 4.38184H58.0757V-1.61816H35.2217V4.38184ZM55.0757 1.38184V8.41797H61.0757V1.38184H55.0757ZM58.0757 5.41797H42.6069V11.418H58.0757V5.41797ZM39.6263 8.07762L38.7401 15.8389L44.7013 16.5195L45.5876 8.75832L39.6263 8.07762ZM43.2323 18.7705C43.3758 18.6868 43.8484 18.4711 44.8447 18.139L42.9473 12.4469C41.9026 12.7951 40.925 13.1703 40.2091 13.5879L43.2323 18.7705ZM44.874 18.1291C45.5568 17.8936 46.3668 17.7559 47.3335 17.7559V11.7559C45.7936 11.7559 44.312 11.9762 42.918 12.4569L44.874 18.1291ZM47.3335 17.7559C48.9648 17.7559 50.2866 18.0052 51.3545 18.4298L53.5713 12.8543C51.6672 12.0973 49.5693 11.7559 47.3335 11.7559V17.7559ZM51.3949 18.4456C52.4867 18.8615 53.3614 19.4564 54.0693 20.2253L58.4835 16.1614C57.1145 14.6745 55.4469 13.5686 53.5309 12.8386L51.3949 18.4456ZM54.0856 20.2428C54.7836 20.9891 55.3535 21.955 55.7544 23.2132L61.4712 21.3913C60.8337 19.3911 59.8459 17.6177 58.4672 16.1439L54.0856 20.2428ZM55.7636 23.2415C56.1816 24.5093 56.4185 26.0446 56.4185 27.8882H62.4185C62.4185 25.5423 62.1182 23.3537 61.462 21.363L55.7636 23.2415ZM56.4185 27.8882C56.4185 29.2342 56.1977 30.5262 55.7564 31.7791L61.4155 33.7727C62.0842 31.8745 62.4185 29.908 62.4185 27.8882H56.4185ZM55.7498 31.7979C55.3469 32.9664 54.7239 34.0238 53.8585 34.9853L58.3183 38.9991C59.7087 37.4541 60.7508 35.7006 61.4221 33.7539L55.7498 31.7979ZM53.8569 34.9871C53.0681 35.8649 52.0327 36.6095 50.6833 37.1919L53.0608 42.7007C55.1131 41.815 56.8886 40.5902 58.3199 38.9973L53.8569 34.9871ZM50.7079 37.1814C49.4582 37.7076 47.8579 38.0205 45.8296 38.0205V44.0205C48.4563 44.0205 50.8842 43.6173 53.0362 42.7112L50.7079 37.1814ZM45.8296 38.0205C44.408 38.0205 43.0301 37.8016 41.684 37.3627L39.8238 43.067C41.772 43.7023 43.7778 44.0205 45.8296 44.0205V38.0205ZM41.684 37.3627C40.3401 36.9244 39.154 36.306 38.1062 35.5131L34.4856 40.2975C36.0875 41.5098 37.8735 42.431 39.8238 43.067L41.684 37.3627ZM38.1422 35.5407C37.1566 34.7711 36.392 33.8641 35.8231 32.8057L30.5382 35.6464C31.509 37.4526 32.8213 38.9984 34.4496 40.2698L38.1422 35.5407ZM35.8439 32.8451C35.3391 31.8715 35.066 30.743 35.0794 29.3952L29.0797 29.3352C29.0574 31.5682 29.5184 33.6803 30.5174 35.607L35.8439 32.8451ZM32.0796 32.3652H41.1836V26.3652H32.0796V32.3652ZM38.1884 29.5348C38.2633 30.8576 38.5845 32.1442 39.242 33.3099L44.4679 30.362C44.3377 30.1312 44.2113 29.7706 44.1788 29.1957L38.1884 29.5348ZM39.242 33.3099C39.8825 34.4452 40.7751 35.3802 41.9062 36.0527L44.9727 30.8955C44.7789 30.7803 44.6153 30.6232 44.4679 30.362L39.242 33.3099ZM41.9884 36.0998C43.1676 36.7515 44.4574 37.0381 45.7759 37.0381V31.0381C45.3399 31.0381 45.072 30.9487 44.8905 30.8484L41.9884 36.0998ZM45.7759 37.0381C47.0603 37.0381 48.3806 36.7812 49.5598 36.0666L46.45 30.9354C46.4476 30.9369 46.2818 31.0381 45.7759 31.0381V37.0381ZM49.5598 36.0666C50.6203 35.4238 51.4526 34.5334 52.0379 33.4552L46.7648 30.5926C46.6698 30.7677 46.5711 30.862 46.45 30.9354L49.5598 36.0666ZM52.0379 33.4552C52.5526 32.5072 52.8887 31.4774 53.0802 30.4006L47.1728 29.3504C47.0777 29.8849 46.9305 30.2874 46.7648 30.5926L52.0379 33.4552ZM53.0821 30.3895C53.2574 29.3815 53.3413 28.3403 53.3413 27.2705H47.3413C47.3413 28.0269 47.282 28.7224 47.1708 29.3615L53.0821 30.3895ZM53.3413 27.2705C53.3413 26.0861 53.2102 24.9396 52.9086 23.8591L47.1295 25.4719C47.2576 25.9311 47.3413 26.5214 47.3413 27.2705H53.3413ZM52.9254 23.922C52.6331 22.7791 52.1268 21.7084 51.3569 20.7845L46.7476 24.6256C46.8729 24.776 47.0111 25.0122 47.1126 25.409L52.9254 23.922ZM51.3875 20.8218C50.5908 19.834 49.5744 19.1189 48.4208 18.6574L46.1925 24.2283C46.4712 24.3398 46.6185 24.4662 46.717 24.5883L51.3875 20.8218ZM48.4453 18.6674C47.2939 18.195 46.0442 18.0132 44.7822 18.0132V24.0132C45.4896 24.0132 45.9228 24.1178 46.168 24.2184L48.4453 18.6674ZM44.7822 18.0132C43.183 18.0132 41.5502 18.2789 40.1594 19.1067L43.2283 24.2624C43.3414 24.1951 43.7676 24.0132 44.7822 24.0132V18.0132ZM40.1594 19.1067C39.2224 19.6644 38.3028 20.3683 37.6335 21.2841L42.4778 24.8242C42.4752 24.8278 42.5167 24.7711 42.6446 24.6642C42.7712 24.5584 42.9596 24.4224 43.2283 24.2624L40.1594 19.1067Z" fill="white"/>
</svg>
